<svg width="1104" height="308" viewBox="0 0 1104 308" fill="none" xmlns="http://www.w3.org/2000/svg">
<mask id="mask0_89_1168" style="mask-type:alpha" maskUnits="userSpaceOnUse" x="0" y="0" width="1104" height="308">
<path d="M0 20C0 8.95431 8.9543 0 20 0H1084C1095.05 0 1104 8.95431 1104 20V288C1104 299.046 1095.05 308 1084 308H20C8.9543 308 0 299.046 0 288V20Z" fill="#474BC6"/>
</mask>
<g mask="url(#mask0_89_1168)">
<path d="M576.5 231C466.5 237.8 347.333 278.334 302 312.5H1157C1176.33 207.5 1187.7 -4.79951 1078.5 -13.9995C942 -25.4995 914 106.793 828.5 148.5C787.5 168.5 714 222.5 576.5 231Z" fill="url(#paint0_linear_89_1168)"/>
</g>
<defs>
<linearGradient id="paint0_linear_89_1168" x1="840.5" y1="453.5" x2="302" y2="202.5" gradientUnits="userSpaceOnUse">
<stop stop-color="white" stop-opacity="0.18"/>
<stop offset="1" stop-color="white" stop-opacity="0"/>
</linearGradient>
</defs>
</svg>
