<svg width="22" height="22" viewBox="0 0 22 22" fill="none" xmlns="http://www.w3.org/2000/svg">
<g clip-path="url(#clip0_89_2056)">
<path d="M5.02773 6.47109H5.80117V9.08789C5.80117 10.4887 6.92266 11.7648 8.0957 12.8262V14.025C8.0957 14.5922 7.63594 15.052 7.06875 15.052C7.04727 15.052 5.50898 15.2152 5.50039 15.2152V18.223H16.5004V15.2152C16.1395 15.1766 14.9535 15.052 14.9363 15.052C14.3691 15.052 13.9094 14.5922 13.9094 14.025V12.8262C15.0781 11.7691 16.2039 10.493 16.2039 9.08789V6.47109H16.9773C17.2437 6.47109 17.4543 6.25625 17.4543 5.99414C17.4543 5.73203 17.2437 5.51719 16.9773 5.51719H16.6723C16.5863 3.31289 15.2457 1.43516 13.3422 0.571484C13.3379 0.653125 13.3293 0.734766 13.3121 0.816406L12.6031 3.9875C12.5473 4.24531 12.2895 4.40859 12.0316 4.34844C11.7738 4.29258 11.6105 4.03477 11.6707 3.77695L12.3797 0.605859C12.4098 0.464063 12.3754 0.317969 12.2852 0.201953C12.1949 0.0859375 12.0574 0.0214844 11.9113 0.0214844H10.0852C9.93906 0.0214844 9.80156 0.0859375 9.71133 0.201953C9.62109 0.317969 9.58672 0.464063 9.6168 0.605859L10.3301 3.78125C10.3859 4.03906 10.227 4.29258 9.96914 4.35273C9.70273 4.4043 9.45352 4.24102 9.39766 3.9918L8.68867 0.820703C8.67148 0.739062 8.65859 0.657422 8.65859 0.571484C6.75508 1.43086 5.41445 3.31719 5.32852 5.51719H5.02773C4.76133 5.51719 4.55078 5.73203 4.55078 5.99414C4.55078 6.25625 4.76133 6.47109 5.02773 6.47109ZM14.1113 15.8254C12.0273 17.1187 9.98203 17.1187 7.89805 15.8211C8.57695 15.5074 9.04531 14.8242 9.04531 14.025V13.6426C9.29453 13.8488 9.20859 13.7801 9.39336 13.9348C9.67695 14.1711 10.0336 14.3 10.3945 14.3H11.602C11.9672 14.3 12.3238 14.1711 12.6031 13.9348C12.6891 13.8617 12.8953 13.6898 12.9512 13.6426V14.025C12.9555 14.8242 13.4324 15.5074 14.1113 15.8254ZM6.75508 6.47109H15.2457V9.08789C15.2457 10.5961 13.1875 12.2074 11.993 13.2C11.8812 13.2945 11.7395 13.3461 11.5977 13.3461H10.3902C10.2484 13.3461 10.1066 13.2945 9.99492 13.2C8.7918 12.1988 6.74219 10.5961 6.74219 9.08789L6.75508 6.47109Z" fill="#474BC6"/>
<path d="M21.983 21.3687L21.3557 19.0012C20.8615 17.1363 19.349 15.7227 17.4541 15.3359V18.3094C18.2104 18.5156 18.8291 19.0742 19.0998 19.8348L19.8518 21.9746H21.5275C21.8412 21.9746 22.0646 21.6652 21.983 21.3687Z" fill="#474BC6"/>
<path d="M18.8334 21.9701H3.18848L3.79863 20.1482C4.02637 19.5209 4.59355 19.1729 5.26387 19.1729H16.7279C17.4025 19.1729 17.9826 19.5381 18.2018 20.1482L18.8334 21.9701Z" fill="#474BC6"/>
<path d="M4.55035 18.3045V15.3311C2.66402 15.7135 1.14293 17.1271 0.653087 19.0006L0.0171494 21.3682C-0.0601943 21.6861 0.16754 21.9697 0.476915 21.9697H2.17848L2.90895 19.8299C3.17106 19.0736 3.7984 18.515 4.55035 18.3045Z" fill="#474BC6"/>
</g>
<defs>
<clipPath id="clip0_89_2056">
<rect width="22" height="22" fill="white"/>
</clipPath>
</defs>
</svg>
