<svg width="19" height="19" viewBox="0 0 19 19" fill="none" xmlns="http://www.w3.org/2000/svg">
<g clip-path="url(#clip0_89_2079)">
<path d="M0 3.27573V5.40886H19V3.27573L9.5 0L0 3.27573ZM18.0928 3.68095C18.2295 3.72817 18.3214 3.85689 18.3214 4.00152V4.391C18.3214 4.57837 18.1695 4.73029 17.9821 4.73029H1.01786C0.830488 4.73029 0.678571 4.57837 0.678571 4.391V4.00152C0.678571 3.85689 0.770517 3.72817 0.907192 3.68095L9.38933 0.755938C9.46107 0.730756 9.53893 0.730756 9.61067 0.755938L18.0928 3.68095Z" fill="#474BC6"/>
<path d="M1.91309 4.05176H17.0868L9.50013 1.43555L1.91309 4.05176Z" fill="#474BC6"/>
<path d="M8.48193 8.80176H10.5176V14.9089H8.48193V8.80176Z" fill="#474BC6"/>
<path d="M14.5894 8.80176H16.6251V14.9089H14.5894V8.80176Z" fill="#474BC6"/>
<path d="M2.375 8.80176H4.41071V14.9089H2.375V8.80176Z" fill="#474BC6"/>
<path d="M1.69629 15.5879H17.3034V16.2665H1.69629V15.5879Z" fill="#474BC6"/>
<path d="M1.01807 16.9443H17.9824V17.6229H1.01807V16.9443Z" fill="#474BC6"/>
<path d="M0 18.3018H19V18.9803H0V18.3018Z" fill="#474BC6"/>
<path d="M2.03551 8.12291H4.74979C5.12453 8.12291 5.42836 7.81907 5.42836 7.44434H1.35693C1.35693 7.81907 1.66077 8.12291 2.03551 8.12291Z" fill="#474BC6"/>
<path d="M8.14293 8.12291H10.8572C11.232 8.12291 11.5358 7.81907 11.5358 7.44434H7.46436C7.46436 7.81907 7.76819 8.12291 8.14293 8.12291Z" fill="#474BC6"/>
<path d="M14.2499 8.12291H16.9641C17.3389 8.12291 17.6427 7.81907 17.6427 7.44434H13.5713C13.5713 7.81907 13.8751 8.12291 14.2499 8.12291Z" fill="#474BC6"/>
</g>
<defs>
<clipPath id="clip0_89_2079">
<rect width="19" height="19" fill="white"/>
</clipPath>
</defs>
</svg>
