<svg width="19" height="19" viewBox="0 0 19 19" fill="none" xmlns="http://www.w3.org/2000/svg">
    <g clip-path="url(#clip0_89_2076)">
        <path d="M19 4.49023V1.70703C19 0.786236 18.2509 0.0371094 17.3301 0.0371094H1.66992C0.749127 0.0371094 0 0.786236 0 1.70703V4.49023H19ZM12.8398 2.26367H16.1797C16.4871 2.26367 16.7363 2.5129 16.7363 2.82031C16.7363 3.12773 16.4871 3.37695 16.1797 3.37695H12.8398C12.5324 3.37695 12.2832 3.12773 12.2832 2.82031C12.2832 2.5129 12.5324 2.26367 12.8398 2.26367ZM7.27344 2.26367C7.58085 2.26367 7.83008 2.5129 7.83008 2.82031C7.83008 3.12773 7.58085 3.37695 7.27344 3.37695C6.96602 3.37695 6.7168 3.12773 6.7168 2.82031C6.7168 2.5129 6.96602 2.26367 7.27344 2.26367ZM5.04688 2.26367C5.35429 2.26367 5.60352 2.5129 5.60352 2.82031C5.60352 3.12773 5.35429 3.37695 5.04688 3.37695C4.73946 3.37695 4.49023 3.12773 4.49023 2.82031C4.49023 2.5129 4.73946 2.26367 5.04688 2.26367ZM2.82031 2.26367C3.12773 2.26367 3.37695 2.5129 3.37695 2.82031C3.37695 3.12773 3.12773 3.37695 2.82031 3.37695C2.5129 3.37695 2.26367 3.12773 2.26367 2.82031C2.26367 2.5129 2.5129 2.26367 2.82031 2.26367Z"
              fill="#474BC6"/>
        <path d="M0 5.60352V17.293C0 18.2138 0.749127 18.9629 1.66992 18.9629H17.3301C18.2509 18.9629 19 18.2138 19 17.293V5.60352H0ZM6.50787 13.5185C6.74797 13.7105 6.78686 14.0608 6.59482 14.3008C6.40281 14.5409 6.05246 14.5798 5.81244 14.3878L3.02924 12.1612C2.75095 11.9386 2.75077 11.5146 3.02924 11.2919L5.81244 9.0653C6.05239 8.87326 6.40274 8.91215 6.59482 9.15221C6.78686 9.39227 6.74797 9.74258 6.50787 9.93459L4.26802 11.7266L6.50787 13.5185ZM11.6815 8.04936L8.34171 15.8423C8.22062 16.1248 7.89346 16.2558 7.6108 16.1347C7.32825 16.0136 7.19733 15.6863 7.31845 15.4038L10.6583 7.6108C10.7794 7.32825 11.1067 7.19736 11.3892 7.31845C11.6718 7.43954 11.8027 7.76677 11.6815 8.04936ZM15.9708 12.1612L13.1876 14.3878C12.9479 14.5796 12.5975 14.5413 12.4052 14.3009C12.2131 14.0608 12.252 13.7105 12.4921 13.5185L14.732 11.7266L12.4921 9.93466C12.252 9.74262 12.2131 9.39235 12.4052 9.15229C12.5972 8.91222 12.9475 8.8733 13.1876 9.06537L15.9708 11.2919C16.249 11.5145 16.2492 11.9385 15.9708 12.1612Z"
              fill="#474BC6"/>
    </g>
    <defs>
        <clipPath id="clip0_89_2076">
            <rect width="19" height="19" fill="#474BC6"/>
        </clipPath>
    </defs>
</svg>
