<svg width="20" height="20" viewBox="0 0 20 20" fill="none" xmlns="http://www.w3.org/2000/svg">
<g clip-path="url(#clip0_89_2096)">
<path d="M1.66699 19.1667C1.66699 19.3877 1.75479 19.5996 1.91107 19.7559C2.06735 19.9122 2.27931 20 2.50033 20H17.5003C17.7213 20 17.9333 19.9122 18.0896 19.7559C18.2459 19.5996 18.3337 19.3877 18.3337 19.1667V17.5H1.66699V19.1667Z" fill="#474BC6"/>
<path d="M17.5003 0H2.50033C2.27931 0 2.06735 0.0877974 1.91107 0.244078C1.75479 0.400358 1.66699 0.61232 1.66699 0.833333V16.6667H18.3337V0.833333C18.3337 0.61232 18.2459 0.400358 18.0896 0.244078C17.9333 0.0877974 17.7213 0 17.5003 0V0ZM8.33366 1.66667C8.49848 1.66667 8.65959 1.71554 8.79663 1.80711C8.93368 1.89868 9.04049 2.02883 9.10356 2.1811C9.16663 2.33337 9.18313 2.50092 9.15098 2.66258C9.11883 2.82423 9.03946 2.97271 8.92291 3.08926C8.80637 3.2058 8.65789 3.28517 8.49623 3.31732C8.33458 3.34948 8.16703 3.33297 8.01476 3.2699C7.86248 3.20683 7.73234 3.10002 7.64077 2.96298C7.5492 2.82593 7.50033 2.66482 7.50033 2.5C7.50033 2.27899 7.58812 2.06702 7.7444 1.91074C7.90068 1.75446 8.11265 1.66667 8.33366 1.66667ZM4.16699 2.5C4.16699 2.33518 4.21587 2.17407 4.30743 2.03702C4.399 1.89998 4.52915 1.79317 4.68142 1.7301C4.83369 1.66703 5.00125 1.65052 5.1629 1.68268C5.32455 1.71483 5.47304 1.7942 5.58958 1.91074C5.70612 2.02729 5.78549 2.17577 5.81765 2.33742C5.8498 2.49908 5.8333 2.66663 5.77023 2.8189C5.70715 2.97117 5.60034 3.10132 5.4633 3.19289C5.32626 3.28446 5.16514 3.33333 5.00033 3.33333C4.77931 3.33333 4.56735 3.24554 4.41107 3.08926C4.25479 2.93298 4.16699 2.72101 4.16699 2.5ZM10.0003 15C9.01142 15 8.04472 14.7068 7.22247 14.1573C6.40023 13.6079 5.75937 12.827 5.38093 11.9134C5.00249 10.9998 4.90347 9.99445 5.0964 9.02455C5.28933 8.05464 5.76553 7.16373 6.46479 6.46447C7.16405 5.7652 8.05497 5.289 9.02487 5.09607C9.99478 4.90315 11.0001 5.00216 11.9137 5.3806C12.8274 5.75904 13.6083 6.3999 14.1577 7.22215C14.7071 8.04439 15.0003 9.01109 15.0003 10C14.9988 11.3256 14.4716 12.5965 13.5342 13.5339C12.5969 14.4712 11.326 14.9985 10.0003 15ZM15.8337 3.33333H12.5003V1.66667H15.8337V3.33333Z" fill="#474BC6"/>
<path d="M12.6667 8.00251C12.2472 7.4423 11.6621 7.02831 10.9942 6.81923C10.3263 6.61014 9.6096 6.61658 8.94558 6.83762C8.28156 7.05865 7.70395 7.48308 7.29463 8.05074C6.88531 8.61839 6.66504 9.30048 6.66504 10.0003C6.66504 10.7002 6.88531 11.3823 7.29463 11.9499C7.70395 12.5176 8.28156 12.942 8.94558 13.163C9.6096 13.3841 10.3263 13.3905 10.9942 13.1814C11.6621 12.9723 12.2472 12.5584 12.6667 11.9981C12.3563 11.7657 12.1043 11.4641 11.9307 11.1174C11.7572 10.7706 11.6668 10.3881 11.6668 10.0003C11.6668 9.61254 11.7572 9.23008 11.9307 8.8833C12.1043 8.53652 12.3563 8.23495 12.6667 8.00251Z" fill="#474BC6"/>
</g>
<defs>
<clipPath id="clip0_89_2096">
<rect width="20" height="20" fill="white"/>
</clipPath>
</defs>
</svg>
