<svg width="22" height="22" viewBox="0 0 22 22" fill="none" xmlns="http://www.w3.org/2000/svg">
<g clip-path="url(#clip0_89_2028)">
<path d="M21.3003 0.067952C20.9799 -0.0906456 20.5947 0.037745 20.4348 0.355585L14.5516 12.1325L13.3992 11.5553C12.445 11.0775 11.2818 11.4665 10.8041 12.4182L10.5156 12.9942L17.4317 16.4582L17.7202 15.8819C18.1966 14.9305 17.8159 13.7687 16.8573 13.2874L15.7047 12.7101L21.5879 0.933386C21.7472 0.614901 21.6181 0.227796 21.3003 0.067952Z" fill="#474BC6"/>
<path d="M7.43359 22C7.78956 22 8.07812 21.7114 8.07812 21.3555C8.07812 20.9995 7.78956 20.7109 7.43359 20.7109C7.07763 20.7109 6.78906 20.9995 6.78906 21.3555C6.78906 21.7114 7.07763 22 7.43359 22Z" fill="#474BC6"/>
<path d="M0.988281 18.1328C1.34425 18.1328 1.63281 17.8442 1.63281 17.4883C1.63281 17.1323 1.34425 16.8438 0.988281 16.8438C0.632316 16.8438 0.34375 17.1323 0.34375 17.4883C0.34375 17.8442 0.632316 18.1328 0.988281 18.1328Z" fill="#474BC6"/>
<path d="M3.56641 19.4219C3.92237 19.4219 4.21094 19.1333 4.21094 18.7773C4.21094 18.4214 3.92237 18.1328 3.56641 18.1328C3.21044 18.1328 2.92188 18.4214 2.92188 18.7773C2.92188 19.1333 3.21044 19.4219 3.56641 19.4219Z" fill="#474BC6"/>
<path d="M4.85547 20.7109H2.27734C1.92173 20.7109 1.63281 20.422 1.63281 20.0664C1.63281 19.7102 1.34454 19.4219 0.988281 19.4219C0.632027 19.4219 0.34375 19.7102 0.34375 20.0664C0.34375 21.1326 1.21112 22 2.27734 22H4.85547C5.21172 22 5.5 21.7117 5.5 21.3555C5.5 20.9992 5.21172 20.7109 4.85547 20.7109Z" fill="#474BC6"/>
<path d="M4.66795 16.6753C4.38594 16.7105 4.16062 16.9264 4.11279 17.2059C4.06497 17.486 4.2053 17.7642 4.45899 17.8913L7.53878 19.4334C8.09458 19.7117 8.70886 19.8224 9.3081 19.7588C9.23759 20.0446 9.37165 20.3511 9.64549 20.489L12.527 21.9322C12.7692 22.0517 13.0499 22.0096 13.244 21.8378C13.3448 21.748 15.54 19.7729 16.8232 17.5961L9.87928 14.1182C8.32347 16.1853 4.70744 16.6701 4.66795 16.6753Z" fill="#474BC6"/>
</g>
<defs>
<clipPath id="clip0_89_2028">
<rect width="22" height="22" fill="white"/>
</clipPath>
</defs>
</svg>
