<svg width="17" height="17" viewBox="0 0 17 17" fill="none" xmlns="http://www.w3.org/2000/svg">
<g clip-path="url(#clip0_89_2013)">
<path d="M10.6914 15.0078V15.8379C10.6914 16.4787 11.2127 17 11.8535 17H15.8379C16.4787 17 17 16.4787 17 15.8379V15.0078H10.6914Z" fill="#474BC6"/>
<path d="M17 14.0117V7.86914C17 7.22829 16.4787 6.70703 15.8379 6.70703H11.8535C11.2127 6.70703 10.6914 7.22829 10.6914 7.86914V14.0117H17Z" fill="#474BC6"/>
<path d="M11.8535 5.71094C11.8535 5.71094 15.949 5.70679 16.0039 5.71094V5.14648C16.0039 4.50564 15.4826 3.98438 14.8418 3.98438H8.86523C8.22439 3.98438 7.70312 4.50564 7.70312 5.14648V13.2812H9.69531V7.86914C9.69531 6.67915 10.6635 5.71094 11.8535 5.71094Z" fill="#474BC6"/>
<path d="M9.69531 14.2773H7.70312V15.1074C7.70312 15.7483 8.22439 16.2695 8.86523 16.2695H9.73876C9.71036 16.13 9.69531 15.9856 9.69531 15.8379V14.2773Z" fill="#474BC6"/>
<path d="M8.86523 2.98828H14.8418C15.1358 2.98828 15.4162 3.04755 15.6719 3.15456V1.82617C15.6719 0.819183 14.8527 0 13.8457 0H1.82617C0.819183 0 0 0.819183 0 1.82617V7.63672H6.70703V5.14648C6.70703 3.95649 7.67524 2.98828 8.86523 2.98828Z" fill="#474BC6"/>
<path d="M0 8.63281V8.79883C0 9.80582 0.819183 10.625 1.82617 10.625H6.70703V8.63281H0Z" fill="#474BC6"/>
<path d="M6.70703 11.6211H5.48474L4.82042 13.6139C4.00785 13.6286 3.35352 14.2914 3.35352 15.1074C3.35352 15.3825 3.57647 15.6055 3.85156 15.6055H6.70703" fill="#474BC6"/>
</g>
<defs>
<clipPath id="clip0_89_2013">
<rect width="17" height="17" fill="white"/>
</clipPath>
</defs>
</svg>
