<svg width="17" height="17" viewBox="0 0 17 17" fill="none" xmlns="http://www.w3.org/2000/svg">
<g clip-path="url(#clip0_89_1993)">
<path d="M6.085 6.95761H8.50939H10.9338C11.1971 6.95761 11.4104 6.74349 11.4104 6.47906V5.95754C11.4104 4.5898 10.3242 3.40857 8.84428 3.40857C9.62584 3.25231 10.2151 2.55999 10.2151 1.72902C10.2151 0.783229 9.45129 0.0166016 8.50939 0.0166016C7.56748 0.0166016 6.80368 0.783229 6.80368 1.72902C6.80368 2.55999 7.39293 3.25231 8.1745 3.40857C6.6965 3.40857 5.6084 4.58797 5.6084 5.95754V6.47906C5.60843 6.74345 5.82166 6.95761 6.085 6.95761Z" fill="#474BC6"/>
<path d="M2.1424 8.29322C2.17255 8.29873 2.20247 8.30138 2.23205 8.30138C2.46779 8.30138 2.67721 8.13238 2.72093 7.89119C2.84342 7.21538 3.07531 6.55872 3.41013 5.93951C3.73326 5.34196 4.13847 4.80533 4.61451 4.34457C4.81233 4.15312 4.81811 3.83686 4.62742 3.6382C4.43674 3.43958 4.12181 3.43377 3.92398 3.62522C3.37457 4.15704 2.90747 4.77528 2.53573 5.46278C2.15047 6.17525 1.88342 6.93209 1.74201 7.71229C1.69283 7.98373 1.8721 8.24381 2.1424 8.29322Z" fill="#474BC6"/>
<path d="M13.6091 5.93953C13.9439 6.55876 14.1758 7.21539 14.2983 7.89121C14.342 8.13243 14.5514 8.3014 14.7872 8.3014C14.8167 8.3014 14.8467 8.29874 14.8768 8.29323C15.1471 8.24382 15.3264 7.98374 15.2772 7.71231C15.1358 6.9321 14.8687 6.17523 14.4834 5.4628C14.1117 4.77529 13.6446 4.15702 13.0952 3.62523C12.8974 3.43375 12.5824 3.4396 12.3917 3.63822C12.2011 3.83687 12.2069 4.1531 12.4047 4.34458C12.8807 4.80534 13.2859 5.34197 13.6091 5.93953Z" fill="#474BC6"/>
<path d="M10.5195 12.1082C9.87772 12.32 9.20181 12.4285 8.50965 12.4309C8.50069 12.4312 8.49142 12.4312 8.48246 12.4312C7.80555 12.4312 7.14225 12.3296 6.51175 12.1295C6.24975 12.0462 5.97048 12.1921 5.88757 12.4552C5.80466 12.7183 5.94992 12.9987 6.21193 13.0819C6.93958 13.313 7.70338 13.4302 8.48246 13.4302H8.50965C9.30762 13.4272 10.088 13.302 10.8299 13.0572C11.0909 12.9713 11.2332 12.6889 11.1473 12.4268C11.0617 12.1648 10.7805 12.0219 10.5195 12.1082Z" fill="#474BC6"/>
<path d="M3.23581 13.4343C4.01741 13.278 4.6067 12.5855 4.6067 11.7547C4.6067 10.809 3.8429 10.042 2.90099 10.042C1.95908 10.042 1.19528 10.809 1.19528 11.7547C1.19528 12.5855 1.78457 13.278 2.56617 13.4343C1.08943 13.4343 0 14.6125 0 15.9833V16.5048C0 16.7689 0.213264 16.9834 0.476598 16.9834H2.90099H5.32538C5.58872 16.9834 5.80198 16.7689 5.80198 16.5048V15.9833C5.80198 14.6183 4.71876 13.4343 3.23581 13.4343Z" fill="#474BC6"/>
<path d="M14.4336 13.4343C15.2152 13.278 15.8045 12.5855 15.8045 11.7547C15.8045 10.809 15.0407 10.042 14.0988 10.042C13.1565 10.042 12.3931 10.809 12.3931 11.7547C12.3931 12.5855 12.9821 13.278 13.7639 13.4343C12.2837 13.4343 11.1978 14.6153 11.1978 15.9833V16.5048C11.1978 16.7689 11.411 16.9833 11.6744 16.9833H14.0987H16.5231C16.7861 16.9833 16.9997 16.7689 16.9997 16.5048V15.9833C16.9998 14.6154 15.9135 13.4343 14.4336 13.4343Z" fill="#474BC6"/>
</g>
<defs>
<clipPath id="clip0_89_1993">
<rect width="17" height="17" fill="white"/>
</clipPath>
</defs>
</svg>
