<svg width="22" height="22" viewBox="0 0 22 22" fill="none" xmlns="http://www.w3.org/2000/svg">
<path d="M12.0312 20.625V18.7825C12.0313 18.7014 12.06 18.623 12.1123 18.5611C12.1645 18.4991 12.237 18.4576 12.3169 18.4439C13.2657 18.2781 14.1736 17.931 14.9909 17.4216L13.9858 16.4165C12.679 17.1376 11.1558 17.3627 9.69625 17.0503C8.23673 16.7379 6.93908 15.9091 6.04195 14.7162C5.14482 13.5233 4.70854 12.0466 4.81336 10.5577C4.91818 9.06886 5.55705 7.66787 6.61246 6.61246C7.66787 5.55705 9.06886 4.91818 10.5577 4.81336C12.0466 4.70854 13.5233 5.14482 14.7162 6.04195C15.9091 6.93908 16.7379 8.23673 17.0503 9.69625C17.3627 11.1558 17.1376 12.679 16.4165 13.9858L17.4216 14.9909C17.931 14.1736 18.2781 13.2657 18.4439 12.3169C18.4576 12.237 18.4991 12.1645 18.5611 12.1123C18.623 12.06 18.7014 12.0313 18.7825 12.0312H20.625V9.96875H18.7825C18.7014 9.9687 18.623 9.94001 18.5611 9.88774C18.4991 9.83547 18.4576 9.76299 18.4439 9.68309C18.2541 8.59872 17.8276 7.56952 17.1947 6.66875C17.1482 6.60255 17.1265 6.52206 17.1335 6.44145C17.1405 6.36084 17.1757 6.28528 17.2329 6.22806L18.534 4.92456L17.0772 3.46775L15.7737 4.76884C15.7164 4.82605 15.6409 4.86124 15.5603 4.86822C15.4797 4.8752 15.3992 4.85352 15.333 4.807C14.4317 4.17391 13.4019 3.74739 12.3169 3.55781C12.2367 3.54406 12.164 3.50232 12.1117 3.44001C12.0594 3.3777 12.0309 3.29885 12.0312 3.2175V1.375H9.96875V3.2175C9.9687 3.29856 9.94001 3.37699 9.88774 3.43895C9.83547 3.5009 9.76299 3.54239 9.68309 3.55609C8.59872 3.74591 7.56952 4.17242 6.66875 4.80528C6.60255 4.8518 6.52206 4.87348 6.44145 4.8665C6.36084 4.85952 6.28528 4.82433 6.22806 4.76713L4.92456 3.46603L3.46775 4.92284L4.76884 6.22634C4.82605 6.28356 4.86124 6.35913 4.86822 6.43973C4.8752 6.52034 4.85352 6.60083 4.807 6.66703C4.17391 7.56831 3.74739 8.59812 3.55781 9.68309C3.54406 9.76328 3.50232 9.83599 3.44001 9.88829C3.3777 9.9406 3.29885 9.96911 3.2175 9.96875H1.375V12.0312H3.2175C3.29856 12.0313 3.37699 12.06 3.43895 12.1123C3.5009 12.1645 3.54239 12.237 3.55609 12.3169C3.74567 13.4019 4.17219 14.4317 4.80528 15.333C4.8518 15.3992 4.87348 15.4797 4.8665 15.5603C4.85952 15.6409 4.82433 15.7164 4.76713 15.7737L3.46603 17.0772L4.92284 18.534L6.22634 17.2329C6.28356 17.1757 6.35913 17.1405 6.43973 17.1335C6.52034 17.1265 6.60083 17.1482 6.66703 17.1947C7.56831 17.8278 8.59812 18.2543 9.68309 18.4439C9.76299 18.4576 9.83547 18.4991 9.88774 18.5611C9.94001 18.623 9.9687 18.7014 9.96875 18.7825V20.625H12.0312Z" fill="#474BC6"/>
<path d="M20.237 18.7785L13.6553 12.1964C13.47 12.0107 13.3296 11.7852 13.2448 11.537C13.16 11.2888 13.1331 11.0245 13.1661 10.7643C13.2196 10.3185 13.163 9.86635 13.0013 9.44746C12.8395 9.02857 12.5776 8.6557 12.2384 8.36147C11.8992 8.06725 11.4931 7.86065 11.0555 7.75973C10.618 7.65882 10.1624 7.66669 9.7286 7.78263L11.2452 9.29891C11.3097 9.36336 11.3459 9.45078 11.3459 9.54194V11.0005C11.3459 11.0916 11.3097 11.1791 11.2453 11.2435C11.1808 11.308 11.0934 11.3442 11.0022 11.3442H9.54194C9.45078 11.3442 9.36336 11.308 9.29891 11.2435L7.78263 9.7286C7.66669 10.1624 7.65882 10.618 7.75973 11.0555C7.86065 11.4931 8.06725 11.8992 8.36147 12.2384C8.6557 12.5776 9.02857 12.8395 9.44746 13.0013C9.86635 13.163 10.3185 13.2196 10.7643 13.1661C10.8355 13.1576 10.9071 13.1534 10.9788 13.1534C11.2048 13.1523 11.4287 13.196 11.6376 13.2819C11.8466 13.3678 12.0365 13.4942 12.1964 13.6539L18.7785 20.237C18.9719 20.4304 19.2342 20.5391 19.5078 20.5391C19.7813 20.5391 20.0436 20.4304 20.237 20.237C20.4304 20.0436 20.5391 19.7813 20.5391 19.5078C20.5391 19.2342 20.4304 18.9719 20.237 18.7785ZM13.4308 13.4311C13.3663 13.4956 13.2789 13.5318 13.1878 13.5318C13.0966 13.5318 13.0092 13.4956 12.9447 13.4311L12.7017 13.1881C12.6689 13.1564 12.6427 13.1185 12.6247 13.0765C12.6066 13.0346 12.5972 12.9895 12.5968 12.9438C12.5964 12.8982 12.6051 12.8529 12.6223 12.8107C12.6396 12.7684 12.6652 12.7301 12.6974 12.6978C12.7297 12.6655 12.7681 12.64 12.8103 12.6227C12.8526 12.6054 12.8978 12.5967 12.9435 12.5971C12.9891 12.5975 13.0342 12.607 13.0762 12.625C13.1181 12.643 13.156 12.6692 13.1878 12.702L13.4308 12.9451C13.4953 13.0095 13.5315 13.0969 13.5316 13.188C13.5317 13.2792 13.4955 13.3666 13.4311 13.4311H13.4308ZM18.5355 18.5355C18.471 18.5999 18.3836 18.6361 18.2924 18.6361C18.2013 18.6361 18.1139 18.5999 18.0494 18.5355L13.9172 14.4036C13.8527 14.3391 13.8165 14.2516 13.8165 14.1604C13.8165 14.0692 13.8527 13.9817 13.9172 13.9172C13.9817 13.8527 14.0692 13.8165 14.1604 13.8165C14.2516 13.8165 14.3391 13.8527 14.4036 13.9172L18.5355 18.0494C18.5999 18.1139 18.6361 18.2013 18.6361 18.2924C18.6361 18.3836 18.5999 18.471 18.5355 18.5355ZM19.751 19.751C19.6865 19.8154 19.5991 19.8516 19.5079 19.8516C19.4168 19.8516 19.3294 19.8154 19.2649 19.751L19.0215 19.5079C18.957 19.4434 18.9208 19.356 18.9208 19.2647C18.9208 19.1735 18.957 19.086 19.0215 19.0215C19.086 18.957 19.1735 18.9208 19.2647 18.9208C19.356 18.9208 19.4434 18.957 19.5079 19.0215L19.751 19.2649C19.8154 19.3294 19.8516 19.4168 19.8516 19.5079C19.8516 19.5991 19.8154 19.6865 19.751 19.751Z" fill="#474BC6"/>
<path d="M10.9997 5.5C10.1689 5.4996 9.3488 5.68742 8.60096 6.04938C7.85313 6.41133 7.19701 6.938 6.68188 7.58985C6.16674 8.2417 5.80598 9.00178 5.62668 9.81302C5.44738 10.6243 5.45419 11.4656 5.64662 12.2738C5.83904 13.0821 6.21207 13.8362 6.73769 14.4796C7.26332 15.123 7.92788 15.639 8.68148 15.9888C9.43508 16.3386 10.2581 16.5131 11.0888 16.4992C11.9195 16.4854 12.7363 16.2835 13.4778 15.9088L11.7096 14.1408C11.5972 14.0296 11.4609 13.9455 11.3111 13.8951C11.1612 13.8446 11.0018 13.8291 10.845 13.8497C10.2342 13.9231 9.61482 13.831 9.0517 13.5832C8.48857 13.3354 8.00235 12.9408 7.64386 12.4408C7.28537 11.9408 7.06777 11.3536 7.0138 10.7407C6.95984 10.1279 7.07149 9.51173 7.33708 8.95675C7.36086 8.90721 7.39617 8.86409 7.44005 8.83101C7.48393 8.79793 7.5351 8.77586 7.58927 8.76663C7.64344 8.75741 7.69904 8.7613 7.75139 8.77799C7.80375 8.79469 7.85134 8.82369 7.89017 8.86256L9.68352 10.6563H10.656V9.68378L8.8623 7.89044C8.82342 7.8516 8.79442 7.80401 8.77773 7.75166C8.76104 7.6993 8.75714 7.64371 8.76637 7.58954C8.77559 7.53536 8.79767 7.48419 8.83075 7.44031C8.86383 7.39643 8.90695 7.36112 8.95649 7.33734C9.51148 7.07178 10.1276 6.96016 10.7405 7.01414C11.3534 7.06811 11.9405 7.28571 12.4406 7.64419C12.9406 8.00266 13.3352 8.48886 13.5831 9.05197C13.831 9.61508 13.9231 10.2344 13.8498 10.8453C13.8291 11.0021 13.8445 11.1614 13.895 11.3113C13.9454 11.4611 14.0294 11.5975 14.1406 11.7098L15.9085 13.4781C16.3322 12.6397 16.5341 11.7068 16.4949 10.7683C16.4556 9.82973 16.1766 8.91689 15.6843 8.11684C15.1921 7.31679 14.503 6.65621 13.683 6.19811C12.8629 5.74 11.9391 5.49966 10.9997 5.5Z" fill="#474BC6"/>
</svg>
