<svg width="20" height="20" viewBox="0 0 20 20" fill="none" xmlns="http://www.w3.org/2000/svg">
<g clip-path="url(#clip0_89_2038)">
<path d="M11.2838 13.8646C10.9278 14.0829 10.472 14.2031 10.0001 14.2031C9.52833 14.2031 9.07245 14.0829 8.71649 13.8646L2.90492 10.3003C2.90492 10.3003 2.38037 9.97875 2.38037 10.7071C2.38037 11.5343 2.38037 14.0156 2.38037 14.0156C2.38037 14.0487 2.38037 14.2148 2.38037 14.2663C2.38037 16.1412 5.79181 18.1625 9.99999 18.1625C14.2082 18.1625 17.6196 16.1413 17.6196 14.2663C17.6196 14.2148 17.6196 14.0487 17.6196 14.0156C17.6196 14.0156 17.6196 11.3838 17.6196 10.5065C17.6196 9.9218 17.2467 10.2075 17.2467 10.2075L11.2838 13.8646Z" fill="#474BC6"/>
<path d="M19.6651 7.46537C20.1116 7.19151 20.1116 6.74336 19.6651 6.46946L10.8119 2.04231C10.3653 1.76845 9.63461 1.76845 9.18806 2.04231L0.334912 6.46946C-0.111637 6.74331 -0.111637 7.19146 0.334912 7.46537L9.18806 12.8951C9.63461 13.169 10.3653 13.169 10.8119 12.8951" fill="#474BC6"/>
<path d="M19.299 15.5135C19.299 14.0144 19.299 9.51685 19.299 9.51685C19.299 9.51685 19.3031 9.23282 19.1346 9.32661C18.9994 9.40186 18.668 9.58658 18.5513 9.68814C18.4165 9.8053 18.4468 10.0683 18.4468 10.0683C18.4468 10.0683 18.4468 14.1522 18.4468 15.5135C18.4468 15.5908 18.3804 15.6277 18.3487 15.6464C18.0427 15.8263 17.8369 16.1584 17.8369 16.5391C17.8369 17.1113 18.3007 17.5752 18.8729 17.5752C19.4451 17.5752 19.9089 17.1113 19.9089 16.5391C19.9089 16.1569 19.7016 15.8238 19.3936 15.6443C19.363 15.6265 19.299 15.5908 19.299 15.5135Z" fill="#474BC6"/>
</g>
<defs>
<clipPath id="clip0_89_2038">
<rect width="20" height="20" fill="white"/>
</clipPath>
</defs>
</svg>
