<svg width="45" height="45" viewBox="0 0 45 45" fill="none" xmlns="http://www.w3.org/2000/svg">
<rect width="45" height="45" rx="3" fill="#55AF59"/>
<path d="M18.4648 12.4023H33.6648C34.1129 12.4023 34.4648 12.7543 34.4648 13.2023V22.8023C34.4648 23.2423 34.1129 23.6023 33.6648 23.6023H18.4648C18.0248 23.6023 17.6648 23.2423 17.6648 22.8023V13.2023C17.6648 12.7543 18.0248 12.4023 18.4648 12.4023Z" fill="white"/>
<path d="M34.4727 27.6027C34.4727 28.0426 34.1127 28.4027 33.6727 28.4027H32.8087C32.4727 26.7306 31.0967 25.4187 29.3847 25.2027H33.6647C33.9527 25.2027 34.2166 25.1546 34.4727 25.0586V27.6027Z" fill="white"/>
<path d="M11.3216 28.4023H10.3296C9.88962 28.4023 9.52962 28.0423 9.52962 27.6023V20.5943C9.52962 19.3383 12.5936 16.4023 14.2735 16.4023H16.0655V22.8023C16.0655 24.1223 17.1456 25.2023 18.4655 25.2023H28.3457C26.6336 25.4183 25.2576 26.7303 24.9217 28.4023H19.2097C18.8416 26.5623 17.2176 25.1623 15.2656 25.1623C13.3216 25.1623 11.6896 26.5623 11.3216 28.4023ZM14.7537 18.3703C10.6576 18.1703 10.8255 22.4023 10.8255 22.4023H14.7537V18.3703Z" fill="white"/>
<path d="M15.2676 31.5976C13.9333 31.5976 12.8516 30.5159 12.8516 29.1816C12.8516 27.8473 13.9333 26.7656 15.2676 26.7656C16.6019 26.7656 17.6836 27.8473 17.6836 29.1816C17.6836 30.5159 16.6019 31.5976 15.2676 31.5976Z" fill="white"/>
<path d="M28.8672 31.5976C27.5329 31.5976 26.4512 30.5159 26.4512 29.1816C26.4512 27.8473 27.5329 26.7656 28.8672 26.7656C30.2015 26.7656 31.2832 27.8473 31.2832 29.1816C31.2832 30.5159 30.2015 31.5976 28.8672 31.5976Z" fill="white"/>
</svg>
