<svg width="21" height="21" viewBox="0 0 21 21" fill="none" xmlns="http://www.w3.org/2000/svg">
<path d="M10.5 8.53125C8.69072 8.53125 7.21875 10.0032 7.21875 11.8125C7.21875 13.6218 8.69072 15.0938 10.5 15.0938C12.3093 15.0938 13.7812 13.6218 13.7812 11.8125C13.7812 10.0032 12.3093 8.53125 10.5 8.53125ZM12.4688 12.4688C12.1058 12.4688 11.8125 12.1748 11.8125 11.8125C11.8125 11.0887 11.2238 10.5 10.5 10.5C10.1371 10.5 9.84375 10.206 9.84375 9.84375C9.84375 9.4815 10.1371 9.1875 10.5 9.1875C11.9477 9.1875 13.125 10.3648 13.125 11.8125C13.125 12.1748 12.8317 12.4688 12.4688 12.4688Z" fill="white"/>
<path d="M14.129 4.59375L13.7615 3.12178C13.688 2.83041 13.4261 2.625 13.1249 2.625H7.87491C7.57369 2.625 7.31185 2.83041 7.23835 3.12178L6.87085 4.59375H14.129Z" fill="white"/>
<path d="M18.375 5.25H14.2931H6.70688H2.625C1.53956 5.25 0.65625 6.13331 0.65625 7.21875V16.4062C0.65625 17.4917 1.53956 18.375 2.625 18.375H18.375C19.4604 18.375 20.3438 17.4917 20.3438 16.4062V7.21875C20.3438 6.13331 19.4604 5.25 18.375 5.25ZM3.9375 9.1875C3.57459 9.1875 3.28125 8.8935 3.28125 8.53125C3.28125 8.169 3.57459 7.875 3.9375 7.875C4.30041 7.875 4.59375 8.169 4.59375 8.53125C4.59375 8.8935 4.30041 9.1875 3.9375 9.1875ZM10.5 16.4062C7.96753 16.4062 5.90625 14.3456 5.90625 11.8125C5.90625 9.27938 7.96753 7.21875 10.5 7.21875C13.0325 7.21875 15.0938 9.27938 15.0938 11.8125C15.0938 14.3456 13.0325 16.4062 10.5 16.4062Z" fill="white"/>
</svg>
