<svg width="22" height="22" viewBox="0 0 22 22" fill="none" xmlns="http://www.w3.org/2000/svg">
<path d="M12.0312 20.625V18.7825C12.0313 18.7014 12.06 18.623 12.1123 18.5611C12.1645 18.4991 12.237 18.4576 12.3169 18.4439C13.2657 18.2781 14.1736 17.931 14.9909 17.4216L13.9858 16.4165C12.679 17.1376 11.1558 17.3627 9.69625 17.0503C8.23673 16.7379 6.93908 15.9091 6.04195 14.7162C5.14482 13.5233 4.70854 12.0466 4.81336 10.5577C4.91818 9.06886 5.55705 7.66787 6.61246 6.61246C7.66787 5.55705 9.06886 4.91818 10.5577 4.81336C12.0466 4.70854 13.5233 5.14482 14.7162 6.04195C15.9091 6.93908 16.7379 8.23673 17.0503 9.69625C17.3627 11.1558 17.1376 12.679 16.4165 13.9858L17.4216 14.9909C17.931 14.1736 18.2781 13.2657 18.4439 12.3169C18.4576 12.237 18.4991 12.1645 18.5611 12.1123C18.623 12.06 18.7014 12.0313 18.7825 12.0312H20.625V9.96875H18.7825C18.7014 9.9687 18.623 9.94001 18.5611 9.88774C18.4991 9.83547 18.4576 9.76299 18.4439 9.68309C18.2541 8.59872 17.8276 7.56952 17.1947 6.66875C17.1482 6.60255 17.1265 6.52206 17.1335 6.44145C17.1405 6.36084 17.1757 6.28528 17.2329 6.22806L18.534 4.92456L17.0772 3.46775L15.7737 4.76884C15.7164 4.82605 15.6409 4.86124 15.5603 4.86822C15.4797 4.8752 15.3992 4.85352 15.333 4.807C14.4317 4.17391 13.4019 3.74739 12.3169 3.55781C12.2367 3.54406 12.164 3.50232 12.1117 3.44001C12.0594 3.3777 12.0309 3.29885 12.0312 3.2175V1.375H9.96875V3.2175C9.9687 3.29856 9.94001 3.37699 9.88774 3.43895C9.83547 3.5009 9.76299 3.54239 9.68309 3.55609C8.59872 3.74591 7.56952 4.17242 6.66875 4.80528C6.60255 4.8518 6.52206 4.87348 6.44145 4.8665C6.36084 4.85952 6.28528 4.82433 6.22806 4.76713L4.92456 3.46603L3.46775 4.92284L4.76884 6.22634C4.82605 6.28356 4.86124 6.35913 4.86822 6.43973C4.8752 6.52034 4.85352 6.60083 4.807 6.66703C4.17391 7.56831 3.74739 8.59812 3.55781 9.68309C3.54406 9.76328 3.50232 9.83599 3.44001 9.88829C3.3777 9.9406 3.29885 9.96911 3.2175 9.96875H1.375V12.0312H3.2175C3.29856 12.0313 3.37699 12.06 3.43895 12.1123C3.5009 12.1645 3.54239 12.237 3.55609 12.3169C3.74567 13.4019 4.17219 14.4317 4.80528 15.333C4.8518 15.3992 4.87348 15.4797 4.8665 15.5603C4.85952 15.6409 4.82433 15.7164 4.76713 15.7737L3.46603 17.0772L4.92284 18.534L6.22634 17.2329C6.28356 17.1757 6.35913 17.1405 6.43973 17.1335C6.52034 17.1265 6.60083 17.1482 6.66703 17.1947C7.56831 17.8278 8.59812 18.2543 9.68309 18.4439C9.76299 18.4576 9.83547 18.4991 9.88774 18.5611C9.94001 18.623 9.9687 18.7014 9.96875 18.7825V20.625H12.0312Z" fill="white"/>
<path d="M20.2365 18.7785L13.6548 12.1964C13.4695 12.0107 13.3291 11.7852 13.2443 11.537C13.1595 11.2888 13.1326 11.0245 13.1656 10.7643C13.2191 10.3185 13.1625 9.86635 13.0008 9.44746C12.8391 9.02857 12.5771 8.6557 12.2379 8.36147C11.8987 8.06725 11.4926 7.86065 11.055 7.75973C10.6175 7.65882 10.1619 7.66669 9.72811 7.78263L11.2447 9.29891C11.3092 9.36336 11.3454 9.45078 11.3455 9.54194V11.0005C11.3455 11.0916 11.3092 11.1791 11.2448 11.2435C11.1803 11.308 11.0929 11.3442 11.0017 11.3442H9.54145C9.45029 11.3442 9.36287 11.308 9.29842 11.2435L7.78214 9.7286C7.6662 10.1624 7.65834 10.618 7.75925 11.0555C7.86016 11.4931 8.06676 11.8992 8.36099 12.2384C8.65521 12.5776 9.02808 12.8395 9.44697 13.0013C9.86586 13.163 10.318 13.2196 10.7638 13.1661C10.835 13.1576 10.9066 13.1534 10.9783 13.1534C11.2043 13.1523 11.4282 13.196 11.6372 13.2819C11.8461 13.3678 12.036 13.4942 12.1959 13.6539L18.778 20.237C18.9714 20.4304 19.2338 20.5391 19.5073 20.5391C19.7808 20.5391 20.0431 20.4304 20.2365 20.237C20.43 20.0436 20.5386 19.7813 20.5386 19.5078C20.5386 19.2342 20.43 18.9719 20.2365 18.7785ZM13.4303 13.4311C13.3658 13.4956 13.2784 13.5318 13.1873 13.5318C13.0961 13.5318 13.0087 13.4956 12.9442 13.4311L12.7012 13.1881C12.6684 13.1564 12.6422 13.1185 12.6242 13.0765C12.6062 13.0346 12.5967 12.9895 12.5963 12.9438C12.5959 12.8982 12.6046 12.8529 12.6219 12.8107C12.6391 12.7684 12.6647 12.7301 12.6969 12.6978C12.7292 12.6655 12.7676 12.64 12.8098 12.6227C12.8521 12.6054 12.8974 12.5967 12.943 12.5971C12.9886 12.5975 13.0337 12.607 13.0757 12.625C13.1176 12.643 13.1556 12.6692 13.1873 12.702L13.4303 12.9451C13.4948 13.0095 13.5311 13.0969 13.5311 13.188C13.5312 13.2792 13.495 13.3666 13.4306 13.4311H13.4303ZM18.535 18.5355C18.4705 18.5999 18.3831 18.6361 18.292 18.6361C18.2008 18.6361 18.1134 18.5999 18.0489 18.5355L13.9167 14.4036C13.8522 14.3391 13.816 14.2516 13.816 14.1604C13.816 14.0692 13.8522 13.9817 13.9167 13.9172C13.9812 13.8527 14.0687 13.8165 14.1599 13.8165C14.2511 13.8165 14.3386 13.8527 14.4031 13.9172L18.535 18.0494C18.5994 18.1139 18.6356 18.2013 18.6356 18.2924C18.6356 18.3836 18.5994 18.471 18.535 18.5355ZM19.7505 19.751C19.686 19.8154 19.5986 19.8516 19.5075 19.8516C19.4163 19.8516 19.3289 19.8154 19.2644 19.751L19.021 19.5079C18.9565 19.4434 18.9203 19.356 18.9203 19.2647C18.9203 19.1735 18.9565 19.086 19.021 19.0215C19.0855 18.957 19.173 18.9208 19.2643 18.9208C19.3555 18.9208 19.443 18.957 19.5075 19.0215L19.7505 19.2649C19.8149 19.3294 19.8511 19.4168 19.8511 19.5079C19.8511 19.5991 19.8149 19.6865 19.7505 19.751Z" fill="white"/>
<path d="M11 5.5C10.1692 5.4996 9.34904 5.68742 8.6012 6.04938C7.85337 6.41133 7.19725 6.938 6.68212 7.58985C6.16699 8.2417 5.80623 9.00178 5.62692 9.81302C5.44762 10.6243 5.45444 11.4656 5.64686 12.2738C5.83928 13.0821 6.21231 13.8362 6.73794 14.4796C7.26356 15.123 7.92812 15.639 8.68172 15.9888C9.43532 16.3386 10.2584 16.5131 11.0891 16.4992C11.9198 16.4854 12.7366 16.2835 13.4781 15.9088L11.7098 14.1408C11.5975 14.0296 11.4611 13.9455 11.3113 13.8951C11.1615 13.8446 11.0021 13.8291 10.8453 13.8497C10.2344 13.9231 9.61507 13.831 9.05194 13.5832C8.48881 13.3354 8.00259 12.9408 7.6441 12.4408C7.28561 11.9408 7.06802 11.3536 7.01405 10.7407C6.96008 10.1279 7.07173 9.51173 7.33732 8.95675C7.3611 8.90721 7.39641 8.86409 7.44029 8.83101C7.48417 8.79793 7.53534 8.77586 7.58951 8.76663C7.64369 8.75741 7.69928 8.7613 7.75164 8.77799C7.80399 8.79469 7.85158 8.82369 7.89042 8.86256L9.68376 10.6563H10.6562V9.68378L8.86254 7.89044C8.82367 7.8516 8.79467 7.80401 8.77797 7.75166C8.76128 7.6993 8.75739 7.64371 8.76661 7.58954C8.77584 7.53536 8.79791 7.48419 8.83099 7.44031C8.86407 7.39643 8.90719 7.36112 8.95673 7.33734C9.51173 7.07178 10.1279 6.96016 10.7408 7.01414C11.3536 7.06811 11.9408 7.28571 12.4408 7.64419C12.9409 8.00266 13.3354 8.48886 13.5833 9.05197C13.8312 9.61508 13.9233 10.2344 13.85 10.8453C13.8293 11.0021 13.8448 11.1614 13.8952 11.3113C13.9456 11.4611 14.0296 11.5975 14.1408 11.7098L15.9087 13.4781C16.3325 12.6397 16.5344 11.7068 16.4951 10.7683C16.4559 9.82973 16.1768 8.91689 15.6846 8.11684C15.1923 7.31679 14.5033 6.65621 13.6832 6.19811C12.8631 5.74 11.9393 5.49966 11 5.5Z" fill="white"/>
</svg>
