<svg width="16" height="17" viewBox="0 0 16 17" fill="none" xmlns="http://www.w3.org/2000/svg">
<g clip-path="url(#clip0_89_2935)">
<path d="M10.3681 9.20508L9.02809 10.6337C8.48469 11.2131 7.52856 11.2256 6.97341 10.6337L5.63331 9.20508L0.820312 14.3355C0.999469 14.4235 1.197 14.476 1.407 14.476H14.5945C14.8045 14.476 15.002 14.4236 15.1811 14.3355L10.3681 9.20508Z" fill="white"/>
<path d="M14.5944 2.52344H1.40694C1.19694 2.52344 0.999406 2.57596 0.820312 2.66399L5.96334 8.14659C5.96369 8.14695 5.96409 8.14702 5.96444 8.14738C5.96478 8.14775 5.96484 8.14825 5.96484 8.14825L7.63713 9.93092C7.81475 10.1196 8.18669 10.1196 8.36431 9.93092L10.0363 8.14854C10.0363 8.14854 10.0367 8.14775 10.037 8.14738C10.037 8.14738 10.0378 8.14695 10.0381 8.14659L15.181 2.66395C15.0019 2.5759 14.8044 2.52344 14.5944 2.52344Z" fill="white"/>
<path d="M0.149562 3.36035C0.056875 3.5595 0 3.78057 0 4.01738V12.9822C0 13.219 0.0568125 13.4401 0.149531 13.6392L4.97087 8.49996L0.149562 3.36035Z" fill="white"/>
<path d="M15.8506 3.36035L11.0293 8.50003L15.8506 13.6394C15.9433 13.4402 16.0001 13.2192 16.0001 12.9823V4.01744C16.0001 3.78057 15.9433 3.5595 15.8506 3.36035Z" fill="white"/>
</g>
<defs>
<clipPath id="clip0_89_2935">
<rect width="16" height="17" fill="white"/>
</clipPath>
</defs>
</svg>
