<svg width="13" height="13" viewBox="0 0 13 13" fill="none" xmlns="http://www.w3.org/2000/svg">
<g clip-path="url(#clip0_89_2976)">
<path d="M6.5 0C5.2076 0.0017144 3.96862 0.515879 3.05475 1.42975C2.14088 2.34362 1.62671 3.5826 1.625 4.875C1.625 8.37484 6.16687 12.7583 6.35984 12.9431C6.39738 12.9796 6.44766 13 6.5 13C6.55234 13 6.60262 12.9796 6.64016 12.9431C6.83312 12.7583 11.375 8.37484 11.375 4.875C11.3733 3.5826 10.8591 2.34362 9.94525 1.42975C9.03138 0.515879 7.7924 0.0017144 6.5 0V0ZM6.5 7.10938C6.05808 7.10938 5.62609 6.97833 5.25865 6.73281C4.89121 6.4873 4.60482 6.13834 4.43571 5.73006C4.26659 5.32178 4.22234 4.87252 4.30856 4.4391C4.39477 4.00567 4.60758 3.60754 4.92006 3.29506C5.23254 2.98258 5.63067 2.76977 6.0641 2.68356C6.49752 2.59734 6.94678 2.64159 7.35506 2.81071C7.76334 2.97982 8.1123 3.26621 8.35781 3.63365C8.60333 4.00109 8.73438 4.43308 8.73438 4.875C8.73402 5.46748 8.4985 6.0356 8.07955 6.45455C7.6606 6.8735 7.09248 7.10902 6.5 7.10938Z" fill="#000"/>
</g>
<defs>
<clipPath id="clip0_89_2976">
<rect width="13" height="13" fill="#000"/>
</clipPath>
</defs>
</svg>
