<svg width="15" height="15" viewBox="0 0 15 15" fill="none" xmlns="http://www.w3.org/2000/svg">
<path d="M6.46589 8.23605C6.4234 8.23605 5.48866 8.23605 5.06378 8.23605C4.83717 8.23605 4.76636 8.15107 4.76636 7.93863C4.76636 7.37212 4.76636 6.79145 4.76636 6.22494C4.76636 5.99833 4.85133 5.92752 5.06378 5.92752H6.46589C6.46589 5.88503 6.46589 5.06359 6.46589 4.68119C6.46589 4.11468 6.56503 3.57649 6.84829 3.0808C7.14571 2.57094 7.57059 2.23103 8.10878 2.03275C8.46285 1.90528 8.81692 1.84863 9.19931 1.84863H10.5873C10.7855 1.84863 10.8705 1.93361 10.8705 2.13189V3.74645C10.8705 3.94473 10.7855 4.0297 10.5873 4.0297C10.2049 4.0297 9.82247 4.0297 9.44008 4.04387C9.05768 4.04387 8.8594 4.22798 8.8594 4.62454C8.84524 5.04942 8.8594 5.46014 8.8594 5.89919H10.5023C10.7289 5.89919 10.8139 5.98417 10.8139 6.21077V7.92447C10.8139 8.15107 10.7431 8.22189 10.5023 8.22189C9.99243 8.22189 8.90189 8.22189 8.8594 8.22189V12.839C8.8594 13.0797 8.78859 13.1647 8.53366 13.1647C7.93882 13.1647 7.35815 13.1647 6.76331 13.1647C6.55087 13.1647 6.46589 13.0797 6.46589 12.8673C6.46589 11.3802 6.46589 8.27854 6.46589 8.23605Z" fill="#444444"/>
</svg>
