<svg width="21" height="21" viewBox="0 0 21 21" fill="none" xmlns="http://www.w3.org/2000/svg">
<path d="M1.38037 15.4609L4.06798 13.5806L7.07605 17.8801L4.38843 19.7604L1.38037 15.4609Z" fill="white"/>
<path d="M19.4907 13.3942C19.5112 13.2807 19.4998 13.1637 19.4578 13.0562C19.3986 12.8927 19.2769 12.7593 19.1193 12.6855C18.9618 12.6116 18.7815 12.6034 18.6178 12.6625L15.3497 13.8536C15.2676 14.1239 15.1009 14.3607 14.874 14.5291C14.6472 14.6974 14.3722 14.7885 14.0897 14.7887C14.0115 14.7892 13.9334 14.7815 13.8567 14.7658L10.313 14.139L10.4246 13.4959L13.9716 14.1226C14.1323 14.1519 14.2982 14.1204 14.437 14.0343C14.5758 13.9482 14.6777 13.8137 14.723 13.6567C14.7506 13.5675 14.7562 13.4729 14.7394 13.3811C14.7256 13.2799 14.6886 13.1833 14.6311 13.0989C14.5299 12.956 14.3768 12.8583 14.2046 12.8265L10.9102 12.2458C9.94137 12.079 8.947 12.1408 8.00628 12.4262L7.94722 12.4426C7.32466 12.6323 6.73645 12.9203 6.20487 13.2958L5.17456 14.0144L7.24503 16.974C8.02018 16.4416 8.97406 16.2365 9.89956 16.4031L10.4869 16.5015C11.1115 16.6129 11.7544 16.5574 12.3507 16.3408L19.0674 13.8962C19.1758 13.8571 19.272 13.7901 19.3463 13.702C19.4206 13.6138 19.4704 13.5077 19.4907 13.3942Z" fill="white"/>
<path d="M18.7031 3.9375V2.95312C18.7031 2.8661 18.6686 2.78264 18.607 2.72111C18.5455 2.65957 18.462 2.625 18.375 2.625H14.7656V3.9375H18.7031Z" fill="white"/>
<path d="M12.892 4.68891C12.954 4.62743 13.0377 4.59294 13.125 4.59294C13.2123 4.59294 13.296 4.62743 13.358 4.68891L14.1094 5.44359V2.625H12.1406V5.44359L12.892 4.68891Z" fill="white"/>
<path d="M7.54688 2.95312V3.9375H11.4844V2.625H7.875C7.78798 2.625 7.70452 2.65957 7.64298 2.72111C7.58144 2.78264 7.54688 2.8661 7.54688 2.95312Z" fill="white"/>
<path d="M11.6878 6.53625C11.6276 6.51211 11.5759 6.47043 11.5397 6.4166C11.5034 6.36277 11.4841 6.29929 11.4844 6.23438V4.59375H7.54688V11.888C7.61906 11.8617 7.69125 11.8322 7.76672 11.8125L7.82578 11.7928C8.86136 11.4792 9.95624 11.4141 11.0217 11.6025L14.3194 12.1833C14.5436 12.2224 14.7533 12.3209 14.9264 12.4688H17.2331L18.3947 12.0455C18.4944 12.0108 18.598 11.9887 18.7031 11.9798V4.59375H14.7656V6.23438C14.7659 6.29929 14.7466 6.36277 14.7103 6.4166C14.6741 6.47043 14.6224 6.51211 14.5622 6.53625C14.5233 6.55464 14.4805 6.56363 14.4375 6.5625C14.3503 6.56275 14.2666 6.52855 14.2045 6.46734L13.125 5.38453L12.0455 6.46734C11.9993 6.51287 11.9407 6.54372 11.8771 6.55598C11.8134 6.56824 11.7476 6.56138 11.6878 6.53625Z" fill="white"/>
</svg>
