<svg width="11" height="11" viewBox="0 0 11 11" fill="none" xmlns="http://www.w3.org/2000/svg">
<g clip-path="url(#clip0_89_1302)">
<path d="M10.9044 10.8827V10.8823H10.907V7.17217C10.907 5.35714 10.5162 3.95898 8.39433 3.95898C7.37427 3.95898 6.68974 4.51875 6.41028 5.04944H6.38077V4.12843H4.3689V10.8823H6.46381V7.53804C6.46381 6.6575 6.63073 5.80605 7.72118 5.80605C8.79561 5.80605 8.81163 6.81093 8.81163 7.59452V10.8827H10.9044Z" fill="#444444"/>
<path d="M0.957764 4.12891H3.05521V10.8828H0.957764V4.12891Z" fill="#444444"/>
<path d="M2.00557 0.766602C1.33494 0.766602 0.790771 1.31077 0.790771 1.9814C0.790771 2.65202 1.33494 3.20758 2.00557 3.20758C2.67619 3.20758 3.22036 2.65202 3.22036 1.9814C3.21994 1.31077 2.67577 0.766602 2.00557 0.766602V0.766602Z" fill="#444444"/>
</g>
<defs>
<clipPath id="clip0_89_1302">
<rect width="10.1163" height="10.1163" fill="white" transform="translate(0.790771 0.766602)"/>
</clipPath>
</defs>
</svg>
