<svg width="16" height="16" viewBox="0 0 16 16" fill="none" xmlns="http://www.w3.org/2000/svg">
<g clip-path="url(#clip0_89_5824)">
<path d="M8.00131 0.666992C6.55091 0.666992 5.13308 1.09708 3.92712 1.90288C2.72116 2.70868 1.78123 3.85399 1.22619 5.19398C0.671146 6.53397 0.525922 8.00846 0.80888 9.43099C1.09184 10.8535 1.79027 12.1602 2.81586 13.1858C3.84144 14.2114 5.14812 14.9098 6.57064 15.1928C7.99317 15.4757 9.46766 15.3305 10.8077 14.7754C12.1476 14.2204 13.293 13.2805 14.0988 12.0745C14.9045 10.8685 15.3346 9.45072 15.3346 8.00033C15.3323 6.05611 14.559 4.19218 13.1842 2.81741C11.8095 1.44264 9.94552 0.669286 8.00131 0.666992ZM10.4726 10.4717C10.3476 10.5966 10.1781 10.6669 10.0013 10.6669C9.82453 10.6669 9.65499 10.5966 9.52997 10.4717L7.52997 8.47166C7.40494 8.34666 7.33468 8.17712 7.33464 8.00033V4.00033C7.33464 3.82351 7.40488 3.65395 7.5299 3.52892C7.65493 3.4039 7.82449 3.33366 8.00131 3.33366C8.17812 3.33366 8.34769 3.4039 8.47271 3.52892C8.59773 3.65395 8.66797 3.82351 8.66797 4.00033V7.72433L10.4726 9.52899C10.5976 9.65401 10.6678 9.82355 10.6678 10.0003C10.6678 10.1771 10.5976 10.3466 10.4726 10.4717Z" fill="#E3D6E1"/>
</g>
<defs>
<clipPath id="clip0_89_5824">
<rect width="16" height="16" fill="white"/>
</clipPath>
</defs>
</svg>
