<svg width="25" height="25" viewBox="0 0 25 25" fill="none" xmlns="http://www.w3.org/2000/svg">
<circle cx="12.5" cy="12.5" r="12.5" fill="#EBB057"/>
<path d="M12.1006 15.7612C11.8473 15.7612 11.6425 15.5564 11.6425 15.3031C11.6425 14.7038 11.7275 14.1862 11.8966 13.751C12.0207 13.4229 12.2222 13.0922 12.4993 12.7582C12.7033 12.5151 13.0688 12.1598 13.5975 11.694C14.1262 11.2273 14.4696 10.8559 14.6285 10.5788C14.7875 10.3017 14.8657 9.99908 14.8657 9.67098C14.8657 9.07683 14.6336 8.55578 14.1704 8.10613C13.7071 7.65648 13.1385 7.43208 12.4653 7.43208C11.815 7.43208 11.2719 7.63608 10.8367 8.04323C10.5188 8.34073 10.2799 8.76063 10.1218 9.30293C10.013 9.67523 9.65009 9.91323 9.26504 9.86733C8.77714 9.80953 8.45584 9.32673 8.59524 8.85498C8.80944 8.12993 9.16814 7.54598 9.67049 7.10228C10.3683 6.48433 11.2914 6.17578 12.4398 6.17578C13.6553 6.17578 14.6251 6.50643 15.3493 7.16858C16.0735 7.83073 16.4348 8.63058 16.4348 9.56898C16.4348 10.1121 16.3073 10.6128 16.0531 11.0701C15.799 11.5282 15.3009 12.085 14.5605 12.7412C14.0633 13.1823 13.7377 13.5079 13.5847 13.717C13.4317 13.9261 13.3187 14.1666 13.2456 14.4378C13.1912 14.6392 13.1538 14.935 13.1334 15.3235C13.1206 15.5683 12.9175 15.7604 12.6727 15.7604H12.1006V15.7612ZM11.5575 17.9542C11.5575 17.474 11.9468 17.0847 12.427 17.0847C12.9073 17.0847 13.2966 17.474 13.2966 17.9542C13.2966 18.4345 12.9073 18.8238 12.427 18.8238C11.9468 18.8238 11.5575 18.4345 11.5575 17.9542Z" fill="white"/>
</svg>
