<svg width="19" height="19" viewBox="0 0 19 19" fill="none" xmlns="http://www.w3.org/2000/svg">
<g clip-path="url(#clip0_89_1071)">
<path d="M0 3.27573V5.40886H19V3.27573L9.5 0L0 3.27573ZM18.0928 3.68095C18.2295 3.72817 18.3214 3.85689 18.3214 4.00152V4.391C18.3214 4.57837 18.1695 4.73029 17.9821 4.73029H1.01786C0.830488 4.73029 0.678571 4.57837 0.678571 4.391V4.00152C0.678571 3.85689 0.770517 3.72817 0.907192 3.68095L9.38933 0.755938C9.46107 0.730756 9.53893 0.730756 9.61067 0.755938L18.0928 3.68095Z" fill="white"/>
<path d="M1.91284 4.05176H17.0866L9.49989 1.43555L1.91284 4.05176Z" fill="white"/>
<path d="M8.48218 8.80176H10.5179V14.9089H8.48218V8.80176Z" fill="white"/>
<path d="M14.5894 8.80176H16.6251V14.9089H14.5894V8.80176Z" fill="white"/>
<path d="M2.375 8.80176H4.41071V14.9089H2.375V8.80176Z" fill="white"/>
<path d="M1.69653 15.5879H17.3037V16.2665H1.69653V15.5879Z" fill="white"/>
<path d="M1.01782 16.9443H17.9821V17.6229H1.01782V16.9443Z" fill="white"/>
<path d="M0 18.3018H19V18.9803H0V18.3018Z" fill="white"/>
<path d="M2.03575 8.12291H4.75004C5.12477 8.12291 5.42861 7.81907 5.42861 7.44434H1.35718C1.35718 7.81907 1.66101 8.12291 2.03575 8.12291Z" fill="white"/>
<path d="M8.14293 8.12291H10.8572C11.232 8.12291 11.5358 7.81907 11.5358 7.44434H7.46436C7.46436 7.81907 7.76819 8.12291 8.14293 8.12291Z" fill="white"/>
<path d="M14.2501 8.12291H16.9644C17.3391 8.12291 17.643 7.81907 17.643 7.44434H13.5715C13.5715 7.81907 13.8754 8.12291 14.2501 8.12291Z" fill="white"/>
</g>
<defs>
<clipPath id="clip0_89_1071">
<rect width="19" height="19" fill="white"/>
</clipPath>
</defs>
</svg>
