<svg width="19" height="19" viewBox="0 0 19 19" fill="none" xmlns="http://www.w3.org/2000/svg">
<g clip-path="url(#clip0_89_781)">
<path d="M0.339355 9.27647C2.29602 9.95233 8.21078 9.87972 10.5115 9.74604C10.4504 9.39352 10.4053 9.04813 10.3693 8.70817C9.38539 8.78077 8.27491 8.82115 7.12507 8.82115C5.44628 8.82115 1.79828 8.69731 0.339355 8.14258V9.27647Z" fill="white"/>
<path d="M0.470947 7.46448C1.01876 7.66122 1.58838 7.79087 2.16738 7.85059C2.06793 7.61021 1.98429 7.36359 1.91698 7.1123C1.42241 7.17028 0.93679 7.28855 0.470947 7.46448Z" fill="white"/>
<path d="M4.38934 11.8753C2.90555 11.8267 1.43249 11.6052 0 11.2153V15.2681C0 15.8317 2.21045 16.6253 7.125 16.6253C9.74734 16.6253 11.894 16.3976 13.1517 15.9945C11.8601 14.5125 11.0522 12.3262 10.6431 10.4187C8.37866 10.5544 1.99805 10.6562 0 9.87109V10.4991C0.664661 10.7465 1.95123 11.042 4.43175 11.1974C4.55297 11.2049 4.66093 11.2766 4.71498 11.3854C4.76902 11.4941 4.76094 11.6235 4.69377 11.7247C4.6266 11.8258 4.51055 11.8835 4.38934 11.8759V11.8753ZM5.76786 11.1967C5.95524 11.1967 6.10714 11.3486 6.10714 11.536C6.10714 11.7234 5.95524 11.8753 5.76786 11.8753C5.58048 11.8753 5.42857 11.7234 5.42857 11.536C5.42857 11.3486 5.58048 11.1967 5.76786 11.1967Z" fill="white"/>
<path d="M12.6261 3.02665C11.5207 3.27569 10.76 5.34465 11.005 8.29406C11.005 8.30255 11.0111 8.30933 11.0121 8.31781C11.252 11.1648 12.2553 13.6836 13.3362 15.1432C14.1363 16.2228 14.9913 16.7528 15.6824 16.5974L15.8883 16.5509C12.6024 14.5651 10.7149 6.18405 12.8317 2.97949L12.6261 3.02665Z" fill="white"/>
<path d="M18.6227 8.80598C17.7609 4.97952 15.8725 2.62793 14.5214 2.62793C14.4409 2.62784 14.3606 2.6366 14.2819 2.65406C12.9248 2.95941 12.0823 6.01298 12.9964 10.0732C13.9104 14.1334 15.9787 16.5305 17.3392 16.2251C18.03 16.0694 18.5749 15.2239 18.8348 13.9054C19.1071 12.2086 19.035 10.4743 18.6227 8.80598ZM15.6279 4.25311C15.5588 4.42579 15.3636 4.51068 15.1902 4.44345C15.0142 4.38226 14.8196 4.40873 14.6663 4.5147C14.4573 4.67586 14.1313 5.18818 14.2931 6.80725C14.3118 6.9937 14.1759 7.16003 13.9894 7.17877C13.803 7.19751 13.6367 7.06155 13.6179 6.87511C13.4686 5.38225 13.6858 4.40307 14.2626 3.96845C14.6034 3.72306 15.0444 3.66435 15.4375 3.81204C15.5213 3.8452 15.5885 3.91034 15.6242 3.99309C15.6599 4.07583 15.6612 4.16939 15.6279 4.25311ZM17.6296 14.4086C17.2888 14.6542 16.8477 14.7131 16.4544 14.5654C16.28 14.4967 16.1943 14.2997 16.263 14.1253C16.3317 13.9509 16.5287 13.8653 16.703 13.9339C16.879 13.9951 17.0735 13.9685 17.2266 13.8624C17.4356 13.7009 17.762 13.1889 17.5998 11.5698C17.581 11.3834 17.717 11.217 17.9034 11.1983C18.0899 11.1795 18.2562 11.3155 18.275 11.5019C18.4232 12.9948 18.2071 13.974 17.6296 14.4086Z" fill="white"/>
<path d="M4.98201 7.10772C3.55056 6.63035 2.79531 5.53039 2.75493 3.96967C2.24318 5.26147 2.31582 6.71157 2.95409 7.94576C5.40043 8.17568 7.86151 8.20428 10.3125 8.03126C10.2187 6.8699 10.3242 5.70104 10.6247 4.5753C8.55502 4.06128 8.30124 5.79265 5.71961 5.42351C4.70665 5.2924 3.83802 4.63658 3.43452 3.69824C3.39143 5.04215 3.91563 6.03592 5.19643 6.46274C5.37454 6.52196 5.47092 6.71434 5.41171 6.89245C5.3525 7.07055 5.16011 7.16694 4.98201 7.10772Z" fill="white"/>
</g>
<defs>
<clipPath id="clip0_89_781">
<rect width="19" height="19" fill="white"/>
</clipPath>
</defs>
</svg>
