<svg width="16" height="16" viewBox="0 0 16 16" fill="none" xmlns="http://www.w3.org/2000/svg">
<g clip-path="url(#clip0_89_4291)">
<path d="M3.75 5.41699H0V15.3145H3.75V5.41699Z" fill="#ACACAC"/>
<path d="M15.6591 9.55328C15.6591 9.19625 15.5407 8.86641 15.341 8.60085C15.7398 8.31194 16 7.84284 16 7.31394C16 6.43809 15.2874 5.72553 14.4116 5.72553H10.8008L11.3033 3.98981V3.15816C11.3033 1.62569 10.0565 0.378906 8.52403 0.378906C8.15244 0.378906 7.85016 0.681219 7.85016 1.05278V2.89653C7.59956 3.29759 6.20794 4.85916 4.6875 6.49522V14.698L5.98494 15.1846C6.75609 15.4738 7.56472 15.6204 8.38834 15.6204H13.3889C14.2648 15.6204 14.9773 14.9078 14.9773 14.0319C14.9773 13.6751 14.859 13.3453 14.6596 13.0798C15.0583 12.7909 15.3182 12.3215 15.3182 11.7926C15.3182 11.4356 15.1997 11.1057 15.0002 10.8402C15.399 10.5513 15.6591 10.0823 15.6591 9.55328Z" fill="#ACACAC"/>
</g>
<defs>
<clipPath id="clip0_89_4291">
<rect width="16" height="16" fill="white"/>
</clipPath>
</defs>
</svg>
