<svg width="12" height="12" viewBox="0 0 12 12" fill="none" xmlns="http://www.w3.org/2000/svg">
<g clip-path="url(#clip0_89_1297)">
<path d="M11.4651 2.6194C11.0388 2.80643 10.5845 2.93039 10.1108 2.99059C10.5981 2.69966 10.97 2.24249 11.1448 1.69144C10.6905 1.96231 10.1889 2.15363 9.65434 2.2604C9.22297 1.80108 8.60815 1.5166 7.93744 1.5166C6.63615 1.5166 5.58853 2.57283 5.58853 3.86767C5.58853 4.05398 5.60429 4.23312 5.64299 4.40366C3.6889 4.30836 1.95982 3.3718 0.798259 1.94511C0.595469 2.29695 0.476519 2.69966 0.476519 3.13318C0.476519 3.94721 0.895712 4.66879 1.52056 5.08655C1.14293 5.07939 0.772462 4.96975 0.458605 4.79706C0.458605 4.80422 0.458605 4.81354 0.458605 4.82285C0.458605 5.96507 1.27334 6.91381 2.34175 7.13236C2.15043 7.18467 1.9419 7.20975 1.7255 7.20975C1.57502 7.20975 1.42311 7.20115 1.28051 7.16962C1.58505 8.10044 2.44924 8.78477 3.4768 8.80698C2.6771 9.43255 1.66173 9.80946 0.562507 9.80946C0.36975 9.80946 0.184875 9.80087 0 9.77722C1.04118 10.4486 2.27511 10.832 3.60578 10.832C7.93099 10.832 10.2957 7.24916 10.2957 4.14355C10.2957 4.03964 10.2921 3.93932 10.2871 3.83972C10.7536 3.50867 11.1455 3.0952 11.4651 2.6194Z" fill="#444444"/>
</g>
<defs>
<clipPath id="clip0_89_1297">
<rect width="11.4651" height="11.4651" fill="white" transform="translate(0 0.441406)"/>
</clipPath>
</defs>
</svg>
