<svg width="8" height="8" viewBox="0 0 8 8" fill="none" xmlns="http://www.w3.org/2000/svg">
<g clip-path="url(#clip0_89_2229)">
<path d="M4.31216 6.22271L7.8722 2.66261C7.9546 2.58027 8 2.47035 8 2.35315C8 2.23595 7.9546 2.12603 7.8722 2.04369L7.61008 1.78151C7.43929 1.61091 7.1617 1.61091 6.99116 1.78151L4.00166 4.77102L1.00884 1.77819C0.926432 1.69585 0.816579 1.65039 0.699441 1.65039C0.582174 1.65039 0.472322 1.69585 0.389851 1.77819L0.127804 2.04037C0.0453982 2.12278 4.51387e-07 2.23263 4.46264e-07 2.34983C4.41141e-07 2.46703 0.0453982 2.57695 0.127804 2.65929L3.69109 6.22271C3.77376 6.30525 3.88413 6.35058 4.00146 6.35032C4.11925 6.35058 4.22956 6.30525 4.31216 6.22271Z" fill="#CECECE"/>
</g>
<defs>
<clipPath id="clip0_89_2229">
<rect width="8" height="8" fill="white" transform="translate(8) rotate(90)"/>
</clipPath>
</defs>
</svg>
