<svg width="20" height="20" viewBox="0 0 20 20" fill="none" xmlns="http://www.w3.org/2000/svg">
<path d="M17.0833 8.79176V7.91634C17.0833 4.01051 13.9058 0.833008 10 0.833008C6.09417 0.833008 2.91667 4.01051 2.91667 7.91634V8.79176C1.96687 8.9853 1.25 9.82697 1.25 10.833V13.1247C1.25 14.2734 2.18458 15.208 3.33333 15.208H5C5.45958 15.208 5.83333 14.8343 5.83333 14.3747V9.58301C5.83333 9.12342 5.45958 8.74967 5 8.74967H3.75V7.91634C3.75 6.66322 4.12208 5.49592 4.75979 4.51655L4.95625 4.71322C5.19396 4.95092 5.50875 5.08134 5.84417 5.08134H5.85104C6.18312 5.07967 6.49312 4.94884 6.72375 4.7128C7.59333 3.82322 8.75688 3.33301 10 3.33301C11.2431 3.33301 12.4067 3.82322 13.2765 4.71301C13.5069 4.94884 13.8171 5.07967 14.149 5.08134H14.1558C14.491 5.08134 14.8062 4.95072 15.0437 4.71322L15.2402 4.51655C15.8779 5.49592 16.25 6.66322 16.25 7.91634V8.74967H15C14.5404 8.74967 14.1667 9.12342 14.1667 9.58301V14.3747C14.1667 14.8343 14.5404 15.208 15 15.208H16.25V16.0413C16.25 16.7307 15.6894 17.2913 15 17.2913H11.8135C11.6337 16.6897 11.0758 16.2497 10.4167 16.2497H9.58333C8.77937 16.2497 8.125 16.9041 8.125 17.708C8.125 18.512 8.77937 19.1663 9.58333 19.1663H10.4167C11.0758 19.1663 11.6337 18.7261 11.8135 18.1247H15C16.1487 18.1247 17.0833 17.1901 17.0833 16.0413V15.1659C18.0331 14.9724 18.75 14.1305 18.75 13.1247V10.833C18.75 9.82697 18.0331 8.9853 17.0833 8.79176Z" fill="white"/>
</svg>
