<svg width="16" height="16" viewBox="0 0 16 16" fill="none" xmlns="http://www.w3.org/2000/svg">
<path d="M11.0788 0C11.1161 0 11.1533 0 11.1926 0C11.284 1.12835 10.8533 1.97146 10.3299 2.582C9.81627 3.18834 9.11298 3.7764 7.97549 3.68717C7.89961 2.57498 8.331 1.79441 8.85373 1.18526C9.33851 0.617573 10.2273 0.112414 11.0788 0Z" fill="#CBCBCB"/>
<path d="M14.5227 11.7446C14.5227 11.7558 14.5227 11.7657 14.5227 11.7762C14.2031 12.7444 13.7471 13.5741 13.1906 14.3442C12.6827 15.0432 12.0602 15.984 10.9487 15.984C9.98824 15.984 9.35029 15.3664 8.36597 15.3496C7.32474 15.3327 6.75213 15.866 5.80012 16.0001C5.69122 16.0001 5.58232 16.0001 5.47553 16.0001C4.77646 15.899 4.21228 15.3453 3.80127 14.8465C2.5893 13.3725 1.65276 11.4685 1.47852 9.03189C1.47852 8.79302 1.47852 8.55484 1.47852 8.31596C1.55229 6.57214 2.39961 5.15432 3.52585 4.46719C4.12024 4.10185 4.93735 3.7906 5.8472 3.92971C6.23713 3.99013 6.6355 4.12363 6.98469 4.25571C7.3156 4.38288 7.72943 4.60841 8.12147 4.59647C8.38705 4.58874 8.65122 4.45033 8.91891 4.35267C9.70299 4.06953 10.4716 3.74493 11.4848 3.89739C12.7023 4.08147 13.5665 4.62246 14.1005 5.45714C13.0705 6.11265 12.2562 7.10049 12.3953 8.7874C12.519 10.3197 13.4098 11.2162 14.5227 11.7446Z" fill="#CBCBCB"/>
</svg>
