<svg width="20" height="20" viewBox="0 0 20 20" fill="none" xmlns="http://www.w3.org/2000/svg">
<g clip-path="url(#clip0_89_1088)">
<path d="M1.66675 19.1667C1.66675 19.3877 1.75455 19.5996 1.91083 19.7559C2.06711 19.9122 2.27907 20 2.50008 20H17.5001C17.7211 20 17.9331 19.9122 18.0893 19.7559C18.2456 19.5996 18.3334 19.3877 18.3334 19.1667V17.5H1.66675V19.1667Z" fill="white"/>
<path d="M17.5001 0H2.50008C2.27907 0 2.06711 0.0877974 1.91083 0.244078C1.75455 0.400358 1.66675 0.61232 1.66675 0.833333V16.6667H18.3334V0.833333C18.3334 0.61232 18.2456 0.400358 18.0893 0.244078C17.9331 0.0877974 17.7211 0 17.5001 0V0ZM8.33342 1.66667C8.49823 1.66667 8.65935 1.71554 8.79639 1.80711C8.93343 1.89868 9.04024 2.02883 9.10331 2.1811C9.16639 2.33337 9.18289 2.50092 9.15074 2.66258C9.11858 2.82423 9.03921 2.97271 8.92267 3.08926C8.80613 3.2058 8.65764 3.28517 8.49599 3.31732C8.33434 3.34948 8.16678 3.33297 8.01451 3.2699C7.86224 3.20683 7.73209 3.10002 7.64052 2.96298C7.54896 2.82593 7.50008 2.66482 7.50008 2.5C7.50008 2.27899 7.58788 2.06702 7.74416 1.91074C7.90044 1.75446 8.1124 1.66667 8.33342 1.66667ZM4.16675 2.5C4.16675 2.33518 4.21562 2.17407 4.30719 2.03702C4.39876 1.89998 4.52891 1.79317 4.68118 1.7301C4.83345 1.66703 5.00101 1.65052 5.16266 1.68268C5.32431 1.71483 5.47279 1.7942 5.58934 1.91074C5.70588 2.02729 5.78525 2.17577 5.8174 2.33742C5.84956 2.49908 5.83305 2.66663 5.76998 2.8189C5.70691 2.97117 5.6001 3.10132 5.46306 3.19289C5.32602 3.28446 5.1649 3.33333 5.00008 3.33333C4.77907 3.33333 4.56711 3.24554 4.41083 3.08926C4.25455 2.93298 4.16675 2.72101 4.16675 2.5ZM10.0001 15C9.01118 15 8.04448 14.7068 7.22223 14.1573C6.39998 13.6079 5.75912 12.827 5.38068 11.9134C5.00225 10.9998 4.90323 9.99445 5.09616 9.02455C5.28908 8.05464 5.76529 7.16373 6.46455 6.46447C7.16381 5.7652 8.05473 5.289 9.02463 5.09607C9.99454 4.90315 10.9999 5.00216 11.9135 5.3806C12.8271 5.75904 13.608 6.3999 14.1574 7.22215C14.7068 8.04439 15.0001 9.01109 15.0001 10C14.9986 11.3256 14.4713 12.5965 13.534 13.5339C12.5966 14.4712 11.3257 14.9985 10.0001 15ZM15.8334 3.33333H12.5001V1.66667H15.8334V3.33333Z" fill="white"/>
<path d="M12.6667 8.00251C12.2472 7.4423 11.6621 7.02831 10.9942 6.81923C10.3263 6.61014 9.6096 6.61658 8.94558 6.83762C8.28156 7.05865 7.70395 7.48308 7.29463 8.05074C6.88531 8.61839 6.66504 9.30048 6.66504 10.0003C6.66504 10.7002 6.88531 11.3823 7.29463 11.9499C7.70395 12.5176 8.28156 12.942 8.94558 13.163C9.6096 13.3841 10.3263 13.3905 10.9942 13.1814C11.6621 12.9723 12.2472 12.5584 12.6667 11.9981C12.3563 11.7657 12.1043 11.4641 11.9307 11.1174C11.7572 10.7706 11.6668 10.3881 11.6668 10.0003C11.6668 9.61254 11.7572 9.23008 11.9307 8.8833C12.1043 8.53652 12.3563 8.23495 12.6667 8.00251Z" fill="white"/>
</g>
<defs>
<clipPath id="clip0_89_1088">
<rect width="20" height="20" fill="white"/>
</clipPath>
</defs>
</svg>
