<svg width="19" height="19" viewBox="0 0 19 19" fill="none" xmlns="http://www.w3.org/2000/svg">
<path d="M16.715 4.35431H13.9681V4.07211C13.9681 2.81133 12.9448 1.78809 11.684 1.78809H7.31546C6.05418 1.78809 5.03144 2.81133 5.03144 4.07211V4.35431H2.28402C1.02273 4.35431 0 5.37704 0 6.63833V14.9288C0 16.1896 1.02273 17.2128 2.28402 17.2128H16.716C17.9773 17.2128 19 16.1896 19 14.9288V6.63833C18.999 5.37654 17.9763 4.35431 16.715 4.35431ZM9.49899 14.8435C7.11954 14.8435 5.18473 12.9087 5.18473 10.5293C5.18473 8.15035 7.11954 6.21502 9.49899 6.21502C11.8784 6.21502 13.8132 8.14984 13.8132 10.5293C13.8132 12.9087 11.8779 14.8435 9.49899 14.8435ZM11.783 10.5293C11.783 11.7875 10.7577 12.8133 9.49899 12.8133C8.24024 12.8133 7.21497 11.7875 7.21497 10.5293C7.21497 9.27054 8.24024 8.24526 9.49899 8.24526C10.7577 8.24526 11.783 9.27054 11.783 10.5293Z" fill="white"/>
</svg>
