<svg width="11" height="11" viewBox="0 0 11 11" fill="none" xmlns="http://www.w3.org/2000/svg">
<g clip-path="url(#clip0_89_1239)">
<path d="M7.12735 5.95703L6.20608 6.88142C5.83249 7.25632 5.17515 7.2644 4.79348 6.88142L3.87217 5.95703L0.563232 9.27671C0.686402 9.33367 0.822205 9.36765 0.96658 9.36765H10.033C10.1774 9.36765 10.3131 9.33371 10.4362 9.27673L7.12735 5.95703Z" fill="#474BC6"/>
<path d="M10.0334 1.63281H0.967025C0.82265 1.63281 0.686848 1.6668 0.563721 1.72376L4.09955 5.27132C4.09979 5.27156 4.10007 5.2716 4.10031 5.27184C4.10054 5.27207 4.10059 5.27239 4.10059 5.27239L5.25028 6.42589C5.3724 6.54801 5.6281 6.54801 5.75022 6.42589L6.89968 5.27259C6.89968 5.27259 6.89996 5.27207 6.90019 5.27184C6.90019 5.27184 6.90071 5.27156 6.90095 5.27132L10.4367 1.72373C10.3136 1.66676 10.1778 1.63281 10.0334 1.63281Z" fill="#474BC6"/>
<path d="M0.102824 2.1748C0.0391016 2.30367 0 2.44671 0 2.59994V8.40072C0 8.55395 0.0390586 8.69699 0.102803 8.82585L3.41748 5.50044L0.102824 2.1748Z" fill="#474BC6"/>
<path d="M10.8971 2.1748L7.58252 5.50048L10.8971 8.82594C10.9609 8.69707 11 8.55403 11 8.40076V2.59998C11 2.44671 10.9609 2.30367 10.8971 2.1748Z" fill="#474BC6"/>
</g>
<defs>
<clipPath id="clip0_89_1239">
<rect width="11" height="11" fill="white"/>
</clipPath>
</defs>
</svg>
