<svg width="13" height="13" viewBox="0 0 13 13" fill="none" xmlns="http://www.w3.org/2000/svg">
<path d="M12.152 5.58635L9.62142 8.0531L10.219 11.5371C10.245 11.6894 10.1825 11.8434 10.0573 11.9344C9.98664 11.986 9.90255 12.012 9.81846 12.012C9.75386 12.012 9.68886 11.9966 9.62955 11.9653L6.50061 10.3204L3.37208 11.9649C3.23558 12.0372 3.06943 12.0254 2.9443 11.934C2.81918 11.843 2.75661 11.689 2.78261 11.5367L3.38021 8.05269L0.849269 5.58635C0.738769 5.47829 0.698551 5.3166 0.746488 5.16995C0.794426 5.02329 0.921582 4.91563 1.07474 4.89329L4.57214 4.38548L6.13621 1.21591C6.27311 0.938445 6.72811 0.938445 6.86502 1.21591L8.42908 4.38548L11.9265 4.89329C12.0796 4.91563 12.2068 5.02288 12.2547 5.16995C12.3027 5.31701 12.2625 5.47788 12.152 5.58635Z" fill="#474BC6"/>
</svg>
