<svg width="25" height="25" viewBox="0 0 25 25" fill="none" xmlns="http://www.w3.org/2000/svg">
<path d="M0 6.90234H20.6055V8.36719H0V6.90234Z" fill="#474BC6"/>
<path d="M20.6055 4.99805C20.6055 3.78647 19.6198 2.80078 18.4082 2.80078H2.19727C0.985693 2.80078 0 3.78647 0 4.99805V5.4375H20.6055V4.99805Z" fill="#474BC6"/>
<path d="M20.5566 11.8479C20.5729 11.8479 20.5892 11.8484 20.6055 11.8486V9.83203H0V15.8379C0 17.0495 0.985693 18.0352 2.19727 18.0352H14.6552C14.6508 17.9427 14.6484 17.8497 14.6484 17.7562C14.6484 14.4983 17.2988 11.8479 20.5566 11.8479ZM3.66211 11.2969H5.49316C5.89766 11.2969 6.22559 11.6248 6.22559 12.0293C6.22559 12.4338 5.89766 12.7617 5.49316 12.7617H3.66211C3.25762 12.7617 2.92969 12.4338 2.92969 12.0293C2.92969 11.6248 3.25762 11.2969 3.66211 11.2969ZM7.8125 15.1054H3.66211C3.25762 15.1054 2.92969 14.7775 2.92969 14.373C2.92969 13.9685 3.25762 13.6406 3.66211 13.6406H7.8125C8.21699 13.6406 8.54492 13.9685 8.54492 14.373C8.54492 14.7775 8.21699 15.1054 7.8125 15.1054Z" fill="#474BC6"/>
<path d="M20.5566 13.3125C18.1065 13.3125 16.1133 15.3058 16.1133 17.7559C16.1133 20.206 18.1066 22.1992 20.5566 22.1992C23.0067 22.1992 25 20.2059 25 17.7559C25 15.3058 23.0067 13.3125 20.5566 13.3125ZM22.6859 17.3788L20.9281 19.1366C20.7851 19.2796 20.5976 19.3511 20.4102 19.3511C20.2228 19.3511 20.0353 19.2796 19.8923 19.1366L18.989 18.2333C18.703 17.9472 18.703 17.4835 18.989 17.1975C19.275 16.9114 19.7388 16.9114 20.0248 17.1975L20.4103 17.5829L21.6502 16.343C21.9362 16.0569 22.4 16.0569 22.686 16.343C22.9719 16.629 22.9719 17.0927 22.6859 17.3788Z" fill="#474BC6"/>
</svg>
