<svg width="17" height="17" viewBox="0 0 17 17" fill="none" xmlns="http://www.w3.org/2000/svg">
<path d="M13.4974 3.40035H12.7834V2.04035C12.7834 1.86 12.7082 1.68704 12.5742 1.55952C12.4403 1.43199 12.2587 1.36035 12.0694 1.36035C11.88 1.36035 11.6984 1.43199 11.5645 1.55952C11.4306 1.68704 11.3554 1.86 11.3554 2.04035V3.40035H5.64337V2.04035C5.64337 1.86 5.56815 1.68704 5.43425 1.55952C5.30035 1.43199 5.11874 1.36035 4.92937 1.36035C4.74001 1.36035 4.5584 1.43199 4.4245 1.55952C4.2906 1.68704 4.21537 1.86 4.21537 2.04035V3.40035H3.50137C2.93328 3.40035 2.38846 3.61528 1.98675 3.99785C1.58505 4.38043 1.35938 4.89931 1.35938 5.44035V6.12035H15.6394V5.44035C15.6394 4.89931 15.4137 4.38043 15.012 3.99785C14.6103 3.61528 14.0655 3.40035 13.4974 3.40035Z" fill="#E3D6E1"/>
<path d="M1.35938 13.415C1.35938 14.0052 1.58505 14.5713 1.98675 14.9886C2.38846 15.406 2.93328 15.6405 3.50137 15.6405H13.4974C14.0655 15.6405 14.6103 15.406 15.012 14.9886C15.4137 14.5713 15.6394 14.0052 15.6394 13.415V7.48047H1.35938V13.415Z" fill="#E3D6E1"/>
</svg>
