<svg width="12" height="12" viewBox="0 0 12 12" fill="none" xmlns="http://www.w3.org/2000/svg">
<g clip-path="url(#clip0_89_5811)">
<path d="M6.46824 9.33309L11.8083 3.99294C11.9319 3.86943 12 3.70455 12 3.52875C12 3.35294 11.9319 3.18807 11.8083 3.06456L11.4151 2.67129C11.1589 2.41539 10.7425 2.41539 10.4867 2.67129L6.00249 7.15555L1.51326 2.66631C1.38965 2.5428 1.22487 2.47461 1.04916 2.47461C0.873261 2.47461 0.708483 2.5428 0.584776 2.66631L0.191707 3.05958C0.068098 3.18319 9.15499e-07 3.34797 9.07814e-07 3.52377C9.00129e-07 3.69957 0.068098 3.86445 0.191707 3.98796L5.53664 9.33309C5.66064 9.4569 5.8262 9.52489 6.0022 9.5245C6.17888 9.52489 6.34434 9.4569 6.46824 9.33309Z" fill="black"/>
</g>
<defs>
<clipPath id="clip0_89_5811">
<rect width="12" height="12" fill="white" transform="translate(12) rotate(90)"/>
</clipPath>
</defs>
</svg>
