<svg width="16" height="16" viewBox="0 0 16 16" fill="none" xmlns="http://www.w3.org/2000/svg">
<g clip-path="url(#clip0_89_2928)">
<path d="M15.3957 6.60871L8.86944 6.6084C8.58125 6.6084 8.34766 6.84196 8.34766 7.13015V9.21499C8.34766 9.50312 8.58125 9.73674 8.86941 9.73674H12.5446C12.1422 10.7811 11.391 11.6558 10.4327 12.2116L11.9998 14.9243C14.5136 13.4705 15.9998 10.9196 15.9998 8.06402C15.9998 7.65743 15.9698 7.36677 15.9099 7.03949C15.8643 6.79084 15.6485 6.60871 15.3957 6.60871Z" fill="white"/>
<path d="M8.00083 12.8695C6.20227 12.8695 4.63214 11.8868 3.78886 10.4326L1.07617 11.9962C2.45664 14.3887 5.0427 15.9999 8.00083 15.9999C9.45198 15.9999 10.8213 15.6092 12.0008 14.9283V14.9246L10.4337 12.2117C9.71692 12.6275 8.88742 12.8695 8.00083 12.8695Z" fill="white"/>
<path d="M12 14.9284V14.9247L10.4329 12.2119C9.71609 12.6276 8.88666 12.8696 8 12.8696V16.0001C9.45116 16.0001 10.8205 15.6094 12 14.9284Z" fill="#FEFEFE"/>
<path d="M3.13044 8.00019C3.13044 7.11366 3.37238 6.28425 3.78803 5.56747L1.07534 4.00391C0.390687 5.17975 0 6.54531 0 8.00019C0 9.45506 0.390687 10.8206 1.07534 11.9965L3.78803 10.4329C3.37238 9.71612 3.13044 8.88672 3.13044 8.00019Z" fill="white"/>
<path d="M8.00083 3.13044C9.17367 3.13044 10.251 3.54719 11.0925 4.24041C11.3 4.41141 11.6018 4.39906 11.7919 4.20891L13.2691 2.73172C13.4849 2.51597 13.4695 2.16281 13.239 1.96288C11.8292 0.739781 9.9948 0 8.00083 0C5.0427 0 2.45664 1.61116 1.07617 4.00372L3.78886 5.56728C4.63214 4.11312 6.20227 3.13044 8.00083 3.13044Z" fill="white"/>
<path d="M11.0916 4.24041C11.2992 4.41141 11.601 4.39906 11.7911 4.20891L13.2683 2.73172C13.484 2.51597 13.4686 2.16281 13.2382 1.96288C11.8283 0.73975 9.99397 0 8 0V3.13044C9.17281 3.13044 10.2502 3.54719 11.0916 4.24041Z" fill="white"/>
</g>
<defs>
<clipPath id="clip0_89_2928">
<rect width="16" height="16" fill="white"/>
</clipPath>
</defs>
</svg>
