<svg width="17" height="17" viewBox="0 0 17 17" fill="none" xmlns="http://www.w3.org/2000/svg">
<g clip-path="url(#clip0_89_772)">
<path d="M6.08524 6.95761H8.50963H10.934C11.1974 6.95761 11.4106 6.74349 11.4106 6.47906V5.95754C11.4106 4.5898 10.3244 3.40857 8.84452 3.40857C9.62609 3.25231 10.2153 2.55999 10.2153 1.72902C10.2153 0.783229 9.45154 0.0166016 8.50963 0.0166016C7.56773 0.0166016 6.80392 0.783229 6.80392 1.72902C6.80392 2.55999 7.39318 3.25231 8.17475 3.40857C6.69674 3.40857 5.60864 4.58797 5.60864 5.95754V6.47906C5.60868 6.74345 5.82191 6.95761 6.08524 6.95761Z" fill="white"/>
<path d="M2.14216 8.29322C2.17231 8.29873 2.20222 8.30138 2.23181 8.30138C2.46755 8.30138 2.67696 8.13238 2.72069 7.89119C2.84318 7.21538 3.07507 6.55872 3.40989 5.93951C3.73302 5.34196 4.13823 4.80533 4.61426 4.34457C4.81209 4.15312 4.81786 3.83686 4.62718 3.6382C4.43649 3.43958 4.12156 3.43377 3.92374 3.62522C3.37433 4.15704 2.90722 4.77528 2.53548 5.46278C2.15023 6.17525 1.88317 6.93209 1.74176 7.71229C1.69259 7.98373 1.87185 8.24381 2.14216 8.29322Z" fill="white"/>
<path d="M13.6093 5.93953C13.9441 6.55876 14.176 7.21539 14.2985 7.89121C14.3422 8.13243 14.5516 8.3014 14.7874 8.3014C14.8169 8.3014 14.8469 8.29874 14.877 8.29323C15.1474 8.24382 15.3266 7.98374 15.2774 7.71231C15.136 6.9321 14.8689 6.17523 14.4837 5.4628C14.1119 4.77529 13.6448 4.15702 13.0954 3.62523C12.8976 3.43375 12.5827 3.4396 12.392 3.63822C12.2013 3.83687 12.2071 4.1531 12.4049 4.34458C12.881 4.80534 13.2862 5.34197 13.6093 5.93953Z" fill="white"/>
<path d="M10.5195 12.1082C9.87772 12.32 9.20181 12.4285 8.50965 12.4309C8.50069 12.4312 8.49142 12.4312 8.48246 12.4312C7.80555 12.4312 7.14225 12.3296 6.51175 12.1295C6.24975 12.0462 5.97048 12.1921 5.88757 12.4552C5.80466 12.7183 5.94992 12.9987 6.21193 13.0819C6.93958 13.313 7.70338 13.4302 8.48246 13.4302H8.50965C9.30762 13.4272 10.088 13.302 10.8299 13.0572C11.0909 12.9713 11.2332 12.6889 11.1473 12.4268C11.0617 12.1648 10.7805 12.0219 10.5195 12.1082Z" fill="white"/>
<path d="M3.23581 13.4343C4.01741 13.278 4.6067 12.5855 4.6067 11.7547C4.6067 10.809 3.8429 10.042 2.90099 10.042C1.95908 10.042 1.19528 10.809 1.19528 11.7547C1.19528 12.5855 1.78457 13.278 2.56617 13.4343C1.08943 13.4343 0 14.6125 0 15.9833V16.5048C0 16.7689 0.213264 16.9834 0.476598 16.9834H2.90099H5.32538C5.58872 16.9834 5.80198 16.7689 5.80198 16.5048V15.9833C5.80198 14.6183 4.71876 13.4343 3.23581 13.4343Z" fill="white"/>
<path d="M14.4338 13.4343C15.2154 13.278 15.8047 12.5855 15.8047 11.7547C15.8047 10.809 15.0409 10.042 14.099 10.042C13.1568 10.042 12.3933 10.809 12.3933 11.7547C12.3933 12.5855 12.9824 13.278 13.7641 13.4343C12.284 13.4343 11.198 14.6153 11.198 15.9833V16.5048C11.198 16.7689 11.4113 16.9833 11.6746 16.9833H14.099H16.5234C16.7864 16.9833 17 16.7689 17 16.5048V15.9833C17 14.6154 15.9138 13.4343 14.4338 13.4343Z" fill="white"/>
</g>
<defs>
<clipPath id="clip0_89_772">
<rect width="17" height="17" fill="white"/>
</clipPath>
</defs>
</svg>
