<svg width="22" height="22" viewBox="0 0 22 22" fill="none" xmlns="http://www.w3.org/2000/svg">
<g clip-path="url(#clip0_89_1048)">
<path d="M5.02725 6.47109H5.80068V9.08789C5.80068 10.4887 6.92217 11.7648 8.09521 12.8262V14.025C8.09521 14.5922 7.63545 15.052 7.06826 15.052C7.04678 15.052 5.5085 15.2152 5.4999 15.2152V18.223H16.4999V15.2152C16.139 15.1766 14.953 15.052 14.9358 15.052C14.3687 15.052 13.9089 14.5922 13.9089 14.025V12.8262C15.0776 11.7691 16.2034 10.493 16.2034 9.08789V6.47109H16.9769C17.2433 6.47109 17.4538 6.25625 17.4538 5.99414C17.4538 5.73203 17.2433 5.51719 16.9769 5.51719H16.6718C16.5858 3.31289 15.2452 1.43516 13.3417 0.571484C13.3374 0.653125 13.3288 0.734766 13.3116 0.816406L12.6026 3.9875C12.5468 4.24531 12.289 4.40859 12.0312 4.34844C11.7733 4.29258 11.6101 4.03477 11.6702 3.77695L12.3792 0.605859C12.4093 0.464063 12.3749 0.317969 12.2847 0.201953C12.1944 0.0859375 12.0569 0.0214844 11.9108 0.0214844H10.0847C9.93857 0.0214844 9.80107 0.0859375 9.71084 0.201953C9.6206 0.317969 9.58623 0.464063 9.61631 0.605859L10.3296 3.78125C10.3854 4.03906 10.2265 4.29258 9.96865 4.35273C9.70225 4.4043 9.45303 4.24102 9.39717 3.9918L8.68818 0.820703C8.671 0.739062 8.6581 0.657422 8.6581 0.571484C6.75459 1.43086 5.41396 3.31719 5.32803 5.51719H5.02725C4.76084 5.51719 4.55029 5.73203 4.55029 5.99414C4.55029 6.25625 4.76084 6.47109 5.02725 6.47109ZM14.1108 15.8254C12.0269 17.1187 9.98154 17.1187 7.89756 15.8211C8.57646 15.5074 9.04482 14.8242 9.04482 14.025V13.6426C9.29404 13.8488 9.20811 13.7801 9.39287 13.9348C9.67646 14.1711 10.0331 14.3 10.394 14.3H11.6015C11.9667 14.3 12.3233 14.1711 12.6026 13.9348C12.6886 13.8617 12.8948 13.6898 12.9507 13.6426V14.025C12.955 14.8242 13.4319 15.5074 14.1108 15.8254ZM6.75459 6.47109H15.2452V9.08789C15.2452 10.5961 13.187 12.2074 11.9925 13.2C11.8808 13.2945 11.739 13.3461 11.5972 13.3461H10.3897C10.2479 13.3461 10.1062 13.2945 9.99443 13.2C8.79131 12.1988 6.7417 10.5961 6.7417 9.08789L6.75459 6.47109Z" fill="white"/>
<path d="M21.9828 21.3687L21.3554 19.0012C20.8613 17.1363 19.3488 15.7227 17.4539 15.3359V18.3094C18.2101 18.5156 18.8289 19.0742 19.0996 19.8348L19.8515 21.9746H21.5273C21.841 21.9746 22.0644 21.6652 21.9828 21.3687Z" fill="white"/>
<path d="M18.8332 21.9701H3.18823L3.79839 20.1482C4.02612 19.5209 4.59331 19.1729 5.26362 19.1729H16.7277C17.4023 19.1729 17.9824 19.5381 18.2015 20.1482L18.8332 21.9701Z" fill="white"/>
<path d="M4.55035 18.3045V15.3311C2.66402 15.7135 1.14293 17.1271 0.653087 19.0006L0.0171494 21.3682C-0.0601943 21.6861 0.16754 21.9697 0.476915 21.9697H2.17848L2.90895 19.8299C3.17106 19.0736 3.7984 18.515 4.55035 18.3045Z" fill="white"/>
</g>
<defs>
<clipPath id="clip0_89_1048">
<rect width="22" height="22" fill="white"/>
</clipPath>
</defs>
</svg>
