<svg width="9" height="9" viewBox="0 0 9 9" fill="none" xmlns="http://www.w3.org/2000/svg">
<g clip-path="url(#clip0_89_1252)">
<path d="M8.75487 6.60509L7.4989 5.34912C7.05033 4.90055 6.28777 5.08 6.10835 5.66311C5.97378 6.06683 5.52522 6.29112 5.12151 6.20139C4.22438 5.9771 3.01326 4.81084 2.78898 3.86886C2.65441 3.46513 2.92355 3.01657 3.32726 2.88202C3.91039 2.70259 4.08982 1.94004 3.64125 1.49147L2.38527 0.235496C2.02642 -0.0784985 1.48815 -0.0784985 1.17415 0.235496L0.321884 1.08777C-0.530386 1.98489 0.411597 4.36228 2.51984 6.47052C4.62809 8.57877 7.00548 9.56563 7.9026 8.66848L8.75487 7.81621C9.06888 7.45736 9.06888 6.91909 8.75487 6.60509Z" fill="#474BC6"/>
</g>
<defs>
<clipPath id="clip0_89_1252">
<rect width="9" height="9" fill="white"/>
</clipPath>
</defs>
</svg>
