<svg width="13" height="13" viewBox="0 0 13 13" fill="none" xmlns="http://www.w3.org/2000/svg">
<g clip-path="url(#clip0_89_1294)">
<path d="M11.5608 7.11863C11.5508 7.10057 11.5571 7.13863 11.5608 7.11863C11.6195 6.79882 11.6503 6.47158 11.6503 6.14441C11.6503 5.41894 11.5083 4.71521 11.2277 4.0526C10.9569 3.41263 10.5696 2.8379 10.0758 2.34443C9.58275 1.85089 9.0076 1.46364 8.36791 1.19294C7.70558 0.912656 7.00178 0.770604 6.27638 0.770604C5.93448 0.770604 5.59203 0.802696 5.25874 0.866741C5.25805 0.86688 5.25624 0.867088 5.25624 0.867088C4.79897 0.623967 4.2848 0.494141 3.76424 0.494141C2.91443 0.494141 2.11547 0.825063 1.51461 1.42613C0.913825 2.02698 0.582764 2.82602 0.582764 3.67576C0.582764 4.21667 0.721968 4.74841 0.98301 5.21819C0.930079 5.52264 0.902086 5.83377 0.902086 6.14441C0.902086 6.87002 1.04414 7.57368 1.32477 8.23636C1.59512 8.8766 1.98258 9.45092 2.47598 9.94446C2.96979 10.4379 3.54411 10.8258 4.1845 11.0958C4.8469 11.3766 5.5509 11.5188 6.27631 11.5188C6.59209 11.5188 6.90856 11.4899 7.21753 11.4351C7.69349 11.7044 8.23239 11.8475 8.78268 11.8475C9.63228 11.8475 10.4309 11.5172 11.0318 10.9159C11.6328 10.3154 11.9636 9.51622 11.9636 8.66648C11.9636 8.12376 11.8237 7.59028 11.5608 7.11863ZM6.29777 9.43564C4.38858 9.43564 3.53439 8.49706 3.53439 7.79353C3.53439 7.43281 3.80078 7.17983 4.16789 7.17983C4.98499 7.17983 4.7734 8.35299 6.29777 8.35299C7.07819 8.35299 7.50907 7.92926 7.50907 7.49567C7.50907 7.23484 7.38042 6.94574 6.86654 6.8191L5.16844 6.39517C3.80078 6.05223 3.55266 5.31287 3.55266 4.61789C3.55266 3.17493 4.91129 2.63319 6.18712 2.63319C7.36243 2.63319 8.74787 3.28274 8.74787 4.14839C8.74787 4.51932 8.42668 4.735 8.0597 4.735C7.36243 4.735 7.49066 3.76988 6.08612 3.76988C5.38919 3.76988 5.00312 4.08552 5.00312 4.5371C5.00312 4.98792 5.55361 5.13191 6.03152 5.24076L7.28845 5.5198C8.66528 5.82655 9.01433 6.63037 9.01433 7.38752C9.01447 8.56006 8.11437 9.43564 6.29777 9.43564Z" fill="#444444"/>
</g>
<defs>
<clipPath id="clip0_89_1294">
<rect width="12.1395" height="12.1395" fill="white" transform="translate(0.209229 0.0927734)"/>
</clipPath>
</defs>
</svg>
