<svg width="21" height="21" viewBox="0 0 21 21" fill="none" xmlns="http://www.w3.org/2000/svg">
<g clip-path="url(#clip0_89_4329)">
<path d="M21 10.5117L19.2027 8.1705L19.6047 5.26172L16.8615 4.17388L15.7736 1.43064L12.8649 1.83266L10.5 0.0117188L8.15878 1.80902L5.25 1.40699L4.16216 4.15023L1.41892 5.23807L1.82095 8.14685L0 10.5117L1.7973 12.8529L1.39527 15.7617L4.13851 16.8496L5.22635 19.5928L8.13514 19.1908L10.4764 20.9881L12.8176 19.1908L15.7264 19.5928L16.8142 16.8496L19.5574 15.7381L19.1554 12.8293L21 10.5117ZM9.64865 13.9171L6.14865 11.032L6.90541 10.1097L9.50676 12.2381L13.9527 7.10631L14.8514 7.88672L9.64865 13.9171Z" fill="#474BC6"/>
</g>
<defs>
<clipPath id="clip0_89_4329">
<rect width="21" height="21" fill="white"/>
</clipPath>
</defs>
</svg>
