<svg width="32" height="32" viewBox="0 0 32 32" fill="none" xmlns="http://www.w3.org/2000/svg">
<path d="M9.84497 7.01277L29.2174 15.023C30.0335 15.3605 30.5798 16.1174 30.6433 16.9982C30.7066 17.8792 30.2743 18.7065 29.5148 19.1573L22.8933 23.088L18.9625 29.7096C18.5117 30.4691 17.6844 30.9015 16.8035 30.8381C15.9209 30.7746 15.1651 30.2268 14.8282 29.4122L6.81799 10.0398C6.45328 9.15775 6.64597 8.19056 7.32087 7.51566C7.99577 6.84076 8.96296 6.64806 9.84497 7.01277ZM8.11751 9.50247L16.1277 28.8749C16.2625 29.2006 16.5527 29.4102 16.9044 29.4355C17.256 29.4608 17.5733 29.2949 17.7534 28.9918L21.4967 22.6858L16.5562 17.7453C16.2816 17.4707 16.2816 17.0255 16.5562 16.7509C16.8308 16.4763 17.276 16.4763 17.5506 16.7509L22.4911 21.6914L28.797 17.9481C29.1001 17.7682 29.266 17.4508 29.2407 17.0992C29.2154 16.7476 29.0059 16.4573 28.6801 16.3226L9.30769 8.31229C8.78598 8.09656 8.41613 8.40907 8.31521 8.50999C8.21429 8.61091 7.90178 8.98076 8.11751 9.50247Z" fill="#474BC6"/>
</svg>
