<svg width="142" height="48" viewBox="0 0 142 48" fill="none" xmlns="http://www.w3.org/2000/svg">
<g clip-path="url(#clip0_89_1306)">
<path d="M130.692 0.000156H11.3144C10.8792 0.000156 10.4493 0.000156 10.0153 0.002556C9.65202 0.004956 9.29162 0.011928 8.92483 0.017796C8.12801 0.0272782 7.33306 0.0981675 6.5469 0.229848C5.76183 0.364395 5.00136 0.618055 4.29121 0.982248C3.58192 1.34952 2.93382 1.82676 2.37043 2.39664C1.80408 2.96492 1.33198 3.62178 0.972286 4.34195C0.611602 5.06069 0.361503 5.83088 0.230626 6.62593C0.0985054 7.41998 0.0274098 8.22318 0.0179778 9.02833C0.00696567 9.39625 0.00580274 9.7654 0 10.1334V37.8705C0.00580274 38.2431 0.00696567 38.604 0.0179778 38.9768C0.0274127 39.7819 0.0985083 40.585 0.230626 41.379C0.361142 42.1746 0.611256 42.9452 0.972286 43.6642C1.33181 44.382 1.80398 45.0362 2.37043 45.6014C2.93169 46.1738 3.5802 46.6513 4.29121 47.0158C5.00136 47.381 5.76175 47.6361 6.5469 47.7728C7.3332 47.9034 8.12806 47.9743 8.92483 47.9849C9.29162 47.9931 9.65202 47.9978 10.0153 47.9978C10.4493 48.0002 10.8793 48.0002 11.3144 48.0002H130.692C131.118 48.0002 131.552 48.0002 131.978 47.9978C132.34 47.9978 132.711 47.9931 133.072 47.9849C133.868 47.9749 134.661 47.9039 135.446 47.7728C136.233 47.6352 136.996 47.3801 137.71 47.0158C138.42 46.6511 139.068 46.1736 139.629 45.6014C140.194 45.034 140.667 44.3803 141.031 43.6642C141.39 42.9447 141.637 42.1741 141.766 41.379C141.898 40.5849 141.972 39.7819 141.986 38.9768C141.991 38.604 141.991 38.2431 141.991 37.8705C142 37.4345 142 37.001 142 36.5579V11.4435C142 11.0041 142 10.5681 141.991 10.1334C141.991 9.7654 141.991 9.39625 141.986 9.02828C141.972 8.22306 141.898 7.42004 141.766 6.62588C141.637 5.83129 141.389 5.06116 141.031 4.3419C140.299 2.89839 139.137 1.72339 137.71 0.98214C136.996 0.618837 136.233 0.365245 135.446 0.22974C134.661 0.0974793 133.868 0.0265653 133.072 0.017628C132.711 0.011772 132.34 0.00474 131.978 0.0024C131.552 0 131.118 0 130.692 0V0.000156Z" fill="#A6A6A6"/>
<path d="M10.021 46.9498C9.65948 46.9498 9.30666 46.9451 8.94795 46.937C8.20484 46.9272 7.46347 46.8618 6.72992 46.7412C6.04592 46.6221 5.38331 46.4005 4.76394 46.0838C4.15026 45.7696 3.59052 45.3577 3.10619 44.8638C2.61484 44.3758 2.20577 43.8097 1.89519 43.188C1.58119 42.5623 1.36388 41.8917 1.25084 41.1994C1.12876 40.4555 1.06271 39.7034 1.05326 38.9494C1.04574 38.6963 1.03589 37.8537 1.03589 37.8537V10.133C1.03589 10.133 1.04638 9.30332 1.05332 9.05956C1.06237 8.30678 1.12804 7.55579 1.24975 6.81308C1.363 6.1189 1.58048 5.4463 1.89465 4.81856C2.20409 4.19734 2.61088 3.63084 3.09927 3.14102C3.58711 2.64655 4.14863 2.23253 4.76336 1.91406C5.38131 1.59832 6.04267 1.37828 6.72528 1.26133C7.46124 1.13961 8.20519 1.0738 8.95087 1.06446L10.0216 1.0498H131.972L133.056 1.06504C133.795 1.07392 134.532 1.13914 135.261 1.26015C135.951 1.37857 136.619 1.60014 137.244 1.91757C138.476 2.55939 139.478 3.5748 140.11 4.82149C140.419 5.4449 140.633 6.11201 140.745 6.80019C140.868 7.54899 140.937 8.30589 140.951 9.06484C140.955 9.40468 140.955 9.76972 140.955 10.133C140.964 10.583 140.964 11.0113 140.964 11.4432V36.5576C140.964 36.9935 140.964 37.4189 140.955 37.8478C140.955 38.238 140.955 38.5955 140.95 38.9634C140.936 39.7089 140.868 40.4522 140.747 41.1876C140.636 41.8849 140.42 42.5608 140.106 43.1916C139.794 43.8065 139.387 44.3677 138.901 44.8545C138.416 45.351 137.856 45.7653 137.241 46.0815C136.617 46.4007 135.95 46.6231 135.261 46.7412C134.528 46.8624 133.786 46.9278 133.043 46.937C132.696 46.9451 132.332 46.9498 131.978 46.9498L130.692 46.9522L10.021 46.9498Z" fill="black"/>
<path d="M29.3921 24.3618C29.4048 23.3602 29.6679 22.3781 30.1569 21.507C30.6458 20.6358 31.3447 19.9039 32.1885 19.3793C31.6524 18.6051 30.9453 17.968 30.1231 17.5185C29.301 17.069 28.3865 16.8196 27.4524 16.7901C25.4597 16.5786 23.5279 17.9959 22.5124 17.9959C21.4774 17.9959 19.9139 16.8111 18.2304 16.8461C17.1414 16.8817 16.0801 17.2019 15.15 17.7756C14.2198 18.3492 13.4524 19.1568 12.9226 20.1195C10.6276 24.1376 12.3394 30.0429 14.5379 33.2908C15.6378 34.8813 16.9232 36.6578 18.6053 36.5948C20.2512 36.5258 20.866 35.5334 22.8528 35.5334C24.8212 35.5334 25.3979 36.5948 27.1141 36.5547C28.8803 36.5258 29.993 34.9573 31.0544 33.3518C31.8446 32.2185 32.4528 30.9661 32.8562 29.6408C31.8301 29.2019 30.9544 28.4673 30.3384 27.5285C29.7224 26.5898 29.3933 25.4884 29.3921 24.3618V24.3618Z" fill="white"/>
<path d="M26.1506 14.6536C27.1136 13.4845 27.5881 11.9819 27.4732 10.4648C26.0019 10.6211 24.6429 11.3322 23.6669 12.4564C23.1897 13.0056 22.8242 13.6445 22.5913 14.3366C22.3585 15.0287 22.2628 15.7605 22.3097 16.49C23.0456 16.4977 23.7736 16.3364 24.4389 16.0183C25.1042 15.7002 25.6895 15.2336 26.1506 14.6536Z" fill="white"/>
<path d="M50.1982 32.5672H44.5813L43.2324 36.595H40.8533L46.1735 21.6934H48.6453L53.9656 36.595H51.5459L50.1982 32.5672ZM45.163 30.7086H49.6153L47.4205 24.1719H47.3591L45.163 30.7086Z" fill="white"/>
<path d="M65.4554 31.1637C65.4554 34.5399 63.6685 36.709 60.9719 36.709C60.2888 36.7452 59.6094 36.5861 59.0116 36.2499C58.4137 35.9137 57.9216 35.4141 57.5915 34.8082H57.5405V40.1895H55.3352V25.7309H57.4698V27.5379H57.5104C57.8557 26.935 58.3561 26.438 58.9585 26.0997C59.5609 25.7615 60.2427 25.5948 60.9313 25.6172C63.658 25.6172 65.4554 27.7969 65.4554 31.1637ZM63.1887 31.1637C63.1887 28.9641 62.0646 27.518 60.3495 27.518C58.6646 27.518 57.5312 28.9946 57.5312 31.1637C57.5312 33.3528 58.6646 34.8188 60.3495 34.8188C62.0646 34.8188 63.1887 33.3833 63.1887 31.1637Z" fill="white"/>
<path d="M77.2804 31.1637C77.2804 34.5399 75.4934 36.709 72.7968 36.709C72.1137 36.7452 71.4343 36.586 70.8365 36.2499C70.2387 35.9137 69.7466 35.4141 69.4165 34.8082H69.3654V40.1895H67.1602V25.7309H69.2947V27.5379H69.3353C69.6806 26.935 70.181 26.4379 70.7834 26.0997C71.3858 25.7615 72.0676 25.5948 72.7562 25.6172C75.483 25.6172 77.2804 27.7969 77.2804 31.1637ZM75.0137 31.1637C75.0137 28.9641 73.8896 27.518 72.1745 27.518C70.4895 27.518 69.3562 28.9946 69.3562 31.1637C69.3562 33.3528 70.4895 34.8188 72.1745 34.8188C73.8896 34.8188 75.0137 33.3833 75.0137 31.1637H75.0137Z" fill="white"/>
<path d="M85.0956 32.4434C85.259 33.9212 86.6786 34.8914 88.6185 34.8914C90.4773 34.8914 91.8146 33.9211 91.8146 32.5887C91.8146 31.432 91.008 30.7395 89.0982 30.2649L87.1885 29.7996C84.4826 29.1387 83.2264 27.859 83.2264 25.7824C83.2264 23.2113 85.4421 21.4453 88.5884 21.4453C91.7021 21.4453 93.8367 23.2113 93.9086 25.7824H91.6824C91.5492 24.2953 90.3335 23.3977 88.557 23.3977C86.7805 23.3977 85.5649 24.3059 85.5649 25.6277C85.5649 26.6813 86.3413 27.3012 88.2407 27.7757L89.8642 28.1789C92.8876 28.9019 94.1438 30.1301 94.1438 32.3097C94.1438 35.0976 91.9478 36.8437 88.455 36.8437C85.1871 36.8437 82.9807 35.1386 82.8381 32.4433L85.0956 32.4434Z" fill="white"/>
<path d="M98.9033 23.1602V25.7313H100.946V27.4973H98.9033V33.4867C98.9033 34.4172 99.3124 34.8508 100.21 34.8508C100.453 34.8465 100.695 34.8293 100.936 34.7992V36.5547C100.532 36.6309 100.122 36.6655 99.711 36.6578C97.5359 36.6578 96.6876 35.8316 96.6876 33.7246V27.4973H95.1255V25.7313H96.6876V23.1602H98.9033Z" fill="white"/>
<path d="M102.129 31.1641C102.129 27.7457 104.12 25.5977 107.225 25.5977C110.34 25.5977 112.321 27.7457 112.321 31.1641C112.321 34.5918 110.35 36.7305 107.225 36.7305C104.101 36.7305 102.129 34.5918 102.129 31.1641ZM110.074 31.1641C110.074 28.8191 109.012 27.4352 107.225 27.4352C105.438 27.4352 104.376 28.8297 104.376 31.1641C104.376 33.5184 105.438 34.8918 107.225 34.8918C109.012 34.8918 110.074 33.5184 110.074 31.1641H110.074Z" fill="white"/>
<path d="M114.14 25.7308H116.243V27.58H116.294C116.436 27.0025 116.771 26.4921 117.241 26.1346C117.712 25.7771 118.29 25.5944 118.878 25.6171C119.132 25.6162 119.386 25.6441 119.634 25.7003V27.7863C119.313 27.6871 118.978 27.6416 118.643 27.6515C118.323 27.6384 118.003 27.6955 117.707 27.8189C117.41 27.9424 117.144 28.1293 116.925 28.3668C116.707 28.6042 116.542 28.8867 116.442 29.1947C116.342 29.5027 116.309 29.829 116.345 30.1511V36.5953H114.14L114.14 25.7308Z" fill="white"/>
<path d="M129.802 33.4047C129.505 35.3769 127.606 36.7305 125.175 36.7305C122.05 36.7305 120.11 34.6129 120.11 31.2156C120.11 27.8078 122.06 25.5977 125.083 25.5977C128.055 25.5977 129.924 27.6625 129.924 30.9566V31.7207H122.336V31.8555C122.301 32.2553 122.351 32.6581 122.481 33.0371C122.612 33.4161 122.821 33.7627 123.095 34.0537C123.368 34.3448 123.699 34.5737 124.067 34.7253C124.434 34.8768 124.83 34.9476 125.226 34.9328C125.748 34.9822 126.271 34.8601 126.718 34.5848C127.165 34.3095 127.512 33.8956 127.707 33.4047L129.802 33.4047ZM122.347 30.1621H127.718C127.738 29.8026 127.684 29.4428 127.56 29.1054C127.435 28.7679 127.244 28.4601 126.996 28.2012C126.749 27.9422 126.451 27.7378 126.122 27.6008C125.792 27.4637 125.439 27.397 125.083 27.4047C124.724 27.4025 124.368 27.4723 124.035 27.61C123.703 27.7477 123.401 27.9506 123.147 28.2069C122.892 28.4633 122.691 28.768 122.553 29.1036C122.416 29.4392 122.346 29.799 122.347 30.1621V30.1621Z" fill="white"/>
<path d="M44.8867 10.4779C45.349 10.4443 45.8129 10.5149 46.245 10.6847C46.6771 10.8544 47.0665 11.1189 47.3853 11.4593C47.704 11.7996 47.944 12.2073 48.0881 12.6528C48.2321 13.0983 48.2766 13.5706 48.2183 14.0357C48.2183 16.3232 46.9958 17.6381 44.8867 17.6381H42.3291V10.4779H44.8867ZM43.4288 16.6255H44.7638C45.0942 16.6454 45.4248 16.5906 45.7316 16.4651C46.0384 16.3396 46.3137 16.1464 46.5373 15.8998C46.761 15.6531 46.9275 15.3591 47.0246 15.0391C47.1218 14.7192 47.1471 14.3814 47.0989 14.0503C47.1436 13.7205 47.1157 13.3847 47.0171 13.0671C46.9184 12.7495 46.7515 12.4579 46.5284 12.2132C46.3052 11.9685 46.0313 11.7767 45.7262 11.6516C45.4211 11.5266 45.0925 11.4713 44.7638 11.4897H43.4288V16.6255Z" fill="white"/>
<path d="M49.4607 14.9335C49.4271 14.5784 49.4672 14.2202 49.5786 13.8817C49.6899 13.5432 49.87 13.232 50.1073 12.968C50.3445 12.704 50.6338 12.4931 50.9563 12.3488C51.2789 12.2044 51.6278 12.1299 51.9806 12.1299C52.3333 12.1299 52.6822 12.2044 53.0048 12.3488C53.3274 12.4931 53.6166 12.704 53.8538 12.968C54.0911 13.232 54.2712 13.5432 54.3825 13.8817C54.4939 14.2202 54.5341 14.5784 54.5005 14.9335C54.5347 15.289 54.495 15.6478 54.3839 15.9868C54.2729 16.3258 54.0929 16.6376 53.8556 16.9021C53.6183 17.1666 53.3288 17.378 53.0059 17.5226C52.683 17.6673 52.3337 17.742 51.9806 17.742C51.6274 17.742 51.2781 17.6673 50.9552 17.5226C50.6323 17.378 50.3429 17.1666 50.1055 16.9021C49.8682 16.6376 49.6882 16.3258 49.5772 15.9868C49.4661 15.6478 49.4264 15.289 49.4607 14.9335V14.9335ZM53.4158 14.9335C53.4158 13.7623 52.8954 13.0773 51.9823 13.0773C51.0656 13.0773 50.55 13.7623 50.55 14.9335C50.55 16.1142 51.0657 16.7939 51.9823 16.7939C52.8955 16.7939 53.4158 16.1095 53.4158 14.9335H53.4158Z" fill="white"/>
<path d="M61.1996 17.6379H60.1057L59.0013 13.6582H58.9179L57.8181 17.6379H56.7346L55.2617 12.2344H56.3313L57.2885 16.3576H57.3673L58.4659 12.2344H59.4776L60.5762 16.3576H60.6596L61.6122 12.2344H62.6667L61.1996 17.6379Z" fill="white"/>
<path d="M63.9055 12.2346H64.9207V13.093H64.9995C65.1332 12.7847 65.3586 12.5263 65.6445 12.3537C65.9303 12.1811 66.2622 12.103 66.594 12.1303C66.854 12.1106 67.1151 12.1502 67.3579 12.2463C67.6007 12.3424 67.819 12.4925 67.9966 12.6856C68.1742 12.8786 68.3066 13.1095 68.384 13.3613C68.4614 13.6131 68.4817 13.8793 68.4435 14.1401V17.6381H67.389V14.4079C67.389 13.5395 67.0159 13.1077 66.236 13.1077C66.0594 13.0994 65.8832 13.1297 65.7194 13.1967C65.5556 13.2637 65.408 13.3658 65.2868 13.4958C65.1656 13.6259 65.0737 13.7809 65.0173 13.9503C64.9609 14.1196 64.9414 14.2993 64.9601 14.477V17.6381H63.9055L63.9055 12.2346Z" fill="white"/>
<path d="M70.124 10.125H71.1786V17.6379H70.124V10.125Z" fill="white"/>
<path d="M72.6445 14.9336C72.6109 14.5785 72.6511 14.2202 72.7625 13.8817C72.8739 13.5432 73.054 13.232 73.2913 12.968C73.5285 12.704 73.8178 12.4931 74.1404 12.3488C74.463 12.2044 74.8119 12.1299 75.1647 12.1299C75.5174 12.1299 75.8663 12.2044 76.1889 12.3488C76.5115 12.4931 76.8008 12.704 77.0381 12.968C77.2753 13.232 77.4555 13.5432 77.5668 13.8817C77.6782 14.2202 77.7184 14.5785 77.6848 14.9336C77.719 15.2891 77.6793 15.6479 77.5682 15.9869C77.4571 16.326 77.2771 16.6377 77.0398 16.9022C76.8024 17.1667 76.513 17.3781 76.19 17.5227C75.8671 17.6673 75.5178 17.7421 75.1647 17.7421C74.8115 17.7421 74.4622 17.6673 74.1393 17.5227C73.8163 17.3781 73.5269 17.1667 73.2895 16.9022C73.0522 16.6377 72.8722 16.326 72.7611 15.9869C72.65 15.6479 72.6103 15.2891 72.6445 14.9336V14.9336ZM76.5996 14.9336C76.5996 13.7624 76.0793 13.0774 75.1661 13.0774C74.2495 13.0774 73.7338 13.7624 73.7338 14.9336C73.7338 16.1143 74.2495 16.794 75.1661 16.794C76.0793 16.794 76.5996 16.1096 76.5996 14.9336H76.5996Z" fill="white"/>
<path d="M78.7949 16.1096C78.7949 15.1369 79.5111 14.5762 80.7823 14.4965L82.2297 14.4121V13.9457C82.2297 13.375 81.8566 13.0527 81.1358 13.0527C80.5471 13.0527 80.1392 13.2713 80.0221 13.6533H79.0012C79.109 12.7252 79.9723 12.1299 81.1845 12.1299C82.5241 12.1299 83.2796 12.8043 83.2796 13.9457V17.6377H82.2645V16.8783H82.1811C82.0117 17.1507 81.7739 17.3728 81.4919 17.5218C81.2099 17.6709 80.8939 17.7416 80.5761 17.7267C80.3517 17.7503 80.125 17.7261 79.9105 17.6557C79.696 17.5852 79.4985 17.4701 79.3307 17.3178C79.1629 17.1654 79.0285 16.9792 78.9362 16.7711C78.8439 16.563 78.7958 16.3376 78.7949 16.1096V16.1096ZM82.2297 15.6478V15.1961L80.9249 15.2805C80.189 15.3303 79.8553 15.5834 79.8553 16.0598C79.8553 16.5461 80.2724 16.8291 80.8461 16.8291C81.0142 16.8463 81.184 16.8291 81.3454 16.7786C81.5068 16.7281 81.6565 16.6453 81.7856 16.5351C81.9146 16.4249 82.0205 16.2895 82.0968 16.1371C82.1731 15.9847 82.2183 15.8183 82.2297 15.6478V15.6478Z" fill="white"/>
<path d="M84.6658 14.9338C84.6658 13.2264 85.5338 12.1447 86.8838 12.1447C87.2177 12.1292 87.5492 12.2101 87.8393 12.3779C88.1295 12.5458 88.3664 12.7937 88.5224 13.0927H88.6012V10.125H89.6557V17.6379H88.6452V16.7842H88.5618C88.3938 17.0812 88.1486 17.326 87.8528 17.4922C87.557 17.6584 87.2219 17.7395 86.8838 17.7269C85.5245 17.727 84.6658 16.6453 84.6658 14.9338ZM85.7551 14.9338C85.7551 16.0799 86.2894 16.7696 87.1828 16.7696C88.0716 16.7696 88.6209 16.07 88.6209 14.9385C88.6209 13.8123 88.0659 13.1028 87.1828 13.1028C86.2951 13.1028 85.7551 13.7971 85.7551 14.9338H85.7551Z" fill="white"/>
<path d="M94.0188 14.9335C93.9852 14.5784 94.0253 14.2202 94.1367 13.8817C94.248 13.5432 94.4281 13.232 94.6654 12.968C94.9027 12.704 95.1918 12.4931 95.5144 12.3488C95.837 12.2044 96.1859 12.1299 96.5387 12.1299C96.8914 12.1299 97.2403 12.2044 97.5629 12.3488C97.8855 12.4931 98.1747 12.704 98.4119 12.968C98.6492 13.232 98.8293 13.5432 98.9406 13.8817C99.052 14.2202 99.0922 14.5784 99.0586 14.9335C99.0928 15.289 99.0531 15.6478 98.942 15.9868C98.831 16.3258 98.651 16.6376 98.4137 16.9021C98.1764 17.1666 97.8869 17.378 97.564 17.5226C97.2411 17.6673 96.8918 17.742 96.5387 17.742C96.1855 17.742 95.8362 17.6673 95.5133 17.5226C95.1904 17.378 94.901 17.1666 94.6636 16.9021C94.4263 16.6376 94.2463 16.3258 94.1353 15.9868C94.0242 15.6478 93.9845 15.289 94.0188 14.9335V14.9335ZM97.9739 14.9335C97.9739 13.7623 97.4536 13.0773 96.5404 13.0773C95.6238 13.0773 95.1081 13.7623 95.1081 14.9335C95.1081 16.1142 95.6238 16.7939 96.5404 16.7939C97.4536 16.7939 97.9739 16.1095 97.9739 14.9335Z" fill="white"/>
<path d="M100.473 12.2346H101.489V13.093H101.567C101.701 12.7847 101.926 12.5263 102.212 12.3537C102.498 12.1811 102.83 12.103 103.162 12.1303C103.422 12.1106 103.683 12.1502 103.926 12.2463C104.169 12.3424 104.387 12.4925 104.564 12.6856C104.742 12.8786 104.874 13.1095 104.952 13.3613C105.029 13.6131 105.05 13.8793 105.011 14.1401V17.6381H103.957V14.4079C103.957 13.5395 103.584 13.1077 102.804 13.1077C102.627 13.0994 102.451 13.1297 102.287 13.1967C102.123 13.2637 101.976 13.3658 101.855 13.4958C101.733 13.6259 101.642 13.7809 101.585 13.9503C101.529 14.1196 101.509 14.2993 101.528 14.477V17.6381H100.473V12.2346Z" fill="white"/>
<path d="M110.97 10.8887V12.2586H112.128V13.1568H110.97V15.9354C110.97 16.5014 111.201 16.7492 111.726 16.7492C111.86 16.7488 111.995 16.7406 112.128 16.7246V17.6129C111.939 17.6471 111.747 17.6654 111.554 17.6674C110.382 17.6674 109.915 17.2502 109.915 16.2084V13.1568H109.066V12.2585H109.915V10.8887H110.97Z" fill="white"/>
<path d="M113.568 10.125H114.614V13.1027H114.697C114.837 12.7916 115.069 12.5316 115.36 12.3584C115.652 12.1852 115.989 12.1071 116.326 12.1348C116.585 12.1205 116.844 12.1642 117.084 12.2627C117.324 12.3611 117.539 12.5119 117.715 12.7043C117.891 12.8967 118.022 13.126 118.1 13.3757C118.178 13.6255 118.201 13.8896 118.167 14.1492V17.6379H117.111V14.4123C117.111 13.5492 116.713 13.1121 115.968 13.1121C115.787 13.0971 115.605 13.1223 115.434 13.1859C115.264 13.2496 115.109 13.3502 114.981 13.4807C114.852 13.6112 114.754 13.7684 114.692 13.9413C114.631 14.1143 114.607 14.2988 114.623 14.482V17.6379H113.568L113.568 10.125Z" fill="white"/>
<path d="M124.316 16.1788C124.172 16.6726 123.862 17.0998 123.439 17.3856C123.015 17.6714 122.506 17.7976 122 17.7421C121.648 17.7515 121.298 17.6833 120.975 17.5423C120.652 17.4012 120.362 17.1907 120.128 16.9253C119.893 16.66 119.718 16.3461 119.615 16.0055C119.512 15.6649 119.484 15.3058 119.532 14.953C119.485 14.5992 119.514 14.2392 119.616 13.8976C119.719 13.556 119.893 13.2407 120.127 12.973C120.36 12.7053 120.648 12.4915 120.97 12.3461C121.293 12.2006 121.642 12.1269 121.996 12.13C123.482 12.13 124.379 13.1572 124.379 14.854V15.2261H120.606V15.2858C120.59 15.4841 120.614 15.6837 120.678 15.8718C120.743 16.0599 120.845 16.2324 120.979 16.3781C121.113 16.5239 121.276 16.6397 121.456 16.7182C121.637 16.7967 121.832 16.8361 122.029 16.8338C122.281 16.8645 122.537 16.8185 122.763 16.7019C122.99 16.5852 123.177 16.4031 123.3 16.1788L124.316 16.1788ZM120.606 14.4374H123.305C123.318 14.256 123.294 14.0739 123.233 13.9026C123.173 13.7314 123.078 13.5748 122.954 13.443C122.83 13.3111 122.68 13.207 122.514 13.1371C122.348 13.0673 122.169 13.0334 121.99 13.0376C121.807 13.0353 121.626 13.0699 121.457 13.1394C121.288 13.209 121.135 13.312 121.006 13.4425C120.877 13.5729 120.775 13.7282 120.707 13.899C120.638 14.0699 120.604 14.253 120.606 14.4374H120.606Z" fill="white"/>
</g>
<defs>
<clipPath id="clip0_89_1306">
<rect width="142" height="48" fill="white"/>
</clipPath>
</defs>
</svg>
