<svg width="160" height="48" viewBox="0 0 160 48" fill="none" xmlns="http://www.w3.org/2000/svg">
<g clip-path="url(#clip0_89_1286)">
<path fill-rule="evenodd" clip-rule="evenodd" d="M154.072 48H5.92811C2.66088 48 0 45.2948 0 42V6C0 2.69327 2.66088 0 5.92811 0H154.072C157.336 0 160 2.69327 160 6V42C160 45.2948 157.336 48 154.072 48Z" fill="black"/>
<path fill-rule="evenodd" clip-rule="evenodd" d="M154.072 0.960598C156.812 0.960598 159.055 3.22594 159.055 6V42C159.055 44.7741 156.827 47.0394 154.072 47.0394H5.92811C3.18776 47.0394 0.944847 44.7741 0.944847 42V6C0.944847 3.22594 3.17304 0.960598 5.92811 0.960598H154.072ZM154.072 0H5.92811C2.66088 0 0 2.70524 0 6V42C0 45.3067 2.66088 48 5.92811 48H154.072C157.336 48 160 45.3067 160 42V6C160 2.70524 157.336 0 154.072 0Z" fill="#A6A6A6"/>
<path d="M84.2883 15.8778C83.2198 15.8778 82.3191 15.4977 81.6068 14.7496C80.9004 14.0224 80.506 13.0199 80.5236 11.9965C80.5236 10.9042 80.8886 9.97951 81.6068 9.24634C82.3162 8.49821 83.2169 8.11816 84.2853 8.11816C85.342 8.11816 86.2427 8.49821 86.9668 9.24634C87.685 10.0035 88.05 10.9281 88.05 11.9965C88.0382 13.0917 87.6732 14.0164 86.9668 14.7466C86.2574 15.5007 85.3567 15.8778 84.2883 15.8778ZM52.4963 15.8778C51.4514 15.8778 50.5448 15.5037 49.803 14.7645C49.0672 14.0284 48.6934 13.0977 48.6934 11.9995C48.6934 10.9012 49.0672 9.97053 49.803 9.23437C50.5301 8.49522 51.4366 8.12116 52.4963 8.12116C53.0143 8.12116 53.5176 8.2259 54.0004 8.43836C54.4743 8.64485 54.8598 8.92614 55.1454 9.27028L55.216 9.35707L54.4183 10.1531L54.3359 10.0543C53.8856 9.50969 53.2822 9.24335 52.4845 9.24335C51.7722 9.24335 51.1511 9.50071 50.639 10.0094C50.1239 10.5212 49.8619 11.1915 49.8619 12.0025C49.8619 12.8134 50.1239 13.4838 50.639 13.9955C51.1511 14.5042 51.7722 14.7616 52.4845 14.7616C53.2439 14.7616 53.8826 14.5042 54.3801 13.9955C54.6744 13.6962 54.8569 13.2773 54.9217 12.7476H52.3638V11.6284H56.0196L56.0343 11.7301C56.0608 11.9187 56.0873 12.1132 56.0873 12.2927C56.0873 13.3251 55.7811 14.1601 55.1748 14.7765C54.486 15.5067 53.5853 15.8778 52.4963 15.8778ZM94.7669 15.7192H93.6395L90.1869 10.1022L90.2163 11.1137V15.7162H89.089V8.27976H90.3753L90.4106 8.33662L93.6572 13.6274L93.6278 12.6189V8.27976H94.7669V15.7192ZM75.8171 15.7192H74.675V9.39896H72.6941V8.27976H77.7951V9.39896H75.8141V15.7192H75.8171ZM71.764 15.7192H70.6249V8.27976H71.764V15.7192ZM65.362 15.7192H64.2229V9.39896H62.242V8.27976H67.3429V9.39896H65.362V15.7192ZM61.5208 15.7072H57.1528V8.27976H61.5208V9.39896H58.2948V11.4399H61.2059V12.5471H58.2948V14.588H61.5208V15.7072ZM82.4427 13.9805C82.952 14.4982 83.5701 14.7586 84.2883 14.7586C85.0271 14.7586 85.6305 14.5042 86.1338 13.9805C86.6342 13.4718 86.8873 12.8044 86.8873 11.9995C86.8873 11.1945 86.6342 10.5241 86.1367 10.0184C85.6275 9.50071 85.0065 9.24036 84.2912 9.24036C83.5524 9.24036 82.949 9.49472 82.4486 10.0184C81.9482 10.5271 81.6951 11.1945 81.6951 11.9995C81.6951 12.8044 81.9453 13.4748 82.4427 13.9805Z" fill="white"/>
<path fill-rule="evenodd" clip-rule="evenodd" d="M80.418 26.1063C77.6364 26.1063 75.3817 28.2519 75.3817 31.2115C75.3817 34.1442 77.6511 36.3168 80.418 36.3168C83.1995 36.3168 85.4542 34.1562 85.4542 31.2115C85.4542 28.2519 83.1995 26.1063 80.418 26.1063ZM80.418 34.2938C78.8962 34.2938 77.5864 33.013 77.5864 31.1996C77.5864 29.3592 78.8991 28.1053 80.418 28.1053C81.9397 28.1053 83.2496 29.3592 83.2496 31.1996C83.2525 33.025 81.9397 34.2938 80.418 34.2938ZM69.4301 26.1063C66.6485 26.1063 64.3938 28.2519 64.3938 31.2115C64.3938 34.1442 66.6632 36.3168 69.4301 36.3168C72.2116 36.3168 74.4663 34.1562 74.4663 31.2115C74.4663 28.2519 72.2087 26.1063 69.4301 26.1063ZM69.4301 34.2938C67.9083 34.2938 66.5985 33.013 66.5985 31.1996C66.5985 29.3592 67.9112 28.1053 69.4301 28.1053C70.9518 28.1053 72.2617 29.3592 72.2617 31.1996C72.2617 33.025 70.9518 34.2938 69.4301 34.2938ZM56.3552 27.6654V29.826H61.4562C61.3002 31.038 60.9058 31.9327 60.3024 32.5462C59.5548 33.3063 58.4009 34.1322 56.367 34.1322C53.2322 34.1322 50.7803 31.5587 50.7803 28.3716C50.7803 25.1846 53.2322 22.611 56.367 22.611C58.0595 22.611 59.2928 23.2903 60.2082 24.1582L61.7153 22.626C60.4437 21.3871 58.7512 20.4385 56.3788 20.4385C52.0784 20.4385 48.4697 23.9996 48.4697 28.3597C48.4697 32.7317 52.0755 36.2809 56.3788 36.2809C58.7012 36.2809 60.4437 35.5088 61.8212 34.0544C63.2253 32.627 63.6697 30.613 63.6697 28.9881C63.6697 28.4824 63.6315 28.0275 63.552 27.6415H56.3523C56.3552 27.6385 56.3552 27.6654 56.3552 27.6654ZM109.835 29.3472C109.414 28.2011 108.142 26.0943 105.534 26.0943C102.95 26.0943 100.801 28.1622 100.801 31.1996C100.801 34.0664 102.927 36.3048 105.785 36.3048C108.081 36.3048 109.417 34.8774 109.967 34.0395L108.263 32.8784C107.698 33.7312 106.912 34.2908 105.796 34.2908C104.669 34.2908 103.88 33.7701 103.356 32.7437L110.07 29.9158C110.07 29.9188 109.835 29.3472 109.835 29.3472ZM102.988 31.0529C102.935 29.0809 104.495 28.0784 105.611 28.0784C106.491 28.0784 107.224 28.5183 107.474 29.1587L102.988 31.0529ZM97.5341 35.9996H99.7388V21.0011H97.5341V35.9996ZM93.9137 27.2405H93.8342C93.3368 26.639 92.3919 26.0943 91.1851 26.0943C88.6802 26.0943 86.3726 28.3357 86.3726 31.2145C86.3726 34.0814 88.6685 36.2958 91.1851 36.2958C92.3772 36.2958 93.3368 35.7482 93.8342 35.1347H93.9137V35.8679C93.9137 37.816 92.8894 38.8664 91.2381 38.8664C89.8871 38.8664 89.0482 37.8789 88.7067 37.0529L86.7905 37.8669C87.341 39.2135 88.8098 40.8804 91.2352 40.8804C93.8195 40.8804 96.0094 39.3332 96.0094 35.5597V26.3996H93.9255V27.2405C93.9284 27.2405 93.9137 27.2405 93.9137 27.2405ZM91.3823 34.2938C89.8606 34.2938 88.589 33.0011 88.589 31.2145C88.589 29.413 89.8606 28.1083 91.3823 28.1083C92.8894 28.1083 94.0579 29.428 94.0579 31.2145C94.0726 33.0011 92.8923 34.2938 91.3823 34.2938ZM120.158 21.0011H114.886V35.9996H117.09V30.3198H120.16C122.601 30.3198 125 28.5213 125 25.6664C125 22.8115 122.609 21.0011 120.158 21.0011ZM120.222 28.225H117.087V23.0779H120.222C121.874 23.0779 122.807 24.4634 122.807 25.6514C122.807 26.8275 121.862 28.225 120.222 28.225ZM133.836 26.0794C132.235 26.0794 130.583 26.8006 129.9 28.3716L131.855 29.1976C132.276 28.3716 133.047 28.0903 133.862 28.0903C135.004 28.0903 136.158 28.7846 136.185 30.0235V30.1821C135.79 29.9547 134.925 29.6076 133.889 29.6076C131.778 29.6076 129.638 30.7806 129.638 32.9801C129.638 34.9941 131.369 36.2869 133.297 36.2869C134.778 36.2869 135.593 35.6076 136.102 34.8205H136.182V35.9816H138.307V30.236C138.307 27.5607 136.352 26.0794 133.836 26.0794ZM133.559 34.2938C132.838 34.2938 131.828 33.9347 131.828 33.013C131.828 31.8519 133.088 31.412 134.162 31.412C135.134 31.412 135.593 31.6245 136.17 31.9178C136.011 33.2644 134.892 34.2819 133.559 34.2938ZM146.06 26.3996L143.529 32.9053H143.449L140.826 26.3996H138.454L142.389 35.4938L140.147 40.5482H142.442L148.497 26.3996H146.06ZM126.215 35.9996H128.42V21.0011H126.215V35.9996Z" fill="white"/>
<path fill-rule="evenodd" clip-rule="evenodd" d="M12.3155 9.04076C11.9741 9.41482 11.7769 9.9864 11.7769 10.7345V37.2692C11.7769 38.0173 11.9741 38.5889 12.3273 38.948L12.4185 39.0288L27.0416 24.162V23.8298L12.4068 8.95996L12.3155 9.04076Z" fill="url(#paint0_linear_89_1286)"/>
<path fill-rule="evenodd" clip-rule="evenodd" d="M31.9069 29.1325L27.0295 24.1739V23.8268L31.9069 18.8682L32.0128 18.934L37.782 22.2677C39.4333 23.2133 39.4333 24.7754 37.782 25.733L32.0128 29.0667L31.9069 29.1325Z" fill="url(#paint1_linear_89_1286)"/>
<path fill-rule="evenodd" clip-rule="evenodd" d="M32.013 29.0663L27.0297 24L12.3154 38.9596C12.8541 39.5461 13.7577 39.612 14.7673 39.0404L32.013 29.0663Z" fill="url(#paint2_linear_89_1286)"/>
<path fill-rule="evenodd" clip-rule="evenodd" d="M32.013 18.9339L14.7673 8.97482C13.7577 8.38829 12.8511 8.46909 12.3154 9.05562L27.0297 24.0003L32.013 18.9339Z" fill="url(#paint3_linear_89_1286)"/>
<path opacity="0.2" fill-rule="evenodd" clip-rule="evenodd" d="M31.9071 28.959L14.7791 38.8522C13.8224 39.4118 12.9688 39.3729 12.4184 38.8642L12.3271 38.957L12.4184 39.0378C12.9688 39.5435 13.8224 39.5854 14.7791 39.0258L32.0248 29.0667L31.9071 28.959Z" fill="black"/>
<path opacity="0.12" fill-rule="evenodd" clip-rule="evenodd" d="M37.7822 25.5591L31.8923 28.9586L31.9983 29.0663L37.7675 25.7327C38.5946 25.2539 39.0008 24.6254 39.0008 24C38.9507 24.5746 38.5298 25.1192 37.7822 25.5591Z" fill="black"/>
<path opacity="0.25" fill-rule="evenodd" clip-rule="evenodd" d="M14.7674 9.14776L37.7822 22.4405C38.5299 22.8685 38.9508 23.4281 39.0155 23.9996C39.0155 23.3742 38.6093 22.7458 37.7822 22.267L14.7674 8.97419C13.1161 8.01359 11.7769 8.81559 11.7769 10.7338V10.9074C11.7769 8.98616 13.1161 8.19913 14.7674 9.14776Z" fill="white"/>
</g>
<defs>
<linearGradient id="paint0_linear_89_1286" x1="25.7299" y1="10.4482" x2="2.25569" y2="16.6004" gradientUnits="userSpaceOnUse">
<stop stop-color="#00A0FF"/>
<stop offset="0.00657" stop-color="#00A1FF"/>
<stop offset="0.2601" stop-color="#00BEFF"/>
<stop offset="0.5122" stop-color="#00D2FF"/>
<stop offset="0.7604" stop-color="#00DFFF"/>
<stop offset="1" stop-color="#00E3FF"/>
</linearGradient>
<linearGradient id="paint1_linear_89_1286" x1="39.9354" y1="24.0004" x2="11.3752" y2="24.0004" gradientUnits="userSpaceOnUse">
<stop stop-color="#FFE000"/>
<stop offset="0.4087" stop-color="#FFBD00"/>
<stop offset="0.7754" stop-color="#FFA500"/>
<stop offset="1" stop-color="#FF9C00"/>
</linearGradient>
<linearGradient id="paint2_linear_89_1286" x1="29.3033" y1="26.7568" x2="10.0358" y2="58.6539" gradientUnits="userSpaceOnUse">
<stop stop-color="#FF3A44"/>
<stop offset="1" stop-color="#C31162"/>
</linearGradient>
<linearGradient id="paint3_linear_89_1286" x1="8.61021" y1="0.21481" x2="17.2063" y2="14.4608" gradientUnits="userSpaceOnUse">
<stop stop-color="#32A071"/>
<stop offset="0.0685" stop-color="#2DA771"/>
<stop offset="0.4762" stop-color="#15CF74"/>
<stop offset="0.8009" stop-color="#06E775"/>
<stop offset="1" stop-color="#00F076"/>
</linearGradient>
<clipPath id="clip0_89_1286">
<rect width="160" height="48" fill="white"/>
</clipPath>
</defs>
</svg>
