<svg width="63" height="63" viewBox="0 0 63 63" fill="none" xmlns="http://www.w3.org/2000/svg">
<path d="M50.0361 37.2336L44.9386 43.8995C43.9187 45.2333 42.3355 46.0156 40.6565 46.0156H31.1915C30.4472 46.0156 29.8438 45.4122 29.8438 44.668C29.8438 43.9237 30.4472 43.3203 31.1915 43.3203H39.395C41.1582 43.3203 42.6348 41.8773 42.6011 40.1144C42.5684 38.406 41.1733 37.0312 39.4571 37.0312H30.0235C27.315 34.4269 23.1352 34.1222 20.0776 36.3062L19.0625 37.0312V52.3047H42.4996C45.2509 52.3047 47.8135 50.9056 49.3013 48.5913L54.5607 40.41C54.8475 39.9637 55 39.4445 55 38.914C55.0001 36.2685 51.6431 35.132 50.0361 37.2336Z" fill="white"/>
<path d="M15.0195 34.3359H10.3477C9.60339 34.3359 9 34.9393 9 35.6836V53.6523C9 54.3966 9.60339 55 10.3477 55H15.0195C15.7638 55 16.3672 54.3966 16.3672 53.6523V35.6836C16.3672 34.9393 15.7638 34.3359 15.0195 34.3359Z" fill="white"/>
<path d="M34.7232 16.4485C34.449 16.6587 34.2979 16.977 34.246 17.2531C34.1742 17.634 34.265 17.9878 34.4775 18.1544C34.5523 18.213 34.6348 18.2707 34.7232 18.3274V16.4485Z" fill="white"/>
<path d="M35.6836 31.4609C41.8761 31.4609 46.9141 26.4229 46.9141 20.2305C46.9141 14.038 41.8761 9 35.6836 9C29.4912 9 24.4532 14.038 24.4532 20.2305C24.4532 26.4229 29.4912 31.4609 35.6836 31.4609ZM32.284 23.9023C32.5556 23.4872 33.1125 23.3704 33.5278 23.6423C34.013 23.9597 34.3171 24.0973 34.7232 24.1544V20.3602C34.1494 20.0972 33.7205 19.8441 33.3685 19.5681C32.6229 18.9833 32.2825 17.9687 32.4801 16.9202C32.6953 15.7775 33.4907 14.8684 34.5557 14.5477C34.6121 14.5307 34.6679 14.5151 34.7232 14.5005V13.9414C34.7232 13.4453 35.1255 13.043 35.6217 13.043C36.1178 13.043 36.5201 13.4453 36.5201 13.9414V14.402C37.3924 14.5531 38.0089 14.9825 38.3075 15.3253C38.6335 15.6994 38.5943 16.2669 38.2202 16.5928C37.8481 16.9169 37.2847 16.8801 36.9578 16.5115C36.9373 16.4907 36.7946 16.3533 36.5201 16.252V19.155C36.6796 19.2142 36.839 19.2717 36.9954 19.327C38.5746 19.8853 39.453 21.3472 39.1812 22.9649C38.9698 24.2222 38.0129 25.4974 36.5201 25.8761V26.5195C36.5201 27.0156 36.1178 27.418 35.6217 27.418C35.1255 27.418 34.7232 27.0156 34.7232 26.5195V25.9623C33.9978 25.8996 33.3965 25.7037 32.5441 25.146C32.1288 24.8743 32.0124 24.3176 32.284 23.9023Z" fill="white"/>
<path d="M37.4091 22.667C37.4681 22.3158 37.4923 21.4789 36.52 21.0695V23.9554C37.0254 23.6659 37.3273 23.154 37.4091 22.667Z" fill="white"/>
</svg>
