<svg width="63" height="63" viewBox="0 0 63 63" fill="none" xmlns="http://www.w3.org/2000/svg">
<path d="M48.2635 15.7366C43.9194 11.3924 38.1435 9 32 9C25.8565 9 20.0806 11.3924 15.7365 15.7366C11.3924 20.0807 9 25.8565 9 32C9 38.1435 11.3924 43.9194 15.7365 48.2634C20.0806 52.6075 25.8565 55 32 55C38.1435 55 43.9194 52.6076 48.2635 48.2634C52.6076 43.9193 55 38.1435 55 32C55 25.8565 52.6076 20.0806 48.2635 15.7366ZM32 50.4855C21.807 50.4855 13.5145 42.193 13.5145 32C13.5145 31.9833 13.515 31.9668 13.5151 31.9502C13.5151 31.946 13.5145 31.942 13.5145 31.9377C13.5145 31.9306 13.5154 31.9238 13.5155 31.9168C13.5604 21.8459 21.6991 13.6525 31.7488 13.5177C31.7698 13.5167 31.7907 13.5146 31.812 13.5146C31.8247 13.5146 31.8371 13.5161 31.8498 13.5164C31.8999 13.5161 31.9499 13.5146 32.0001 13.5146C42.1931 13.5146 50.4856 21.8071 50.4856 32.0001C50.4856 42.193 42.193 50.4855 32 50.4855Z" fill="white"/>
<path d="M46.0414 33.1105C45.2898 33.1105 44.6805 32.5011 44.6805 31.7495C44.6805 30.9979 45.2898 30.3886 46.0414 30.3886H47.6819C46.9114 22.8349 40.7853 16.8426 33.1728 16.2799V17.708C33.1728 18.4596 32.5635 19.069 31.8119 19.069C31.0602 19.069 30.4509 18.4596 30.4509 17.708V16.3125C22.9511 17.0474 16.9771 23.0599 16.3012 30.5766H17.7704C18.522 30.5766 19.1313 31.1859 19.1313 31.9376C19.1313 32.6892 18.522 33.2985 17.7704 33.2985H16.2901C16.9159 40.9362 23.0096 47.0486 30.639 47.7042V45.979C30.639 45.2273 31.2484 44.618 32 44.618C32.7516 44.618 33.361 45.2273 33.361 45.979V47.7042C41.0528 47.0433 47.1837 40.8356 47.724 33.1105H46.0414ZM37.5092 28.4154L32.9624 32.9623C32.7072 33.2176 32.3611 33.361 32.0001 33.361C31.6392 33.361 31.2929 33.2176 31.0378 32.9623L23.1232 25.0477C22.5917 24.5163 22.5917 23.6546 23.1232 23.1231C23.6546 22.5916 24.5163 22.5916 25.0478 23.1231L32.0002 30.0754L35.5848 26.4908C36.1162 25.9593 36.9779 25.9593 37.5094 26.4908C38.0407 27.0222 38.0407 27.884 37.5092 28.4154Z" fill="white"/>
</svg>
