<svg width="63" height="63" viewBox="0 0 63 63" fill="none" xmlns="http://www.w3.org/2000/svg">
<path d="M20.016 40.2875H25.1431V35.3016C24.8139 35.3016 24.4981 35.1703 24.2653 34.9366C24.0325 34.7028 23.9017 34.3857 23.9017 34.0552C23.9017 33.7246 24.0325 33.4075 24.2653 33.1738C24.4981 32.94 24.8139 32.8087 25.1431 32.8087H40.0404C40.3697 32.8087 40.6854 32.94 40.9183 33.1738C41.1511 33.4075 41.2819 33.7246 41.2819 34.0552C41.2819 34.3857 41.1511 34.7028 40.9183 34.9366C40.6854 35.1703 40.3697 35.3016 40.0404 35.3016V40.2875H45.1303C46.4346 40.2794 47.7244 40.0133 48.9263 39.5046C50.1281 38.9959 51.2184 38.2545 52.1348 37.3228C53.0513 36.391 53.776 35.2872 54.2676 34.0742C54.7591 32.8612 55.008 31.5629 54.9998 30.2534C54.9917 28.9439 54.7267 27.6488 54.2201 26.4421C53.7134 25.2354 52.975 24.1407 52.047 23.2205C51.119 22.3004 50.0196 21.5727 48.8116 21.0791C47.6035 20.5856 46.3104 20.3358 45.0062 20.3439C44.7471 17.4628 43.498 14.7618 41.4729 12.7039C39.4479 10.6461 36.773 9.35958 33.9068 9.06487C31.0405 8.77016 28.1615 9.48562 25.763 11.0886C23.3646 12.6916 21.5962 15.0823 20.7608 17.851C13.1508 17.851 9.00437 23.3853 9.00437 28.9072C8.9629 30.3857 9.21698 31.8576 9.75161 33.2359C10.2862 34.6142 11.0906 35.8708 12.1171 36.9317C13.1436 37.9926 14.3715 38.8362 15.7282 39.4126C17.0848 39.9889 18.5428 40.2865 20.016 40.2875ZM37.5575 27.8228C37.8868 27.8228 38.2026 27.9541 38.4354 28.1879C38.6682 28.4216 38.799 28.7387 38.799 29.0693C38.799 29.3999 38.6682 29.7169 38.4354 29.9507C38.2026 30.1844 37.8868 30.3157 37.5575 30.3157C37.2283 30.3157 36.9125 30.1844 36.6797 29.9507C36.4469 29.7169 36.3161 29.3999 36.3161 29.0693C36.3161 28.7387 36.4469 28.4216 36.6797 28.1879C36.9125 27.9541 37.2283 27.8228 37.5575 27.8228ZM32.5918 27.8228C32.921 27.8228 33.2368 27.9541 33.4696 28.1879C33.7024 28.4216 33.8332 28.7387 33.8332 29.0693C33.8332 29.3999 33.7024 29.7169 33.4696 29.9507C33.2368 30.1844 32.921 30.3157 32.5918 30.3157C32.2625 30.3157 31.9468 30.1844 31.7139 29.9507C31.4811 29.7169 31.3503 29.3999 31.3503 29.0693C31.3503 28.7387 31.4811 28.4216 31.7139 28.1879C31.9468 27.9541 32.2625 27.8228 32.5918 27.8228ZM27.626 27.8228C27.9553 27.8228 28.271 27.9541 28.5038 28.1879C28.7367 28.4216 28.8674 28.7387 28.8674 29.0693C28.8674 29.3999 28.7367 29.7169 28.5038 29.9507C28.271 30.1844 27.9553 30.3157 27.626 30.3157C27.2968 30.3157 26.981 30.1844 26.7482 29.9507C26.5154 29.7169 26.3846 29.3999 26.3846 29.0693C26.3846 28.7387 26.5154 28.4216 26.7482 28.1879C26.981 27.9541 27.2968 27.8228 27.626 27.8228Z" fill="white"/>
<path d="M37.5575 35.3016H27.626V46.0089L26.0245 44.3884C25.7908 44.1537 25.4737 44.0219 25.1431 44.0219C24.8125 44.0219 24.4955 44.1537 24.2617 44.3884C24.0279 44.6232 23.8966 44.9415 23.8966 45.2734C23.8966 45.6054 24.0279 45.9237 24.2617 46.1584C32.3435 54.2605 31.8469 53.9988 32.5918 53.9988C33.3366 53.9988 32.8276 54.2854 40.9219 46.1584C41.1556 45.9237 41.2869 45.6054 41.2869 45.2734C41.2869 44.9415 41.1556 44.6232 40.9219 44.3884C40.6881 44.1537 40.371 44.0219 40.0404 44.0219C39.7098 44.0219 39.3928 44.1537 39.159 44.3884L37.5575 46.0089V35.3016Z" fill="white"/>
</svg>
