<svg width="63" height="63" viewBox="0 0 63 63" fill="none" xmlns="http://www.w3.org/2000/svg">
<path d="M41.4997 37.1765H45.9616C50.394 37.1765 54 33.4997 54 28.9804C54 24.461 50.394 20.7842 45.9616 20.7842C44.756 20.7842 43.597 21.0496 42.5169 21.5727C42.353 21.652 42.1767 21.6724 42.0105 21.643C41.9972 21.642 41.984 21.6422 41.9706 21.6405C41.5069 21.5815 41.1779 21.1505 41.2357 20.6776C41.2836 20.2866 41.3077 19.8872 41.3077 19.4902C41.3077 14.2572 37.1323 10 32 10C26.8677 10 22.6923 14.2572 22.6923 19.4902C22.6923 19.8872 22.7165 20.2866 22.7643 20.6776C22.8221 21.1505 22.4931 21.5815 22.0294 21.6405C22.0159 21.6422 22.0025 21.642 21.9891 21.643C21.823 21.6722 21.6469 21.652 21.4831 21.5727C20.403 21.0496 19.244 20.7842 18.0384 20.7842C13.606 20.7842 10 24.461 10 28.9804C10 33.4997 13.606 37.1765 18.0384 37.1765H22.5003C21.5056 34.6629 21 32.0147 21 29.3012V26.3922C21 26.0756 21.1701 25.7844 21.4432 25.6335L31.597 20.0257C31.8485 19.8868 32.1516 19.8868 32.403 20.0257L42.5568 25.6335C42.8298 25.7844 43 26.0756 43 26.3922V29.3012C43 32.0146 42.4944 34.6629 41.4997 37.1765Z" fill="white"/>
<path d="M29.488 29.9806C29.3285 31.1333 29.9315 32.2616 30.9885 32.7881C31.3279 32.9572 31.5163 33.3351 31.4503 33.7142L30.4713 39.3334H33.5316L32.5583 33.6581C32.4916 33.2701 32.6914 32.8854 33.0435 32.7231C33.9516 32.3049 34.5385 31.3782 34.5385 30.3622C34.5385 29.6253 34.2291 28.9211 33.6897 28.4303C33.1427 27.9326 32.4351 27.7056 31.6977 27.7917C30.5748 27.9223 29.6455 28.8429 29.488 29.9806Z" fill="white"/>
<path d="M13.8077 54C15.4434 54 16.7693 52.6481 16.7693 50.9804C16.7693 49.3126 15.4434 47.9607 13.8077 47.9607C12.1721 47.9607 10.8461 49.3126 10.8461 50.9804C10.8461 52.6481 12.1721 54 13.8077 54Z" fill="white"/>
<path d="M50.6153 54C52.251 54 53.5769 52.6481 53.5769 50.9804C53.5769 49.3126 52.251 47.9607 50.6153 47.9607C48.9797 47.9607 47.6538 49.3126 47.6538 50.9804C47.6538 52.6481 48.9797 54 50.6153 54Z" fill="white"/>
<path d="M22.6923 26.906V29.3012C22.6923 34.4646 24.6643 39.3189 28.2449 42.9701L32 46.7992L35.7551 42.9701C37.1598 41.5377 38.3156 39.9196 39.2032 38.1709C39.2194 38.1162 39.4228 37.6981 39.6238 37.2877C40.7263 34.8114 41.3077 32.102 41.3077 29.3012V26.9061L32 21.7656L22.6923 26.906ZM36.2308 30.3622C36.2308 31.8238 35.502 33.1745 34.3288 33.9647L35.372 40.0475C35.4151 40.2985 35.3471 40.5561 35.1863 40.7511C35.0255 40.9462 34.7884 41.0589 34.5385 41.0589H29.4616C29.2112 41.0589 28.9738 40.9458 28.8131 40.7502C28.6523 40.5546 28.5848 40.2965 28.6285 40.0452L29.681 34.0038C28.3186 33.0553 27.5803 31.4157 27.8124 29.7394C28.0759 27.8358 29.6292 26.2956 31.5059 26.0773C32.7115 25.9371 33.918 26.3254 34.8165 27.1429C35.7152 27.9607 36.2308 29.134 36.2308 30.3622Z" fill="white"/>
<path d="M20.1539 50.1176H17.5251V51.8431H21C21.4673 51.8431 21.8461 51.4568 21.8461 50.9804V38.9019H20.1539V50.1176Z" fill="white"/>
<path d="M44.2692 50.1176V38.9019H42.5769V50.9804C42.5769 51.4568 42.9557 51.8431 43.4231 51.8431H46.898V50.1176H44.2692Z" fill="white"/>
</svg>
