<svg width="61" height="68" viewBox="0 0 61 68" fill="none" xmlns="http://www.w3.org/2000/svg">
<path d="M59.2731 9.51696C59.1523 8.64021 58.5279 7.91902 57.684 7.68198L30.6343 0.0813411C30.2487 -0.0271041 29.8413 -0.0271041 29.4554 0.0813411L2.40572 7.68198C1.56174 7.91902 0.937401 8.63992 0.816581 9.51696C0.659691 10.6568 -2.91947 37.5891 6.26083 50.9872C15.4303 64.3692 28.9572 67.7985 29.5284 67.9381C29.6982 67.9796 29.8712 68 30.0448 68C30.2185 68 30.3915 67.9793 30.5613 67.9381C31.1328 67.7985 44.6597 64.3692 53.8289 50.9872C63.0092 37.5894 59.43 10.6571 59.2731 9.51696Z" fill="#55AF59"/>
<g clip-path="url(#clip0_1_43636)">
<path d="M31.9409 25.5703H28.1816C27.0113 26.8327 25.5422 27.8052 23.8905 28.413V33.0732C23.8905 37.0144 26.3014 40.5487 30.0613 42.1666C33.8211 40.5487 36.232 37.0144 36.232 33.0732V28.4136C34.5799 27.8057 33.1112 26.8332 31.9409 25.5703ZM34.3867 32.1226L29.3782 36.8621C29.221 37.0109 29.0149 37.0855 28.8094 37.0855C28.6034 37.0855 28.3973 37.0108 28.2401 36.8621L25.7359 34.4926C25.422 34.1951 25.422 33.7126 25.7359 33.4151C26.0503 33.118 26.5601 33.118 26.8745 33.4151L28.8094 35.2462L33.2486 31.0456C33.5625 30.748 34.0723 30.748 34.3867 31.0456C34.7006 31.3431 34.7006 31.825 34.3867 32.1226ZM40.2516 24.5547C37.9314 24.5547 35.8183 23.3481 34.7355 21.4062C34.5964 21.1564 34.3223 21 34.0239 21H26.0985C25.8002 21 25.526 21.1564 25.3865 21.4062C24.3043 23.3481 22.1912 24.5547 19.8662 24.5547C19.4219 24.5547 19.0613 24.8959 19.0613 25.3164V33.0732C19.0613 36.1917 20.091 39.1695 22.0388 41.6847C23.9866 44.1999 26.6765 46.0255 29.8187 46.9645C29.8976 46.9883 29.9797 47 30.0613 47C30.1428 47 30.2249 46.9883 30.3038 46.9645C33.4461 46.0255 36.136 44.2 38.0838 41.6847C40.0316 39.1695 41.0613 36.1917 41.0613 33.0732V25.3164C41.0613 24.8959 40.6959 24.5547 40.2516 24.5547ZM37.8418 33.0387C37.8418 37.7035 34.9093 41.8752 30.3709 43.6662C30.2716 43.7054 30.1665 43.7246 30.0613 43.7246C29.9561 43.7246 29.8504 43.7053 29.7517 43.6662C25.2132 41.8752 22.2808 37.7034 22.2808 33.0387V27.8428C22.2808 27.5137 22.504 27.2217 22.8345 27.1191C24.5425 26.5875 26.0471 25.6099 27.1852 24.2921C27.3381 24.1149 27.5672 24.0123 27.8087 24.0123H32.3139C32.5607 24.0123 32.8515 24.1931 32.9373 24.2921C34.0754 25.6099 35.58 26.5875 37.288 27.1191C37.5236 27.1923 37.7038 27.3614 37.7886 27.5721C37.7897 27.5741 37.7902 27.5767 37.7913 27.5787C37.8117 27.631 37.8262 27.6859 37.8343 27.7422C37.8348 27.7478 37.8358 27.7539 37.8364 27.7595C37.8396 27.7869 37.8418 27.8143 37.8418 27.8428V33.0387Z" fill="white"/>
</g>
<defs>
<clipPath id="clip0_1_43636">
<rect width="22.0329" height="26" fill="white" transform="matrix(-1 0 0 1 41.0613 21)"/>
</clipPath>
</defs>
</svg>
