<svg width="73" height="63" viewBox="0 0 73 63" fill="none" xmlns="http://www.w3.org/2000/svg">
<path d="M53.3812 5.13122C54.0967 5.27376 54.8123 5.41629 55.5278 5.70136C56.1003 5.98643 56.6727 6.41403 56.959 6.98416C55.8141 7.69683 54.3829 7.1267 53.0949 6.55656C52.5225 6.27149 51.8069 5.84389 51.5207 5.70136C51.0913 5.41629 50.8051 5.27376 50.8051 5.27376C50.8051 5.27376 51.95 4.98869 53.3812 5.13122ZM60.6799 40.052C60.5368 39.9095 60.5368 39.767 60.3937 39.4819C60.2506 39.1968 60.1075 38.7692 60.1075 38.4842C59.9644 38.1991 59.9644 37.7715 59.9644 37.4864C59.9644 37.3439 59.9644 37.2014 59.9644 37.0588C59.9644 36.9163 59.9644 36.7738 59.9644 36.6312C59.9644 36.0611 59.9644 35.776 59.9644 35.776C59.9644 35.776 60.2506 35.9185 60.823 36.3461C61.1093 36.4887 61.3955 36.7738 61.6817 36.9163C61.9679 37.2014 62.2542 37.3439 62.5404 37.7715C62.8266 38.0566 62.9697 38.3416 63.256 38.7692C63.3991 38.9118 63.3991 39.0543 63.5422 39.3394C63.5422 39.4819 63.6853 39.6244 63.6853 39.9095C63.6853 40.3371 63.6853 40.6222 63.6853 41.0498C63.6853 41.1923 63.5422 41.3348 63.3991 41.6199C63.2559 41.7624 63.1128 41.905 62.9697 42.19C62.111 42.0475 61.5386 41.4774 61.1093 40.9072C61.1093 40.7647 60.9661 40.7647 60.9661 40.6222C60.6799 40.1946 60.6799 40.052 60.6799 40.052ZM60.6799 44.3281C60.6799 44.7557 60.5368 45.0407 60.3937 45.4683C60.2506 45.6109 60.2506 45.7534 59.9644 46.0385C59.8212 46.181 59.6781 46.3235 59.3919 46.4661C58.5332 46.181 58.1039 45.6109 57.9608 44.8982C57.9608 44.7556 57.8177 44.6131 57.8177 44.3281C57.8177 44.1855 57.8177 43.9005 57.6745 43.7579C57.6745 43.3303 57.6745 43.0452 57.6745 42.6176C57.6745 42.19 57.6745 41.905 57.6745 41.6199C57.6745 41.3348 57.8177 41.0498 57.8177 40.7647C57.8177 40.1946 57.9608 39.9095 57.9608 39.9095C57.9608 39.9095 58.247 40.1946 58.6763 40.4796C58.8194 40.6222 59.1057 40.9072 59.3919 41.1923C59.535 41.3348 59.6781 41.4774 59.6781 41.6199C59.8212 41.7624 59.8212 41.905 59.9644 42.0475C60.1075 42.3326 60.3937 42.7602 60.3937 43.0452C60.3937 43.1878 60.5368 43.4729 60.5368 43.6154C60.6799 44.043 60.6799 44.1855 60.6799 44.3281ZM62.3973 35.4909C62.111 35.2059 61.9679 34.9208 61.6817 34.6357C61.5386 34.3507 61.3955 33.9231 61.2524 33.638C60.9661 32.9253 60.6799 32.3552 60.6799 31.7851C60.5368 31.3575 60.5368 30.9299 60.5368 30.9299C60.5368 30.9299 60.823 31.0724 61.3955 31.3575C61.6817 31.5 61.9679 31.6425 62.2542 31.9276C62.5404 32.0701 62.8266 32.3552 63.1128 32.6403C63.6853 33.2104 64.2577 33.7805 64.544 34.4932C64.6871 34.7783 64.8302 35.2059 64.8302 35.4909C64.8302 35.9185 64.6871 36.2036 64.544 36.4887C63.5422 36.4887 62.8266 36.0611 62.3973 35.4909ZM63.5422 30.9299C63.3991 30.7873 63.256 30.6448 63.1128 30.5023C62.9697 30.3597 62.8266 30.2172 62.6835 30.0747C62.3973 29.7896 62.2542 29.5045 62.111 29.0769C61.9679 28.9344 61.9679 28.7919 61.8248 28.6493C61.6817 28.5068 61.6817 28.3643 61.5386 28.2217C61.3955 27.9366 61.2524 27.6516 61.1093 27.3665C60.9661 26.9389 60.823 26.5113 60.823 26.5113C60.823 26.5113 61.2524 26.6538 61.6817 26.9389C62.2542 27.224 62.8266 27.5091 63.5422 27.9367C63.8284 28.2217 64.2577 28.3643 64.544 28.6493C64.8302 28.9344 65.1164 29.2195 65.2595 29.5045C65.4026 29.7896 65.5458 30.2172 65.6889 30.5023C65.6889 30.7873 65.6889 31.2149 65.5458 31.5C64.6871 31.7851 64.1146 31.3575 63.5422 30.9299ZM63.8284 25.9412C63.5422 25.7986 63.256 25.5136 62.9697 25.2285C62.6835 24.9434 62.5404 24.6584 62.2542 24.3733C61.9679 24.0882 61.8248 23.8032 61.6817 23.5181C61.5386 23.233 61.3955 22.948 61.2524 22.8054C61.1093 22.5204 61.1093 22.3778 60.9661 22.2353C60.9661 22.0928 60.823 22.0928 60.823 22.0928C60.823 22.0928 60.9661 22.0928 61.1093 22.0928C61.2524 22.0928 61.5386 22.2353 61.6817 22.2353C62.2542 22.3778 62.9697 22.6629 63.5422 23.0905C63.6853 23.233 63.8284 23.233 64.1146 23.3756C64.2577 23.5181 64.4008 23.6606 64.544 23.6606C64.8302 23.9457 65.1164 24.2308 65.2595 24.5158C65.6889 25.086 65.832 25.7986 65.6889 26.5113C65.1164 26.6538 64.4008 26.3688 63.8284 25.9412ZM65.4026 20.9525C64.6871 21.095 63.9715 20.9525 63.256 20.5249C62.6835 20.2398 62.111 19.6697 61.5386 19.2421C61.3955 19.0995 61.2524 18.957 61.2524 18.8145C61.1093 18.6719 60.9661 18.5294 60.9661 18.5294C60.823 18.2443 60.5368 18.1018 60.3937 17.9593C60.2506 17.6742 60.1075 17.5317 60.1075 17.3891C59.9644 17.2466 59.9644 17.2466 59.9644 17.2466C59.9644 17.2466 60.2506 17.2466 60.823 17.3891C61.3955 17.5317 62.111 17.6742 62.8266 17.9593C63.1128 18.1018 63.5422 18.2443 63.8284 18.5294C64.1146 18.6719 64.4009 18.957 64.6871 19.2421C64.8302 19.3846 64.9733 19.5271 64.9733 19.6697C65.1164 19.8122 65.1164 19.9548 65.2595 20.0973C65.4026 20.2398 65.4026 20.6674 65.4026 20.9525ZM61.3955 15.8213C60.6799 15.5362 60.1075 15.2511 59.535 14.8235C58.9626 14.3959 58.3901 14.1109 58.1039 13.6833C57.6745 13.3982 57.5314 13.1131 57.5314 13.1131C57.5314 13.1131 57.8177 13.1131 58.3901 13.1131C58.6763 13.1131 58.9626 13.1131 59.2488 13.1131C59.535 13.1131 59.9643 13.2557 60.2506 13.2557C60.6799 13.3982 60.9661 13.3982 61.3955 13.5407C61.5386 13.5407 61.6817 13.6833 61.9679 13.8258C62.111 13.9683 62.2542 13.9683 62.3973 14.1109C62.9697 14.5385 63.3991 15.1086 63.3991 15.6787C62.8266 16.1063 62.111 15.9638 61.3955 15.8213ZM59.535 11.4027C59.2488 11.4027 58.8195 11.4027 58.5332 11.4027C58.247 11.4027 57.8177 11.2602 57.5314 11.1176C57.2452 10.9751 56.8159 10.8326 56.5296 10.69C55.8141 10.405 55.2416 10.1199 54.8123 9.83484C54.3829 9.54977 54.0967 9.40724 54.0967 9.40724C54.0967 9.40724 54.3829 9.40724 54.9554 9.26471C55.5278 9.26471 56.2434 9.12217 56.959 9.26471C57.6745 9.26471 58.5332 9.40724 59.1057 9.83484C59.6781 10.1199 60.2506 10.5475 60.5368 11.2602C60.2506 11.2602 59.8212 11.4027 59.535 11.4027ZM57.2452 47.6063C57.2452 47.7489 57.2452 48.0339 57.2452 48.1765C57.2452 48.319 57.2452 48.319 57.2452 48.4615C57.2452 48.6041 57.2452 48.6041 57.1021 48.7466C56.959 49.1742 56.8159 49.4593 56.5296 49.7443C56.3865 49.8869 56.2434 50.0294 56.1003 50.1719C55.9572 50.3145 55.671 50.457 55.3847 50.5995C54.6692 50.1719 54.3829 49.4593 54.2398 48.7466C54.2398 48.319 54.2398 48.0339 54.2398 47.6063C54.2398 47.4638 54.2398 47.1787 54.3829 47.0362C54.3829 46.8937 54.3829 46.8937 54.5261 46.7511V46.4661C54.6692 46.0385 54.6692 45.7534 54.8123 45.4683C54.8123 45.3258 54.9554 45.1833 54.9554 45.0407C54.9554 44.8982 55.0985 44.7557 55.0985 44.6131C55.2416 44.043 55.3847 43.7579 55.3847 43.7579C55.3847 43.7579 55.671 44.043 55.9572 44.4706C56.1003 44.7556 56.2434 45.0407 56.3865 45.3258C56.5296 45.6109 56.6727 46.0385 56.8159 46.3235C57.1021 46.8937 57.2452 47.1787 57.2452 47.6063ZM49.6602 52.4525C49.6602 52.0249 49.8033 51.7398 49.9464 51.3122C49.9464 51.1697 50.0896 51.1697 50.0896 51.0271C50.0896 50.8846 50.2327 50.8846 50.2327 50.7421C50.3758 50.5995 50.3758 50.3145 50.5189 50.1719C50.662 49.7443 50.9482 49.4593 51.0913 49.1742C51.2345 48.8891 51.5207 48.6041 51.6638 48.319C51.8069 48.0339 51.95 47.8914 52.0931 47.7489L52.2362 47.6063C52.2362 47.6063 52.2362 47.7489 52.3794 47.8914C52.3794 48.0339 52.5225 48.1765 52.6656 48.4615C52.8087 49.0317 52.9518 49.7443 52.9518 50.457C52.9518 50.8846 52.9518 51.3122 52.8087 51.5973C52.6656 52.0249 52.5225 52.4525 52.3794 52.7376C52.3794 52.8801 52.2362 52.8801 52.2362 53.0226C52.2362 53.1652 52.0931 53.1652 52.0931 53.3077C51.95 53.4502 51.8069 53.5928 51.6638 53.7353C51.2345 54.0204 50.8051 54.3054 50.3758 54.448C49.6602 54.0204 49.5171 53.3077 49.6602 52.4525ZM21.7532 50.8846C21.7532 51.0271 21.8963 51.0271 21.8963 51.1697C21.8963 51.3122 22.0394 51.3122 22.0394 51.4548C22.1825 51.8824 22.3256 52.1674 22.3256 52.595C22.4687 53.3077 22.3256 54.0204 21.6101 54.5905C21.0376 54.448 20.6083 54.1629 20.322 53.8778C20.1789 53.7353 20.0358 53.5928 19.8927 53.4502C19.7496 53.3077 19.7496 53.3077 19.7496 53.1652C19.7496 53.0226 19.6065 53.0226 19.6065 52.8801C19.4634 52.4525 19.3203 52.1674 19.1771 51.7398C19.034 51.3122 19.034 50.8846 19.034 50.5995C19.034 49.7443 19.3203 49.0317 19.4634 48.6041C19.6065 48.319 19.6065 48.1765 19.7496 48.0339C19.7496 47.8914 19.8927 47.7489 19.8927 47.7489C19.8927 47.7489 19.8927 47.8914 20.0358 47.8914C20.1789 48.0339 20.322 48.1765 20.4652 48.4615C20.6083 48.7466 20.7514 49.0317 21.0376 49.3167C21.1807 49.6018 21.467 50.0294 21.6101 50.3145C21.467 50.457 21.6101 50.5995 21.7532 50.8846ZM21.3238 5.13122C21.3238 5.13122 21.0376 5.27376 20.6083 5.55882C20.1789 5.84389 19.6065 6.12896 19.034 6.41403C17.746 6.98416 16.1718 7.5543 15.17 6.84163C15.4562 6.27149 15.8855 5.84389 16.6011 5.55882C17.1736 5.27376 18.0322 5.13122 18.7478 4.98869C20.0358 4.98869 21.3238 5.13122 21.3238 5.13122ZM17.0304 9.83484C16.6011 10.1199 16.0287 10.405 15.3131 10.69C15.0269 10.8326 14.5975 10.9751 14.3113 11.1176C14.0251 11.2602 13.5957 11.4027 13.3095 11.4027C13.0233 11.4027 12.5939 11.5452 12.3077 11.4027C12.0215 11.4027 11.7353 11.2602 11.3059 11.1176C11.5922 10.5475 12.0215 10.1199 12.7371 9.69231C13.4526 9.40724 14.1682 9.26471 14.8838 9.12217C15.5993 9.12217 16.3149 9.12217 16.8873 9.12217C17.4598 9.12217 17.746 9.26471 17.746 9.26471C17.746 9.26471 17.6029 9.54977 17.0304 9.83484ZM17.6029 48.8891C17.6029 49.6018 17.3167 50.3145 16.458 50.7421C16.1718 50.5995 16.0287 50.457 15.8855 50.3145C15.7424 50.1719 15.5993 50.0294 15.4562 49.8869C15.17 49.6018 15.0269 49.1742 14.8838 48.8891C14.8838 48.7466 14.8838 48.7466 14.7406 48.6041C14.7406 48.4615 14.7406 48.4615 14.7406 48.319C14.7406 48.1765 14.7406 47.8914 14.7406 47.7489C14.7406 47.3213 14.8838 47.0362 14.8838 46.6086C15.0269 46.3235 15.17 45.8959 15.3131 45.6109C15.4562 45.3258 15.5993 45.0407 15.7424 44.7557C16.0287 44.328 16.3149 44.043 16.3149 44.043C16.3149 44.043 16.458 44.328 16.6011 44.8982C16.6011 45.0407 16.7442 45.1833 16.7442 45.3258C16.7442 45.4683 16.8873 45.6109 16.8873 45.7534C17.0304 46.0385 17.1736 46.4661 17.1736 46.7511V47.0362C17.1736 47.1787 17.1736 47.1787 17.3167 47.3213C17.3167 47.4638 17.4598 47.7489 17.4598 47.8914C17.6029 48.1765 17.6029 48.4615 17.6029 48.8891ZM7.15565 23.8032C7.29876 23.6606 7.44188 23.5181 7.58499 23.5181C7.7281 23.3756 7.87121 23.3756 8.15744 23.233C8.87301 22.8054 9.58857 22.5204 10.0179 22.3778C10.3041 22.2353 10.4472 22.2353 10.5904 22.2353C10.7335 22.2353 10.8766 22.2353 10.8766 22.2353C10.8766 22.2353 10.8766 22.3778 10.7335 22.3778C10.7335 22.5204 10.5904 22.6629 10.4473 22.948C10.3041 23.233 10.161 23.3756 10.0179 23.6606C9.8748 23.9457 9.73168 24.2308 9.44546 24.5158C9.30235 24.8009 9.01612 25.086 8.72989 25.371C8.44367 25.6561 8.15744 25.9412 7.87121 26.0837C7.29876 26.5113 6.5832 26.7964 5.72452 26.6538C5.58141 25.9412 5.72452 25.2285 6.15386 24.6584C6.5832 24.3733 6.86942 24.0882 7.15565 23.8032ZM6.72631 19.9548C6.72631 19.8122 6.86942 19.6697 7.01254 19.5271C7.01254 19.3846 7.15565 19.2421 7.29876 19.0995C7.58499 18.8145 7.87121 18.6719 8.15744 18.3869C8.44367 18.2443 8.873 17.9593 9.15923 17.8167C9.8748 17.5317 10.5904 17.3891 11.1628 17.2466C11.7353 17.1041 12.0215 17.1041 12.0215 17.1041C12.0215 17.1041 12.0215 17.1041 11.8784 17.2466C11.7353 17.3891 11.7353 17.5317 11.5922 17.6742C11.449 17.8167 11.3059 18.1018 11.0197 18.2443C10.8766 18.3869 10.8766 18.5294 10.7335 18.5294C10.5904 18.6719 10.4473 18.8145 10.4473 18.957C9.8748 19.6697 9.30235 20.2398 8.58678 20.5249C8.01433 20.81 7.29876 21.095 6.44008 20.9525C6.5832 20.6674 6.5832 20.2398 6.72631 19.9548ZM6.5832 29.6471C6.72631 29.362 7.01254 29.0769 7.29876 28.7919C7.58499 28.5068 7.87122 28.2217 8.30055 28.0792C9.01612 27.6516 9.58857 27.224 10.161 27.0814C10.7335 26.7964 11.0197 26.6538 11.0197 26.6538C11.0197 26.6538 10.8766 26.9389 10.7335 27.509C10.5904 27.7941 10.5904 28.0792 10.3041 28.3643C10.161 28.5068 10.161 28.6493 10.0179 28.7919C10.0179 28.9344 9.8748 29.0769 9.8748 29.2195C9.73168 29.5045 9.44546 29.7896 9.30234 30.2172C9.15923 30.3597 9.01612 30.5023 8.87301 30.6448C8.72989 30.7873 8.58678 30.9299 8.44367 31.0724C7.87121 31.5 7.15565 31.9276 6.29697 31.7851C6.15386 31.3575 6.15386 31.0724 6.15386 30.7873C6.29697 30.2172 6.44008 29.9321 6.5832 29.6471ZM7.44188 34.3507C7.7281 33.638 8.30055 33.0679 8.87301 32.4977C9.15923 32.2127 9.44546 32.0701 9.73168 31.7851C10.0179 31.6425 10.3041 31.3575 10.5904 31.2149C11.1628 30.9299 11.449 30.7873 11.449 30.7873C11.449 30.7873 11.449 31.0724 11.3059 31.6425C11.1628 32.0701 11.0197 32.7828 10.7335 33.4955C10.5904 33.7805 10.4472 34.2081 10.3041 34.4932C10.161 34.7783 9.8748 35.0634 9.58857 35.3484C9.15923 35.9186 8.44367 36.3461 7.58499 36.3461C7.29876 36.2036 7.15565 35.776 7.15565 35.4909C7.15565 35.0633 7.29876 34.7783 7.44188 34.3507ZM8.58678 39.6244C8.58678 39.4819 8.72989 39.1968 8.72989 39.0543C8.72989 38.9118 8.87301 38.7692 9.01612 38.4842C9.15923 38.1991 9.44546 37.7715 9.73168 37.4864C10.0179 37.2014 10.3041 36.9163 10.5904 36.6312C10.8766 36.3461 11.1628 36.2036 11.449 36.0611C11.8784 35.776 12.3077 35.4909 12.3077 35.4909C12.3077 35.4909 12.3077 35.776 12.3077 36.3461C12.3077 36.4887 12.3077 36.6312 12.3077 36.7738C12.3077 36.9163 12.3077 37.0588 12.3077 37.2014C12.3077 37.4864 12.1646 37.914 12.1646 38.1991C12.1646 38.4842 12.0215 38.9118 11.8784 39.1968C11.8784 39.3394 11.7353 39.4819 11.5922 39.767C11.5922 39.9095 11.449 39.9095 11.449 40.052C11.449 40.1946 11.3059 40.1946 11.3059 40.3371C10.8766 40.9072 10.3041 41.4774 9.44546 41.6199C9.30235 41.4774 9.15923 41.3348 9.01612 41.0498C8.87301 40.9072 8.87301 40.7647 8.72989 40.4796C8.58678 40.3371 8.58678 40.052 8.58678 39.6244ZM11.3059 43.7579C11.3059 43.6154 11.449 43.3303 11.449 43.1878C11.5922 42.7602 11.7353 42.4751 11.8784 42.19C12.0215 42.0475 12.0215 41.905 12.1646 41.7624C12.3077 41.6199 12.4508 41.4774 12.4508 41.3348C12.7371 41.0498 12.8802 40.7647 13.1664 40.6222C13.5957 40.1946 13.882 40.052 13.882 40.052C13.882 40.052 13.882 40.3371 14.0251 40.9072C14.0251 41.1923 14.0251 41.4774 14.1682 41.7624C14.1682 42.0475 14.1682 42.4751 14.1682 42.7602C14.1682 43.0452 14.1682 43.4729 14.1682 43.9005C14.1682 44.043 14.1682 44.328 14.0251 44.4706C14.0251 44.6131 13.882 44.8982 13.882 45.0407C13.5957 45.7534 13.1664 46.3235 12.4508 46.6086C12.3077 46.4661 12.0215 46.3235 11.8784 46.181C11.7353 46.0385 11.5922 45.8959 11.449 45.6109C11.3059 45.3258 11.1628 44.8982 11.1628 44.4706C11.3059 44.1855 11.3059 44.043 11.3059 43.7579ZM13.882 13.6833C13.4526 13.9683 13.0233 14.3959 12.4508 14.8235C11.8784 15.2511 11.3059 15.5362 10.5904 15.8213C9.8748 16.1063 9.30235 16.1063 8.58678 15.9638C8.58678 15.2511 9.01612 14.8235 9.58857 14.3959C9.73168 14.2534 9.8748 14.2534 10.0179 14.1109C10.161 13.9683 10.3041 13.9683 10.5904 13.8258C11.0197 13.6833 11.3059 13.5407 11.7353 13.5407C12.1646 13.3982 12.4508 13.3982 12.7371 13.3982C13.0233 13.3982 13.4526 13.3982 13.5957 13.3982C14.1682 13.3982 14.4544 13.3982 14.4544 13.3982C14.4544 13.3982 14.1682 13.3982 13.882 13.6833ZM65.6889 40.3371C65.832 40.1946 65.9751 40.052 66.2613 39.9095C66.4044 39.767 66.5476 39.6244 66.8338 39.4819C67.2631 39.1968 67.5493 39.0543 67.9787 38.7692C68.408 38.6267 68.8374 38.3416 69.1236 38.1991C69.5529 38.0566 69.8391 37.914 70.1254 37.7715C70.6978 37.4864 71.1272 37.3439 71.1272 37.3439C71.1272 37.3439 70.9841 37.7715 70.6978 38.3416C70.5547 38.6267 70.2685 38.9118 70.1254 39.3394C69.8391 39.6244 69.5529 40.052 69.2667 40.4796C68.9805 40.9072 68.5511 41.1923 68.2649 41.4774C68.1218 41.6199 67.8356 41.7624 67.6925 41.905C67.5493 41.905 67.5493 42.0475 67.4062 42.0475C67.2631 42.0475 67.2631 42.19 67.12 42.19C66.2613 42.6176 65.5458 42.6176 64.6871 42.4751C64.1146 43.6154 63.5422 44.6131 62.6835 45.7534C62.8266 45.6109 62.9697 45.6109 63.1128 45.4683C63.256 45.3258 63.5422 45.1833 63.6853 45.1833C63.8284 45.0407 64.1146 44.8982 64.4009 44.8982C64.8302 44.7556 65.2595 44.4706 65.832 44.3281C66.1182 44.1855 66.2613 44.1855 66.5475 44.043C66.8338 44.043 66.9769 43.9005 67.2631 43.9005C67.6925 43.7579 68.1218 43.6154 68.408 43.6154C69.1236 43.4729 69.5529 43.3303 69.5529 43.3303C69.5529 43.3303 69.2667 43.7579 68.8374 44.3281C68.5511 44.6131 68.2649 44.8982 67.9787 45.3258C67.6925 45.6109 67.2631 46.0385 66.8338 46.3235C66.4044 46.6086 65.9751 46.8937 65.5458 47.1787C65.2595 47.3213 65.1164 47.4638 64.8302 47.4638C64.544 47.6063 64.4009 47.6063 64.1146 47.7489C63.256 48.0339 62.2542 48.0339 61.5386 47.6063C60.823 48.4615 60.1075 49.4593 59.2488 50.3145C59.2488 50.3145 59.2488 50.3145 59.3919 50.3145C59.535 50.3145 59.6781 50.1719 59.8212 50.1719C59.9644 50.1719 60.1075 50.0294 60.2506 50.0294C60.5368 49.8869 60.6799 49.8869 60.9661 49.7443C61.5386 49.6018 61.9679 49.4593 62.5404 49.4593C63.1128 49.3167 63.5422 49.3167 63.9715 49.1742C64.4009 49.1742 64.8302 49.0317 65.2595 49.0317C65.9751 49.0317 66.4044 48.8891 66.4044 48.8891C66.4044 48.8891 65.9751 49.3167 65.4026 49.7443C65.2595 49.8869 65.1164 50.0294 64.8302 50.1719C64.6871 50.3145 64.4009 50.457 64.2577 50.5995C63.8284 50.8846 63.3991 51.1697 62.8266 51.4548C62.6835 51.4548 62.5404 51.5973 62.3973 51.5973C62.2542 51.5973 62.111 51.7398 61.9679 51.7398C61.5386 51.8824 61.2524 51.8823 60.9661 52.0249C60.3937 52.1674 59.9643 52.31 59.3919 52.4525C58.5332 52.595 57.8177 52.4525 57.2452 52.0249C56.5296 52.595 55.9572 53.3077 55.2416 53.8778C55.5278 53.8778 55.671 53.8778 55.9572 53.7353C56.5296 53.7353 57.1021 53.7353 57.5314 53.5928C58.5332 53.5928 59.6781 53.5928 60.3937 53.5928C60.823 53.5928 61.1093 53.5928 61.2524 53.7353C61.3955 53.7353 61.5386 53.7353 61.5386 53.7353C61.5386 53.7353 61.5386 53.7353 61.3955 53.7353C61.3955 53.7353 61.2524 53.8778 61.1093 53.8778C60.823 54.0204 60.5368 54.1629 60.2506 54.448C59.8212 54.5905 59.3919 54.8756 58.9626 55.1606C58.3901 55.3032 57.9608 55.5882 57.3883 55.7308C57.1021 55.8733 56.8159 55.8733 56.5296 56.0158C56.3865 56.0158 56.2434 56.1584 56.1003 56.1584C55.9572 56.1584 55.8141 56.1584 55.671 56.3009C55.0985 56.4434 54.5261 56.4434 53.9536 56.4434C53.238 56.4434 52.6656 56.3009 52.0931 56.0158C51.8069 56.1584 51.5207 56.3009 51.2345 56.4434H51.0913C47.9429 58.2964 43.9357 59.5792 39.213 60.1493C42.3614 60.7195 40.9303 60.5769 44.7944 61.1471L46.798 63C46.798 63 44.7944 62.4299 36.0645 60.4344C27.4777 62.4299 26.0466 63 26.0466 63L27.3346 61.1471C31.1986 60.5769 29.7675 60.7195 32.7729 60.1493C28.9088 59.7217 24.3292 58.4389 20.6083 56.4434H20.4652C20.1789 56.3009 19.8927 56.1584 19.6065 56.0158C19.1771 56.3009 18.4616 56.4434 17.746 56.4434C17.1736 56.4434 16.6011 56.4434 16.0287 56.3009C15.8855 56.3009 15.7424 56.3009 15.5993 56.1584C15.4562 56.1584 15.3131 56.1584 15.17 56.0158C14.8838 55.8733 14.5975 55.8733 14.3113 55.7308C13.7388 55.5882 13.1664 55.3032 12.7371 55.1606C12.3077 54.8756 11.7353 54.733 11.449 54.448C11.0197 54.3054 10.7335 54.0204 10.5904 53.8778C10.4472 53.8778 10.4472 53.7353 10.3041 53.7353H10.161C10.161 53.7353 10.3041 53.7353 10.4473 53.7353C10.5904 53.7353 11.0197 53.7353 11.3059 53.5928C12.0215 53.5928 13.0233 53.4502 14.1682 53.5928C14.7406 53.5928 15.3131 53.5928 15.7424 53.7353C16.0287 53.7353 16.1718 53.7353 16.458 53.8778C15.7424 53.3077 15.0269 52.7376 14.3113 52.0249C13.7388 52.31 13.0233 52.4525 12.1646 52.4525C11.7353 52.4525 11.1628 52.31 10.5904 52.0249C10.3041 51.8823 10.0179 51.8824 9.73168 51.7398C9.58857 51.7398 9.44546 51.5973 9.30234 51.5973C9.15923 51.5973 9.01612 51.4548 8.87301 51.4548C8.44367 51.1697 7.87122 50.8846 7.44188 50.5995C7.15565 50.457 7.01254 50.3145 6.86942 50.1719C6.72631 50.0294 6.5832 49.8869 6.29697 49.7443C5.72452 49.1742 5.29518 48.8891 5.29518 48.8891C5.29518 48.8891 5.72452 48.8891 6.44008 49.0317C7.44188 49.0317 7.87122 49.0317 8.30055 49.0317C8.72989 49.0317 9.30235 49.1742 9.73168 49.3167C10.3041 49.4593 10.7335 49.4593 11.3059 49.6018C11.5922 49.6018 11.8784 49.7443 12.0215 49.8869C12.1646 49.8869 12.3077 50.0294 12.4508 50.0294C12.5939 50.0294 12.7371 50.1719 12.8802 50.1719C12.8802 50.1719 12.8802 50.1719 13.0233 50.1719C12.1646 49.3167 11.449 48.319 10.7335 47.4638C10.0179 47.8914 9.15923 47.8914 8.15744 47.6063C7.87121 47.6063 7.7281 47.4638 7.44188 47.3213C7.15565 47.1787 7.01254 47.1787 6.72631 47.0362C6.29697 46.7511 5.72452 46.4661 5.29518 46.181C4.86584 45.8959 4.57962 45.4683 4.15028 45.1833C3.86405 44.8982 3.43471 44.4706 3.2916 44.1855C2.86226 43.7579 2.57603 43.3303 2.57603 43.3303C2.57603 43.3303 3.00537 43.4729 3.72094 43.6154C4.00716 43.7579 4.4365 43.7579 4.86584 43.9005C5.00896 43.9005 5.29518 44.043 5.58141 44.043C5.86763 44.1855 6.01075 44.1855 6.29697 44.3281C6.72631 44.4706 7.29876 44.6131 7.7281 44.8982C8.01433 45.0407 8.15744 45.0407 8.44367 45.1833C8.72989 45.3258 8.87301 45.4683 9.01612 45.4683C9.15923 45.6109 9.30235 45.6109 9.44546 45.7534C8.72989 44.7557 8.01433 43.6154 7.44188 42.4751C6.72631 42.7602 5.86763 42.6176 5.00896 42.19C4.86584 42.19 4.86584 42.0475 4.72273 42.0475C4.57962 42.0475 4.57962 41.905 4.4365 41.905C4.29339 41.7624 4.00716 41.6199 3.86405 41.4774C3.43471 41.1923 3.14849 40.7647 2.86226 40.4796C2.57603 40.1946 2.28981 39.767 2.00358 39.3394C1.57424 39.0543 1.43113 38.7692 1.28802 38.4842C1.00179 37.914 0.858678 37.4864 0.858678 37.4864C0.858678 37.4864 1.28802 37.629 1.86047 37.914C2.1467 38.0566 2.57603 38.1991 2.86226 38.3416C3.2916 38.4842 3.72094 38.7692 4.00716 38.9118C4.4365 39.0543 4.86584 39.3394 5.15207 39.6244C5.29518 39.767 5.58141 39.9095 5.72452 40.052C5.86763 40.1946 6.01075 40.3371 6.29697 40.4796C6.29697 40.4796 6.44008 40.4796 6.44008 40.6222C6.01075 39.6244 5.72452 38.6267 5.43829 37.629C5.43829 37.4864 5.29518 37.3439 5.29518 37.2014C4.57962 37.3439 3.72094 37.0588 3.14849 36.6312C2.71915 36.3461 2.43292 36.0611 2.14669 35.776C1.86047 35.4909 1.57424 35.0633 1.28802 34.7783C0.858678 34.0656 0.572452 33.2104 0.286226 32.6403C0.143113 32.0701 0 31.6425 0 31.6425C0 31.6425 0.429339 31.7851 0.858678 32.0701C1.1449 32.2127 1.43113 32.3552 1.71736 32.6403C2.00358 32.7828 2.43292 33.0679 2.71915 33.3529C3.43471 33.7805 4.15028 34.3507 4.57962 35.0634C4.57962 35.0634 4.57962 35.0633 4.57962 35.2059C4.29339 34.0656 4.15028 32.9253 4.00716 31.7851C3.2916 31.7851 2.71915 31.5 2.28981 31.0724C2.14669 30.9299 2.00358 30.7873 1.86047 30.6448C1.71736 30.5023 1.57424 30.3597 1.43113 30.2172C1.1449 29.9321 1.00179 29.5045 0.858678 29.0769C0.715565 28.9344 0.715565 28.6493 0.572452 28.5068C0.572452 28.3643 0.429339 28.2217 0.429339 27.9367C0.286226 27.6516 0.286226 27.224 0.143113 26.9389C-3.59548e-07 26.3688 0 25.9412 0 25.9412C0 25.9412 0.286226 26.0837 0.858678 26.3688C1.57424 26.7964 2.28981 27.224 2.86226 27.6516C3.14849 27.9367 3.43471 28.2217 3.72094 28.5068C3.86405 28.6493 3.86405 28.7919 4.00716 28.9344C4.00716 27.9366 3.86405 26.9389 4.00716 25.9412C3.57783 25.7986 3.14849 25.5136 2.86226 25.2285C2.57603 24.9434 2.43292 24.6584 2.14669 24.3733C2.00358 24.0882 1.86047 23.6606 1.71736 23.3756C1.57424 22.948 1.43113 22.6629 1.43113 22.2353C1.43113 21.9502 1.28802 21.5226 1.28802 21.2376C1.28802 20.9525 1.28802 20.6674 1.28802 20.5249C1.28802 20.3824 1.28802 20.2398 1.28802 20.2398C1.28802 20.2398 1.43113 20.2398 1.43113 20.3823C1.43113 20.5249 1.71736 20.6674 1.86047 20.81C2.28981 21.095 2.86226 21.6652 3.43471 22.2353C3.57783 22.3778 3.72094 22.5204 3.86405 22.6629C4.00716 22.8054 4.15028 22.948 4.29339 23.0905C4.29339 23.0905 4.29339 23.233 4.4365 23.233C4.57962 22.2353 4.72273 21.3801 5.00896 20.3823C4.57962 20.2398 4.15028 19.9547 4.00716 19.5271C3.2916 19.0995 3.00537 18.2443 2.86226 17.5317C2.86226 17.3891 2.86226 17.1041 2.86226 16.9615C2.86226 16.819 2.86226 16.5339 2.86226 16.3914C2.86226 16.1063 2.86226 15.6787 2.86226 15.3937C2.86226 15.1086 3.00537 14.8235 3.00537 14.681C3.00537 14.5385 3.00537 14.3959 3.00537 14.3959C3.00537 14.3959 3.2916 14.681 3.57782 14.9661C3.86405 15.3937 4.29339 15.8213 4.72273 16.5339C4.86584 16.819 5.15207 17.1041 5.29518 17.5317C5.29518 17.6742 5.43829 17.8167 5.43829 17.9593C5.86763 16.9615 6.29697 15.9638 6.72631 14.9661C6.29697 14.8235 6.01075 14.3959 5.72452 13.9683C5.43829 13.3982 5.43829 12.6855 5.58141 11.8303C5.72452 11.1176 5.86763 10.405 6.15386 9.83484C6.44008 9.2647 6.5832 8.97964 6.5832 8.97964C6.5832 8.97964 6.72631 9.2647 7.01254 9.69231C7.01254 9.97737 7.15565 10.1199 7.15565 10.405C7.29876 10.69 7.44188 10.9751 7.58499 11.2602C7.7281 11.5452 7.7281 11.8303 7.87121 12.2579C7.87121 12.4005 7.87121 12.543 7.87121 12.6855V12.8281C8.58678 11.8303 9.30235 10.8326 10.161 9.83484C9.8748 9.69231 9.73168 9.54977 9.58857 9.40724C9.44546 9.12217 9.30234 8.97964 9.30234 8.55204C9.30234 8.26697 9.30234 7.9819 9.30234 7.5543C9.30234 7.26923 9.44546 6.84163 9.58857 6.55656C9.8748 5.84389 10.161 5.27376 10.4473 4.84615C10.7335 4.41855 11.0197 4.13348 11.0197 4.13348C11.0197 4.13348 11.1628 4.41855 11.3059 4.84615C11.449 5.27376 11.5922 5.84389 11.5922 6.41403C11.7353 6.98416 11.7353 7.69683 11.449 8.26697V8.4095C12.4508 7.41176 13.4526 6.41403 14.5975 5.41629C13.4526 4.84615 13.7388 3.42081 14.4544 2.28054C14.7406 1.71041 15.17 1.14027 15.4562 0.71267C15.7424 0.285068 16.0287 0 16.0287 0C16.0287 0 16.3149 0.997737 16.3149 2.13801C16.3149 2.70814 16.1718 3.27828 16.0287 3.84842C16.0287 3.99095 15.8855 4.13348 15.8855 4.13348C16.8873 3.27828 18.7478 2.28054 18.7478 2.28054C11.5922 8.26697 6.01075 15.5362 5.15207 23.9457C4.86584 26.9389 5.15207 29.9321 5.72452 33.0679C6.29697 36.4887 7.15565 39.9095 8.87301 43.0452C11.5922 47.8914 15.17 51.7398 20.1789 54.8756C20.1789 54.8756 27.7639 58.5815 35.6351 58.724C35.7782 58.724 35.7783 58.724 35.9214 58.724C36.0645 58.724 36.3507 58.724 36.4938 58.724C44.5081 58.5815 51.95 54.8756 51.95 54.8756C56.959 51.8824 60.5368 47.8914 63.256 43.0452C64.9733 39.9095 65.832 36.4887 66.4044 33.0679C66.8338 30.0747 67.2631 27.0814 66.9769 23.9457C66.1182 15.5362 60.6799 8.26697 53.3812 2.28054C53.3812 2.28054 55.2416 3.27828 56.2434 4.13348C56.2434 3.99095 56.1003 3.84842 56.1003 3.84842C55.8141 3.27828 55.8141 2.70814 55.8141 2.13801C55.8141 0.997737 56.1003 0 56.1003 0C56.1003 0 56.3865 0.285068 56.6727 0.71267C56.959 1.14027 57.3883 1.71041 57.6745 2.28054C58.247 3.42081 58.6763 4.84615 57.5314 5.41629C58.6763 6.41403 59.6781 7.41176 60.6799 8.4095V8.26697C60.5368 7.69683 60.5368 6.98416 60.5368 6.41403C60.6799 5.84389 60.823 5.27376 60.823 4.84615C60.9661 4.41855 61.1093 4.13348 61.1093 4.13348C61.1093 4.13348 61.3955 4.41855 61.6817 4.84615C61.9679 5.27376 62.2542 5.98642 62.5404 6.55656C62.6835 6.84163 62.8266 7.26923 62.8266 7.5543C62.8266 7.83937 62.8266 8.26697 62.8266 8.55204C62.8266 8.8371 62.6835 9.12217 62.5404 9.40724C62.3973 9.54977 62.2542 9.69231 61.9679 9.83484C62.8266 10.8326 63.5422 11.8303 64.2577 12.8281V12.6855C64.2577 12.543 64.2577 12.4005 64.2577 12.2579C64.2577 11.9729 64.4008 11.5452 64.544 11.2602C64.6871 10.9751 64.8302 10.69 64.9733 10.405C65.1164 10.1199 65.2595 9.83484 65.2595 9.69231C65.4026 9.2647 65.6889 8.97964 65.6889 8.97964C65.6889 8.97964 65.832 9.2647 66.1182 9.83484C66.2613 10.405 66.5475 11.1176 66.6907 11.8303C66.8338 12.543 66.6907 13.2557 66.5475 13.9683C66.4044 14.3959 65.9751 14.8235 65.5458 14.9661C65.9751 15.8213 66.4044 16.819 66.8338 17.9593C66.8338 17.8167 66.9769 17.6742 66.9769 17.5317C67.12 17.2466 67.2631 16.9615 67.5493 16.5339C67.9787 15.9638 68.408 15.3937 68.6942 14.9661C68.9805 14.5385 69.2667 14.3959 69.2667 14.3959C69.2667 14.3959 69.2667 14.5385 69.2667 14.681C69.2667 14.8235 69.4098 15.1086 69.4098 15.3937C69.4098 15.6787 69.4098 15.9638 69.4098 16.3914C69.4098 16.5339 69.4098 16.819 69.4098 16.9615C69.4098 17.1041 69.4098 17.3891 69.4098 17.5317C69.2667 18.2443 69.1236 19.0995 68.6942 19.5271C68.408 19.9547 68.1218 20.2398 67.6925 20.3823C67.9787 21.2376 68.1218 22.2353 68.2649 23.233C68.2649 23.233 68.2649 23.0905 68.408 23.0905C68.5511 22.948 68.6942 22.8054 68.8374 22.6629C68.9805 22.5204 69.1236 22.3778 69.2667 22.2353C69.8391 21.6652 70.4116 21.2376 70.8409 20.81C71.1272 20.6674 71.2703 20.5249 71.4134 20.3823C71.5565 20.2398 71.5565 20.2398 71.5565 20.2398C71.5565 20.2398 71.5565 20.3824 71.5565 20.5249C71.5565 20.6674 71.5565 20.9525 71.5565 21.2376C71.5565 21.5226 71.4134 21.8077 71.4134 22.2353C71.4134 22.5204 71.2703 22.948 71.1272 23.3756C70.9841 23.8032 70.8409 24.0882 70.6978 24.3733C70.5547 24.6584 70.2685 25.086 69.9823 25.2285C69.696 25.5136 69.2667 25.7986 68.8374 25.9412C68.8374 26.9389 68.8374 27.9366 68.8374 28.9344C68.9805 28.7919 68.9805 28.6493 69.1236 28.5068C69.4098 28.2217 69.696 27.9367 69.9823 27.6516C70.5547 27.0814 71.2703 26.6538 71.6996 26.3688C72.129 26.0837 72.5583 25.9412 72.5583 25.9412C72.5583 25.9412 72.5583 26.3688 72.4152 26.7964C72.4152 27.0814 72.2721 27.3665 72.129 27.7941C72.129 27.9366 71.9858 28.0792 71.9858 28.3643C71.8427 28.5068 71.8427 28.7919 71.6996 28.9344C71.5565 29.362 71.2703 29.6471 71.1272 30.0747C70.9841 30.2172 70.8409 30.3597 70.6978 30.5023C70.5547 30.6448 70.4116 30.7873 70.2685 30.9299C69.8391 31.3575 69.2667 31.6425 68.5511 31.6425C68.408 32.7828 68.2649 33.9231 67.9787 35.0634C67.9787 35.0634 67.9787 35.0633 67.9787 34.9208C68.5511 34.3507 69.1236 33.638 69.8391 33.2104C70.1254 32.9253 70.5547 32.7828 70.8409 32.4977C71.1272 32.3552 71.4134 32.0701 71.6996 31.9276C72.2721 31.6425 72.5583 31.5 72.5583 31.5C72.5583 31.5 72.4152 31.9276 72.2721 32.4977C71.9858 33.0679 71.6996 33.9231 71.2703 34.6357C70.9841 35.0634 70.6978 35.3484 70.4116 35.6335C70.1254 35.9185 69.8391 36.2036 69.4098 36.4887C68.6942 36.9163 67.9787 37.2014 67.2631 37.0588C67.2631 37.2014 67.12 37.3439 67.12 37.4864C66.8338 38.4842 66.5476 39.4819 66.1182 40.4796C65.5458 40.4796 65.5458 40.4796 65.6889 40.3371Z" fill="#DFBB6B"/>
<path d="M26.6412 32.4111V33.9492H19.8326V32.6367L23.0523 29.1846C23.3759 28.8245 23.6311 28.5078 23.8179 28.2344C24.0048 27.9564 24.1392 27.708 24.2213 27.4893C24.3078 27.266 24.3511 27.054 24.3511 26.8535C24.3511 26.5527 24.301 26.2952 24.2008 26.0811C24.1005 25.8623 23.9524 25.6937 23.7564 25.5752C23.565 25.4567 23.328 25.3975 23.0455 25.3975C22.7447 25.3975 22.4849 25.4704 22.2662 25.6162C22.052 25.762 21.8879 25.9648 21.774 26.2246C21.6646 26.4844 21.6099 26.7783 21.6099 27.1064H19.6343C19.6343 26.514 19.7756 25.9717 20.0582 25.4795C20.3407 24.9827 20.7395 24.5885 21.2545 24.2969C21.7694 24.0007 22.3801 23.8525 23.0865 23.8525C23.7838 23.8525 24.3717 23.9665 24.8502 24.1943C25.3332 24.4176 25.6978 24.7412 25.9439 25.165C26.1946 25.5843 26.3199 26.0856 26.3199 26.6689C26.3199 26.9971 26.2675 27.3184 26.1627 27.6328C26.0578 27.9427 25.9075 28.2526 25.7115 28.5625C25.5201 28.8678 25.2877 29.1777 25.0142 29.4922C24.7408 29.8066 24.4377 30.1325 24.105 30.4697L22.3756 32.4111H26.6412ZM34.5709 28.0977V29.8203C34.5709 30.5677 34.4911 31.2126 34.3316 31.7549C34.1721 32.2926 33.942 32.7347 33.6412 33.0811C33.345 33.4229 32.9918 33.6758 32.5816 33.8398C32.1715 34.0039 31.7157 34.0859 31.2144 34.0859C30.8134 34.0859 30.4397 34.0358 30.0933 33.9355C29.747 33.8307 29.4348 33.6689 29.1568 33.4502C28.8834 33.2314 28.6464 32.9557 28.4459 32.623C28.2499 32.2858 28.0995 31.8848 27.9947 31.4199C27.8899 30.9551 27.8375 30.4219 27.8375 29.8203V28.0977C27.8375 27.3503 27.9172 26.71 28.0767 26.1768C28.2408 25.639 28.4709 25.1992 28.7672 24.8574C29.0679 24.5156 29.4234 24.265 29.8336 24.1055C30.2437 23.9414 30.6995 23.8594 31.2008 23.8594C31.6018 23.8594 31.9732 23.9118 32.315 24.0166C32.6614 24.1169 32.9735 24.2741 33.2515 24.4883C33.5295 24.7025 33.7665 24.9782 33.9625 25.3154C34.1584 25.6481 34.3088 26.0469 34.4136 26.5117C34.5185 26.972 34.5709 27.5007 34.5709 28.0977ZM32.5953 30.0801V27.8311C32.5953 27.471 32.5748 27.1566 32.5338 26.8877C32.4973 26.6188 32.4403 26.391 32.3629 26.2041C32.2854 26.0127 32.1897 25.8577 32.0758 25.7393C31.9618 25.6208 31.8319 25.5342 31.6861 25.4795C31.5403 25.4248 31.3785 25.3975 31.2008 25.3975C30.9774 25.3975 30.7792 25.4408 30.606 25.5273C30.4374 25.6139 30.2939 25.7529 30.1754 25.9443C30.0569 26.1312 29.9657 26.3818 29.9019 26.6963C29.8427 27.0062 29.8131 27.3844 29.8131 27.8311V30.0801C29.8131 30.4401 29.8313 30.7568 29.8677 31.0303C29.9088 31.3037 29.968 31.5384 30.0455 31.7344C30.1275 31.9258 30.2232 32.083 30.3326 32.2061C30.4465 32.3245 30.5764 32.4111 30.7222 32.4658C30.8726 32.5205 31.0367 32.5479 31.2144 32.5479C31.4332 32.5479 31.6269 32.5046 31.7955 32.418C31.9687 32.3268 32.1145 32.1855 32.233 31.9941C32.356 31.7982 32.4472 31.543 32.5064 31.2285C32.5657 30.9141 32.5953 30.5312 32.5953 30.0801ZM42.7193 32.4111V33.9492H35.9107V32.6367L39.1304 29.1846C39.454 28.8245 39.7092 28.5078 39.8961 28.2344C40.0829 27.9564 40.2174 27.708 40.2994 27.4893C40.386 27.266 40.4293 27.054 40.4293 26.8535C40.4293 26.5527 40.3791 26.2952 40.2789 26.0811C40.1786 25.8623 40.0305 25.6937 39.8345 25.5752C39.6431 25.4567 39.4062 25.3975 39.1236 25.3975C38.8228 25.3975 38.5631 25.4704 38.3443 25.6162C38.1301 25.762 37.9661 25.9648 37.8521 26.2246C37.7427 26.4844 37.6881 26.7783 37.6881 27.1064H35.7125C35.7125 26.514 35.8537 25.9717 36.1363 25.4795C36.4189 24.9827 36.8176 24.5885 37.3326 24.2969C37.8476 24.0007 38.4582 23.8525 39.1646 23.8525C39.8619 23.8525 40.4498 23.9665 40.9283 24.1943C41.4114 24.4176 41.7759 24.7412 42.022 25.165C42.2727 25.5843 42.398 26.0856 42.398 26.6689C42.398 26.9971 42.3456 27.3184 42.2408 27.6328C42.136 27.9427 41.9856 28.2526 41.7896 28.5625C41.5982 28.8678 41.3658 29.1777 41.0924 29.4922C40.8189 29.8066 40.5159 30.1325 40.1832 30.4697L38.4537 32.4111H42.7193ZM50.7584 32.4111V33.9492H43.9498V32.6367L47.1695 29.1846C47.4931 28.8245 47.7483 28.5078 47.9351 28.2344C48.122 27.9564 48.2564 27.708 48.3384 27.4893C48.425 27.266 48.4683 27.054 48.4683 26.8535C48.4683 26.5527 48.4182 26.2952 48.3179 26.0811C48.2177 25.8623 48.0696 25.6937 47.8736 25.5752C47.6822 25.4567 47.4452 25.3975 47.1627 25.3975C46.8619 25.3975 46.6021 25.4704 46.3834 25.6162C46.1692 25.762 46.0051 25.9648 45.8912 26.2246C45.7818 26.4844 45.7271 26.7783 45.7271 27.1064H43.7515C43.7515 26.514 43.8928 25.9717 44.1754 25.4795C44.4579 24.9827 44.8567 24.5885 45.3717 24.2969C45.8866 24.0007 46.4973 23.8525 47.2037 23.8525C47.9009 23.8525 48.4888 23.9665 48.9674 24.1943C49.4504 24.4176 49.815 24.7412 50.0611 25.165C50.3118 25.5843 50.4371 26.0856 50.4371 26.6689C50.4371 26.9971 50.3847 27.3184 50.2799 27.6328C50.175 27.9427 50.0246 28.2526 49.8287 28.5625C49.6373 28.8678 49.4049 29.1777 49.1314 29.4922C48.858 29.8066 48.5549 30.1325 48.2222 30.4697L46.4927 32.4111H50.7584Z" fill="black"/>
</svg>
