<svg width="67" height="66" viewBox="0 0 67 66" fill="none" xmlns="http://www.w3.org/2000/svg">
<rect width="66.0987" height="66" rx="33" fill="#B193DB"/>
<path d="M21.7991 28.0264V38H19.8304V30.2959L17.4651 31.0479V29.4961L21.5872 28.0264H21.7991ZM31.7386 32.1484V33.8711C31.7386 34.6185 31.6588 35.2633 31.4993 35.8057C31.3398 36.3434 31.1097 36.7855 30.8089 37.1318C30.5127 37.4736 30.1595 37.7266 29.7493 37.8906C29.3391 38.0547 28.8834 38.1367 28.3821 38.1367C27.9811 38.1367 27.6074 38.0866 27.261 37.9863C26.9147 37.8815 26.6025 37.7197 26.3245 37.501C26.0511 37.2822 25.8141 37.0065 25.6136 36.6738C25.4176 36.3366 25.2672 35.9355 25.1624 35.4707C25.0576 35.0059 25.0052 34.4727 25.0052 33.8711V32.1484C25.0052 31.401 25.0849 30.7607 25.2444 30.2275C25.4085 29.6898 25.6386 29.25 25.9349 28.9082C26.2356 28.5664 26.5911 28.3158 27.0013 28.1562C27.4114 27.9922 27.8671 27.9102 28.3684 27.9102C28.7695 27.9102 29.1409 27.9626 29.4827 28.0674C29.8291 28.1676 30.1412 28.3249 30.4192 28.5391C30.6972 28.7533 30.9342 29.029 31.1302 29.3662C31.3261 29.6989 31.4765 30.0977 31.5813 30.5625C31.6862 31.0228 31.7386 31.5514 31.7386 32.1484ZM29.763 34.1309V31.8818C29.763 31.5218 29.7425 31.2074 29.7015 30.9385C29.665 30.6696 29.608 30.4417 29.5306 30.2549C29.4531 30.0635 29.3574 29.9085 29.2434 29.79C29.1295 29.6715 28.9996 29.585 28.8538 29.5303C28.708 29.4756 28.5462 29.4482 28.3684 29.4482C28.1451 29.4482 27.9469 29.4915 27.7737 29.5781C27.6051 29.6647 27.4615 29.8037 27.3431 29.9951C27.2246 30.182 27.1334 30.4326 27.0696 30.7471C27.0104 31.057 26.9807 31.4352 26.9807 31.8818V34.1309C26.9807 34.4909 26.999 34.8076 27.0354 35.0811C27.0765 35.3545 27.1357 35.5892 27.2132 35.7852C27.2952 35.9766 27.3909 36.1338 27.5003 36.2568C27.6142 36.3753 27.7441 36.4619 27.8899 36.5166C28.0403 36.5713 28.2044 36.5986 28.3821 36.5986C28.6009 36.5986 28.7946 36.5553 28.9632 36.4688C29.1363 36.3776 29.2822 36.2363 29.4007 36.0449C29.5237 35.849 29.6149 35.5938 29.6741 35.2793C29.7334 34.9648 29.763 34.582 29.763 34.1309ZM39.7776 32.1484V33.8711C39.7776 34.6185 39.6979 35.2633 39.5384 35.8057C39.3789 36.3434 39.1487 36.7855 38.8479 37.1318C38.5517 37.4736 38.1985 37.7266 37.7884 37.8906C37.3782 38.0547 36.9225 38.1367 36.4212 38.1367C36.0201 38.1367 35.6464 38.0866 35.3001 37.9863C34.9537 37.8815 34.6416 37.7197 34.3636 37.501C34.0901 37.2822 33.8531 37.0065 33.6526 36.6738C33.4567 36.3366 33.3063 35.9355 33.2015 35.4707C33.0966 35.0059 33.0442 34.4727 33.0442 33.8711V32.1484C33.0442 31.401 33.124 30.7607 33.2835 30.2275C33.4475 29.6898 33.6777 29.25 33.9739 28.9082C34.2747 28.5664 34.6302 28.3158 35.0403 28.1562C35.4505 27.9922 35.9062 27.9102 36.4075 27.9102C36.8085 27.9102 37.18 27.9626 37.5218 28.0674C37.8681 28.1676 38.1803 28.3249 38.4583 28.5391C38.7363 28.7533 38.9733 29.029 39.1692 29.3662C39.3652 29.6989 39.5156 30.0977 39.6204 30.5625C39.7252 31.0228 39.7776 31.5514 39.7776 32.1484ZM37.802 34.1309V31.8818C37.802 31.5218 37.7815 31.2074 37.7405 30.9385C37.7041 30.6696 37.6471 30.4417 37.5696 30.2549C37.4921 30.0635 37.3964 29.9085 37.2825 29.79C37.1686 29.6715 37.0387 29.585 36.8929 29.5303C36.747 29.4756 36.5852 29.4482 36.4075 29.4482C36.1842 29.4482 35.986 29.4915 35.8128 29.5781C35.6442 29.6647 35.5006 29.8037 35.3821 29.9951C35.2636 30.182 35.1725 30.4326 35.1087 30.7471C35.0494 31.057 35.0198 31.4352 35.0198 31.8818V34.1309C35.0198 34.4909 35.038 34.8076 35.0745 35.0811C35.1155 35.3545 35.1748 35.5892 35.2522 35.7852C35.3343 35.9766 35.43 36.1338 35.5393 36.2568C35.6533 36.3753 35.7832 36.4619 35.929 36.5166C36.0794 36.5713 36.2434 36.5986 36.4212 36.5986C36.6399 36.5986 36.8336 36.5553 37.0022 36.4688C37.1754 36.3776 37.3212 36.2363 37.4397 36.0449C37.5628 35.849 37.6539 35.5938 37.7132 35.2793C37.7724 34.9648 37.802 34.582 37.802 34.1309ZM41.0901 30.4873V29.9609C41.0901 29.5827 41.1722 29.2386 41.3362 28.9287C41.5003 28.6188 41.7418 28.3704 42.0608 28.1836C42.3798 27.9967 42.7718 27.9033 43.2366 27.9033C43.7151 27.9033 44.1139 27.9967 44.4329 28.1836C44.7565 28.3704 44.998 28.6188 45.1575 28.9287C45.3216 29.2386 45.4036 29.5827 45.4036 29.9609V30.4873C45.4036 30.8564 45.3216 31.196 45.1575 31.5059C44.998 31.8158 44.7587 32.0641 44.4397 32.251C44.1207 32.4378 43.7265 32.5312 43.2571 32.5312C42.7832 32.5312 42.3844 32.4378 42.0608 32.251C41.7418 32.0641 41.5003 31.8158 41.3362 31.5059C41.1722 31.196 41.0901 30.8564 41.0901 30.4873ZM42.3958 29.9609V30.4873C42.3958 30.6468 42.4254 30.7995 42.4847 30.9453C42.5485 31.0866 42.6442 31.2028 42.7718 31.2939C42.9039 31.3805 43.0634 31.4238 43.2503 31.4238C43.4462 31.4238 43.6057 31.3805 43.7288 31.2939C43.8518 31.2028 43.943 31.0866 44.0022 30.9453C44.0615 30.7995 44.0911 30.6468 44.0911 30.4873V29.9609C44.0911 29.7923 44.0592 29.6374 43.9954 29.4961C43.9362 29.3503 43.8427 29.234 43.7151 29.1475C43.5921 29.0563 43.4326 29.0107 43.2366 29.0107C43.0543 29.0107 42.8994 29.0563 42.7718 29.1475C42.6442 29.234 42.5485 29.3503 42.4847 29.4961C42.4254 29.6374 42.3958 29.7923 42.3958 29.9609ZM45.8479 36.0859V35.5596C45.8479 35.1859 45.93 34.8441 46.094 34.5342C46.2627 34.2243 46.5065 33.9759 46.8255 33.7891C47.149 33.6022 47.5455 33.5088 48.0149 33.5088C48.4889 33.5088 48.8854 33.6022 49.2044 33.7891C49.5234 33.9759 49.7649 34.2243 49.929 34.5342C50.0931 34.8441 50.1751 35.1859 50.1751 35.5596V36.0859C50.1751 36.4596 50.0931 36.8014 49.929 37.1113C49.7695 37.4212 49.5302 37.6696 49.2112 37.8564C48.8922 38.0433 48.498 38.1367 48.0286 38.1367C47.5546 38.1367 47.1559 38.0433 46.8323 37.8564C46.5087 37.6696 46.2627 37.4212 46.094 37.1113C45.93 36.8014 45.8479 36.4596 45.8479 36.0859ZM47.1604 35.5596V36.0859C47.1604 36.25 47.1969 36.4049 47.2698 36.5508C47.3427 36.6966 47.443 36.8128 47.5706 36.8994C47.7028 36.986 47.8554 37.0293 48.0286 37.0293C48.2474 37.0293 48.4182 36.986 48.5413 36.8994C48.6643 36.8128 48.7487 36.6966 48.7942 36.5508C48.8444 36.4049 48.8694 36.25 48.8694 36.0859V35.5596C48.8694 35.3955 48.8375 35.2428 48.7737 35.1016C48.7099 34.9557 48.6142 34.8395 48.4866 34.7529C48.3636 34.6618 48.2063 34.6162 48.0149 34.6162C47.8235 34.6162 47.664 34.6618 47.5364 34.7529C47.4134 34.8395 47.3199 34.9557 47.2561 35.1016C47.1923 35.2428 47.1604 35.3955 47.1604 35.5596ZM48.5003 29.4688L43.6399 37.248L42.6829 36.7422L47.5432 28.9629L48.5003 29.4688Z" fill="white"/>
</svg>
