<svg width="63" height="62" viewBox="0 0 63 62" fill="none" xmlns="http://www.w3.org/2000/svg">
<rect width="62.0927" height="62" rx="11" fill="#474BC6"/>
<path d="M31.4239 29.3436H31.4343L36.5387 27.6041C36.5596 27.5103 36.5596 27.4166 36.5596 27.3332C36.5596 27.2395 36.5491 27.1562 36.5179 27.0728C36.4345 26.8333 36.2783 26.5728 36.0595 26.3853V24.1041C36.0595 22.4166 35.4553 21.75 34.8303 21.3646C34.5074 20.3854 33.1636 19 30.528 19C27.4029 19 25.0486 22.0937 25.0486 24.1041C25.0486 24.9374 25.0174 25.5937 24.9861 26.0937C24.9861 26.1978 24.9757 26.2916 24.9757 26.3749C24.7465 26.5833 24.5903 26.8645 24.5173 27.1353C24.5069 27.1978 24.4965 27.2603 24.4965 27.3332C24.4965 28.1457 24.9549 29.3228 25.0174 29.4582C25.0799 29.6353 25.2153 29.7811 25.3924 29.8645C25.4028 29.9061 25.4132 29.9686 25.4132 30.0936C25.4132 31.1978 26.3612 32.2394 26.882 32.7394C26.8299 33.8853 26.507 34.6769 26.0487 34.8748L21.9651 36.229C20.8088 36.6144 19.9442 37.5519 19.6421 38.7394L19.09 40.9477C19.0379 41.1769 19.09 41.4268 19.2359 41.6143C19.3817 41.8018 19.6109 41.9164 19.8505 41.9164H31.5281C31.2156 41.5206 30.9239 41.0831 30.653 40.6144C29.9655 39.3956 29.4863 37.9165 29.4863 36.2394V32.0624C29.4863 30.8332 30.2676 29.7499 31.4239 29.3436Z" fill="white"/>
<path d="M43.5401 31.3186L38.0711 29.4582C37.9086 29.402 37.7315 29.402 37.569 29.4582L32.1 31.3186C31.7823 31.4259 31.5697 31.7228 31.5697 32.0582V36.2436C31.5697 41.3519 37.2721 43.8352 37.5148 43.9383C37.7106 44.0206 37.9294 44.0206 38.1252 43.9383C38.368 43.8341 44.0703 41.3519 44.0703 36.2436V32.0582C44.0703 31.7228 43.8578 31.4259 43.5401 31.3186ZM41.2431 35.2686L38.3784 38.9144C38.0138 39.38 37.3304 39.4477 36.8814 39.0623L35.0584 37.4998C34.6209 37.1259 34.5699 36.4675 34.9459 36.0311C35.3199 35.5946 35.9783 35.5446 36.4137 35.9186L37.4117 36.7738L39.6045 33.9832C39.9597 33.5311 40.6139 33.4509 41.0671 33.8082C41.5202 34.1613 41.5994 34.8165 41.2431 35.2686Z" fill="white"/>
</svg>
