<svg width="127" height="112" viewBox="0 0 127 112" fill="none" xmlns="http://www.w3.org/2000/svg">
<path d="M64.5788 0.00938145C29.7909 -0.584958 1.10568 27.1351 0.511341 61.923C0.173756 81.6479 8.96523 99.3759 22.9631 111.165C23.8784 110.366 24.8603 109.634 25.9515 109.04L44.7492 98.7863C47.2146 97.4407 48.7503 94.8565 48.7503 92.0465V84.3438C48.7503 84.3438 43.2325 77.7443 41.1285 68.5748C39.3835 67.4456 38.2139 65.4937 38.2139 63.2709V54.8408C38.2139 52.9865 39.0388 51.3294 40.3202 50.1693V37.9829C40.3202 37.9829 37.8169 19.0187 63.4995 19.0187C89.1821 19.0187 86.6787 37.9829 86.6787 37.9829V50.1693C87.9625 51.3294 88.7851 52.9865 88.7851 54.8408V63.2709C88.7851 66.1047 86.8832 68.4892 84.3014 69.2856C82.8631 73.7574 80.7876 78.0201 78.0442 81.8952C77.3524 82.8722 76.7057 83.6996 76.1399 84.3438V92.2414C76.1399 95.1489 77.7827 97.8092 80.3835 99.1072L100.513 109.171C101.72 109.774 102.812 110.538 103.817 111.386C117.392 100.065 126.162 83.1385 126.488 64.0768C127.087 29.2889 99.3691 0.603721 64.5788 0.00938145Z" fill="#556080"/>
</svg>
